<?xml version="1.0" encoding="UTF-8" standalone="no"?>
<svg
   width="553.80481"
   height="859.95728"
   viewBox="0 0 553.80481 859.95728"
   version="1.1"
   id="svg4"
   xmlns="http://www.w3.org/2000/svg"
   xmlns:svg="http://www.w3.org/2000/svg">
  <defs
     id="defs8" />
  <path
     d="m 425.87182,1.425 c -0.954,1.15 0.74,4.368 8.766,16.659 l 9.948,15.234 -5.627,4.726 -5.627,4.725 -2.396,-1.884 c -1.318,-1.037 -3.219,-1.885 -4.226,-1.885 -2.211,0 -4.267,3.488 -3.587,6.087 0.353,1.351 -0.667,2.736 -3.607,4.898 -2.255,1.658 -4.561,3.015 -5.125,3.015 -0.563,0 -4.412,3.499 -8.553,7.775 -5.306,5.48 -8.919,8.304 -12.241,9.568 -3.652,1.39 -5.228,2.729 -7.002,5.945 -1.952,3.537 -3.397,4.624 -9.787,7.36 -9.15,3.918 -8.998,3.902 -8.998,0.976 0,-1.306 -1.139,-4.95 -2.53,-8.096 -2.752,-6.224 -2.914,-8.159 -1.903,-22.816 0.591,-8.567 0.453,-10.032 -1.101,-11.75 -2.247,-2.483 -6.064,-2.492 -11.813,-0.028 -4.766,2.043 -6.653,4.401 -6.653,8.312 0,1.484 -1.131,3.214 -3.011,4.604 -1.656,1.224 -4.139,3.931 -5.518,6.014 -1.378,2.083 -4.411,4.848 -6.739,6.143 -2.327,1.296 -5.357,3.153 -6.732,4.126 -2.4,1.698 -2.901,1.687 -12.5,-0.276 -5.5,-1.124 -10.318,-2.343 -10.707,-2.707 -0.389,-0.365 1.262,-4.036 3.668,-8.157 4.293,-7.352 4.335,-7.509 2.207,-8.345 -6.916,-2.718 -7.013,-4.015 -0.81,-10.802 3.626,-3.968 7.654,-6.832 15.041,-10.695 l 10.088,-5.275 -1.417,-2.688 c -3.53,-6.694 -3.219,-6.679 -12.879,-0.63 -4.846,3.034 -10.069,5.768 -11.609,6.076 -3.586,0.717 -4.05,-0.868 -4.068,-13.884 L 298.80982,4 h -2.545 c -3.355,0 -7.437,4.179 -7.525,7.705 -0.039,1.537 -0.401,3.637 -0.806,4.666 -0.675,1.718 -0.876,1.656 -2.453,-0.75 -2.186,-3.336 -2.844,-3.292 -4.987,0.337 -1.718,2.907 -1.697,3.051 1.195,8.25 3.572,6.421 5.543,15.49 4.655,21.411 -0.361,2.41 -0.886,4.381 -1.167,4.381 -0.281,0 -2.511,-1.172 -4.955,-2.604 -5.182,-3.038 -8.52,-2.687 -11.04,1.158 -2.858,4.362 -5.672,19.461 -3.622,19.437 0.413,-0.005 2.485,-2.701 4.606,-5.993 l 3.855,-5.984 2.733,1.946 c 5.359,3.816 5.516,4.511 2.138,9.421 -2.403,3.492 -3.082,5.548 -3.082,9.327 0,2.666 0.659,5.788 1.465,6.938 1.411,2.015 1.295,2.115 -3.14,2.723 -2.532,0.347 -5.149,0.631 -5.816,0.631 -0.809,0 -1.415,-2.872 -1.821,-8.627 -0.335,-4.745 -0.813,-8.831 -1.063,-9.081 -0.944,-0.944 -4.524,1.809 -6.49,4.99 -1.125,1.819 -2.402,6.212 -2.84,9.763 l -0.795,6.455 -3.496,0.332 c -5.487,0.52 -6.331,1.764 -5.646,8.317 1.106,10.582 6.65,35.189 9.167,40.687 3.242,7.081 4.052,12.357 2.48,16.153 -1.483,3.579 -2.278,3.662 -8.528,0.898 -4.46,-1.973 -12.403,-2.294 -14.126,-0.571 -0.303,0.302 -0.033,2.117 0.599,4.033 0.913,2.767 2.573,4.328 8.083,7.601 7.743,4.601 8.967,6.206 8.967,11.765 0,3.343 -0.387,3.993 -2.955,4.962 -4.591,1.733 -5.06,7.093 -1.568,17.92 0.545,1.69 0.085,2.342 -2.367,3.358 -4.969,2.058 -5.622,3.512 -3.325,7.405 2.708,4.591 3.581,9.088 2.246,11.581 -1.276,2.385 -3.576,2.692 -4.731,0.633 -0.44,-0.784 -2.582,-1.571 -4.761,-1.75 -3.272,-0.268 -4.061,-0.757 -4.542,-2.814 -0.545,-2.329 -7.085,-7.884 -17.971,-15.263 -3.972,-2.692 -6.313,-6.449 -7.49,-12.022 -0.782,-3.698 -7.232,-10.725 -9.846,-10.725 -2.654,0 -12.69,10.264 -12.69,12.979 0,2.617 3.638,6.244 5.811,5.794 1.524,-0.315 3.879,2.295 12.061,13.369 1.119,1.515 1.142,2.409 0.128,4.858 -1.618,3.907 -0.152,5.792 5.167,6.643 3.887,0.621 11.556,5.604 25.551,16.603 6.508,5.114 6.542,5.167 3.924,6.04 -2.256,0.752 -2.642,1.452 -2.642,4.797 0,2.703 0.632,4.459 2.039,5.667 5.069,4.35 6.441,6.416 10.097,15.2 4.675,11.229 10.382,26.563 11.213,30.125 0.557,2.386 0.211,2.698 -4.694,4.245 -2.912,0.918 -7.443,3.091 -10.068,4.83 -3.11,2.06 -6.43,3.321 -9.53,3.619 l -4.758,0.457 -0.689,-6.731 c -0.38,-3.702 -1.572,-8.46 -2.65,-10.573 -1.078,-2.113 -1.96,-5.83 -1.96,-8.26 0,-3.316 -0.505,-4.76 -2.023,-5.79 -1.67,-1.133 -2.093,-2.734 -2.428,-9.178 -0.347,-6.685 -0.057,-8.553 2.013,-13 2.801,-6.016 3.126,-10.216 0.856,-11.087 -3.777,-1.449 -6.165,-0.426 -11.418,4.893 -2.987,3.025 -5.94,5.5 -6.561,5.5 -1.51,0 -4.439,3.314 -4.439,5.024 0,0.752 1.161,2.578 2.58,4.06 1.419,1.481 2.93,4.242 3.357,6.135 0.77,3.414 0.739,3.453 -3.636,4.623 -3.599,0.963 -4.677,1.814 -5.85,4.621 -1.856,4.443 -1.08,6.34 5.944,14.537 l 5.57,6.5 -2.482,1.833 c -3.254,2.403 -3.147,3.382 1.017,9.238 1.925,2.707 3.5,5.599 3.501,6.426 0,0.827 0.879,3.817 1.954,6.645 1.297,3.412 1.757,6.357 1.368,8.755 -0.497,3.063 0.126,4.84 4.084,11.652 l 4.67,8.038 -2.038,2.591 c -3.115,3.959 -2.598,6.778 1.905,10.397 4.048,3.253 6.627,7.528 7.661,12.701 0.523,2.614 0.276,2.999 -2.259,3.518 -1.565,0.32 -3.683,1.202 -4.706,1.961 -1.792,1.329 -1.76,1.575 0.885,6.812 1.509,2.988 4.055,7.345 5.658,9.683 l 2.913,4.25 h -3.419 -3.419 l -0.71,10.009 -0.71,10.009 -3.169,-1.759 c -1.743,-0.968 -5.869,-4.492 -9.169,-7.832 -7.906,-8.001 -9.719,-9.08 -18.293,-10.884 -8.769,-1.844 -11.532,-3.535 -14.749,-9.025 -2.335,-3.983 -6.996,-7.319 -8.337,-5.967 -0.342,0.345 -0.574,3.849 -0.517,7.788 0.085,5.862 0.867,9.143 4.313,18.087 2.579,6.694 4.619,14.053 5.266,19 0.588,4.497 2.332,11.068 3.937,14.833 1.584,3.717 2.88,7.375 2.88,8.127 0,2.624 -2.999,3.811 -13.216,5.23 -5.656,0.785 -11.11,1.686 -12.119,2 -3.036,0.947 -1.166,5.323 4.742,11.094 l 5.333,5.21 -3.12,4.756 c -2.079,3.17 -4.138,5.047 -6.171,5.628 -1.678,0.479 -3.928,2.221 -5,3.87 -1.11,1.708 -4.117,3.974 -6.984,5.262 -5.898,2.652 -9.932,7.054 -11.617,12.677 -1.399,4.67 -4.981,7.887 -8.783,7.887 -3.52,0 -5.065,1.7 -5.065,5.575 0,1.746 -0.288,4.615 -0.64,6.375 l -0.64,3.199 -5.11,-0.626 c -2.81,-0.345 -10.735,-2.003 -17.609998,-3.685 l -12.5,-3.057 -6.826,-6.641 c -6.557,-6.378 -10.674,-12.382 -10.674,-15.565 0,-0.828 -1.288,-2.984 -2.863,-4.79 -2.541,-2.915 -2.943,-4.32 -3.57,-12.464 -0.816,-10.607 0.174,-13.128 6.403,-16.306 6.048,-3.085 6.459,-4.226 2.758,-7.66 -1.776,-1.647 -4.436,-3.742 -5.911,-4.654 -1.517,-0.938 -3.989,-4.38 -5.686,-7.916 l -3.003,-6.256 2.057,-3.328 c 1.444,-2.336 1.896,-4.317 1.517,-6.65 -0.434,-2.672 0.024,-3.98 2.339,-6.686 1.583,-1.851 2.896,-3.69 2.918,-4.087 0.023,-0.397 -2.546,-1.462 -5.709,-2.365 -3.162,-0.904 -9.429,-3.228 -13.926,-5.164 -4.497,-1.936 -8.859,-3.258 -9.695,-2.937 -0.835,0.321 -1.797,2.294 -2.137,4.385 -0.811,4.981 -2.199,8.303 -3.471,8.303 -0.561,0 -1.021,-1.125 -1.021,-2.5 0,-2.099 -0.471,-2.5 -2.935,-2.5 -5.01,0 -7.79,1.636 -8.997,5.294 -1.877,5.689 -0.215,8.135 8.264,12.158 8.194,3.889 17.668,12.02 17.668,15.165 0,1.108 -1.575,3.409 -3.5,5.114 -4.766,4.219 -4.759,8.072 0.024,12.997 1.938,1.995 3.367,4.099 3.175,4.674 -0.191,0.575 -3.015,1.588 -6.274,2.25 -4.713,0.958 -6.334,0.945 -7.925,-0.06 -2.979,-1.882 -10.735,-3.592 -16.295,-3.592 -3.4579999,0 -5.9119999,0.676 -8.2999999,2.285 -3.96499996,2.672 -4.66199996,4.911 -2.539,8.151 1.623,2.477 30.3689999,17.775 39.1069999,20.811 2.765,0.961 6.116,2.986 7.448,4.5 l 2.421,2.753 -7.773,0.712 c -9.235,0.845 -10.777,1.842 -10.37,6.702 l 0.301,3.586 9.525,0.095 c 10.585,0.105 12.209,0.685 19.067,6.819 2.525,2.259 14.092,9.881 25.703,16.938 11.612,7.057 21.519998,13.352 22.018998,13.989 3.65,4.66 13.105,32.07 13.166,38.168 0.011,1.106 -0.88,2.572 -1.98,3.259 -2.661,1.662 -2.612,6.368 0.092,8.815 1.151,1.042 4.151,3.024 6.668,4.405 5.891,3.233 8.33,6.63 8.994,12.524 l 0.535,4.741 -3.395,-0.598 c -1.867,-0.328 -4.974,-0.871 -6.905,-1.207 -4.594,-0.799 -8.989,2.38 -8.989,6.502 0,5.624 2.759,9.755 10.486,15.703 4.133,3.181 7.507,6.023 7.498,6.316 -0.008,0.292 -1.041,4.261 -2.294,8.819 l -2.279,8.289 -5.223,-6.438 c -6.052,-7.46 -12.622,-13.639 -14.5,-13.639 -4.837,0 -8.12,9.743 -7.959,23.619 l 0.105,9.118 -3.916998,4.74 c -2.154,2.608 -3.917,5.304 -3.917,5.993 0,2.862 -5.286,0.109 -9.132,-4.757 -4.28,-5.414 -6.444,-9.871 -7.866,-16.201 -1.191,-5.299 -4.352,-7.856 -8.704,-7.04 -3.188,0.598 -3.298,0.509 -3.304,-2.677 -0.009,-5.449 -1.808,-10.242 -4.988,-13.289 -3.02,-2.893 -3.868,-5.855 -2.006,-7.006 1.977,-1.222 1.072,-6.704 -1.5,-9.088 -1.576,-1.46 -2.5,-3.405 -2.5,-5.26 0,-1.62 -1.631,-6.379 -3.625,-10.577 -3.763,-7.925 -3.897,-9.45 -1.785,-20.286 0.433,-2.226 -0.007,-4.529 -1.434,-7.5 -2.986,-6.217 -3.079,-15.077 -0.218,-20.675 2.425,-4.745 1.857,-6.067 -2.621,-6.099 -2.722,-0.019 -3.843,-3.143 -2.235,-6.227 0.656,-1.259 3.381,-4.624 6.056,-7.478 5.194,-5.544 5.901,-7.629 3.118,-9.187 -1.277,-0.714 -2.758,-0.407 -5.523,1.147 -3.604,2.026 -4.182,2.064 -12.506,0.83 -4.8,-0.711 -10.414,-1.534 -12.477,-1.828 l -3.75,-0.535 v 3.731 c 0,2.939 0.751,4.483 3.534,7.266 3.219,3.219 3.397,3.685 2,5.229 -1.966,2.172 -1.951,4.997 0.044,7.844 1.472,2.102 1.405,2.547 -1,6.651 -1.526,2.603 -2.589,5.958 -2.605,8.22 -0.026,3.731 -0.181,3.891 -6.5,6.714 -3.5599999,1.59 -6.4729999,3.189 -6.4729999,3.554 0,0.364 1.332,2.762 2.959,5.329 3.6139999,5.697 7.0789999,6.978 10.4109999,3.847 4.553,-4.277 8.144,-1.856 9.147,6.166 l 0.713,5.712 h -3.915 c -4.455,0 -6.315,1.381 -6.315,4.69 0,1.666 1.498,3.284 5.5,5.941 3.025,2.009 5.488,3.926 5.473,4.261 -0.014,0.334 -2.728,2.529 -6.03,4.877 -11.209,7.972 -10.278,12.595 2.425,12.034 5.661,-0.25 7.067,0.005 7.995,1.447 0.846,1.314 0.82,2.186 -0.105,3.5 -4.005,5.688 -4.462,7.29 -2.8,9.826 0.873,1.333 2.365,2.426 3.315,2.428 3.532,0.007 8.297,3.994 10.267,8.588 1.078,2.516 1.96,4.697 1.96,4.849 0,0.151 -5.029,0.593 -11.175,0.981 -10.335,0.654 -15.776,2.071 -17.276,4.499 -0.318,0.514 0.441,2.1 1.687,3.525 2.445,2.798 12.438,5.503 20.449,5.537 7.644,0.031 14.113,4.131 16.938,10.735 2.266,5.296 1.865,6.282 -2.558,6.282 -6.662,0 -9.065,1.427 -9.065,5.382 0,3.319 0.24,3.531 7.327,6.482 10.54,4.387 15.241,5.241 33.173,6.021 15.663998,0.682 16.169998,0.775 24.125998,4.406 4.469,2.04 9.505,3.709 11.191,3.709 1.686,0 3.323,0.418 3.639,0.928 0.626,1.013 0.319,1.121 -9.983,3.533 -9.526,2.23 -9.756,2.413 -8.325,6.605 0.644,1.889 2.253,4.74 3.575,6.336 2.179,2.631 2.341,3.489 1.731,9.186 -0.633,5.911 -0.515,6.442 2.002,8.959 2.618,2.618 2.842,2.657 10.36,1.814 13.405,-1.502 20.783,-0.877 30.684,2.599 6.449,2.265 11.589,3.324 18.135,3.74 9.008,0.572 9.159,0.544 10.833,-2.011 2.942,-4.49 1.43,-6.026 -10.553,-10.722 -10.361,-4.06 -10.9,-4.407 -8.729,-5.612 1.516,-0.841 6.498,-1.296 14.442,-1.32 13.714,-0.04 15.046,0.558 13.974,6.273 -0.904,4.818 1.03,9.692 3.847,9.692 4.342,0 8.509,-2.196 10.606,-5.588 1.628,-2.635 2.78,-3.412 5.059,-3.412 7.587,0 12.886,5.119 12.886,12.45 0,3.386 0.16,3.55 3.48,3.55 1.914,0 5.291,-0.725 7.504,-1.61 4.336,-1.735 7.792,-1.466 16.516,1.285 7.5,2.365 11.226,5.591 12.831,11.111 1.023,3.517 2.024,4.946 3.942,5.63 3.376,1.202 7.727,-1.492 7.727,-4.784 0,-1.277 0.92,-3.155 2.045,-4.172 1.853,-1.677 2.673,-1.743 8.75,-0.703 9.147,1.565 10.517,3.307 9.635,12.256 -1.111,11.278 3.892,18.987 12.324,18.987 3.401,0 19.812,-5.415 30.082,-9.926 7.571,-3.325 9.757,-3.395 10.839,-0.347 0.982,2.766 3.477,5.275 5.23,5.258 0.877,-0.009 7.759,-2.652 15.293,-5.874 l 13.698,-5.858 -1.874,4.931 c -1.031,2.712 -3.667,6.877 -5.86,9.256 -2.464,2.673 -4.653,6.441 -5.734,9.872 -1.605,5.09 -1.618,5.749 -0.164,7.969 1.965,2.998 7.513,5.719 11.663,5.719 3.67,0 9.15,-5.014 16.461,-15.061 3.742,-5.143 4.612,-7.13 4.612,-10.532 0,-4.559 0.965,-5.407 6.148,-5.407 4.049,0 6.538,1.493 8.359,5.013 2.258,4.367 6.663,6.289 12.557,5.478 2.67,-0.367 6.191,-0.374 7.824,-0.016 l 2.969,0.653 -1.992,3.377 c -1.296,2.195 -1.883,4.71 -1.679,7.186 0.293,3.558 0.709,4.007 6.314,6.809 4.31,2.155 6.09,3.634 6.32,5.25 0.316,2.23 0.462,2.25 16.5,2.194 l 16.18,-0.056 4.267,-5.407 c 5.554,-7.037 5.924,-8.131 3.055,-9.021 -1.277,-0.397 -4.256,-1.622 -6.619,-2.723 -4.881,-2.274 -6.114,-4.283 -12.097,-19.711 -2.152,-5.55 -5.81,-13.002 -8.128,-16.56 -5.543,-8.507 -6.878,-12.533 -6.952,-20.966 -0.072,-8.099 -2.386,-24.442 -3.845,-27.15 -0.549,-1.017 -2.133,-2.912 -3.522,-4.211 -2.348,-2.196 -2.485,-2.827 -1.962,-9.06 0.618,-7.373 1.356,-6.047 -8.191,-14.701 -3.282,-2.975 -4.589,-8.637 -3.843,-16.657 0.601,-6.476 0.498,-6.943 -2.138,-9.695 -2.224,-2.321 -2.903,-4.184 -3.45,-9.464 -0.592,-5.725 -1.143,-7.056 -4.267,-10.318 -1.973,-2.059 -4.26,-5.094 -5.083,-6.744 -2.493,-5.004 -6.725,-21.969 -6.725,-26.962 0,-3.868 -0.695,-5.662 -3.96,-10.222 -2.178,-3.042 -4.645,-7.884 -5.481,-10.76 -0.841,-2.893 -3.745,-8.245 -6.5,-11.976 -2.739,-3.71 -6.631,-9.746 -8.649,-13.413 -2.018,-3.667 -4.975,-8.996 -6.57,-11.842 l -2.901,-5.175 7.606,-8.133 c 4.183,-4.473 8.272,-9.728 9.087,-11.678 0.815,-1.95 3.506,-5.711 5.982,-8.357 2.475,-2.646 4.936,-6.389 5.468,-8.318 1.114,-4.034 4.147,-7.373 12.284,-13.525 3.172,-2.399 6.177,-5.436 6.676,-6.75 1.071,-2.816 -0.193,-6.849 -2.413,-7.701 -0.838,-0.322 -2.253,-1.993 -3.143,-3.715 -1.337,-2.586 -1.433,-3.992 -0.552,-8.1 0.586,-2.734 1.066,-7.497 1.066,-10.584 0,-4.092 0.643,-6.722 2.372,-9.701 4.098,-7.061 4.112,-8.046 0.177,-12.402 -1.952,-2.161 -3.555,-4.324 -3.563,-4.807 -0.008,-0.484 2.493,-6.286 5.558,-12.894 4.093,-8.826 6.307,-12.437 8.343,-13.606 3.162,-1.814 6.515,-10.912 4.296,-11.651 -1.867,-0.623 -1.392,-2.826 1.297,-6.022 4.195,-4.985 7.267,-5.685 16.215,-3.695 4.269,0.95 8.334,1.947 9.033,2.215 0.904,0.347 1.272,-0.718 1.272,-3.674 0,-4.083 -0.104,-4.208 -5.5,-6.594 -5.279,-2.335 -6.548,-3.692 -4.587,-4.904 0.502,-0.311 2.982,-3.705 5.511,-7.543 6.113,-9.279 8.216,-10.57 16.662,-10.226 5.972,0.243 7.027,-0.009 9.803,-2.345 1.711,-1.44 3.111,-3.038 3.111,-3.551 0,-0.513 -1.972,-2.184 -4.382,-3.712 l -4.383,-2.78 2.081,-2.948 c 1.144,-1.622 4.874,-5.95 8.288,-9.618 3.414,-3.668 6.762,-8.202 7.44,-10.075 0.677,-1.873 2.8,-4.481 4.718,-5.795 1.919,-1.315 6.019,-5.277 9.113,-8.805 4.262,-4.86 7.17,-7.114 12.001,-9.3 l 6.376,-2.885 -0.477,-4.965 c -0.382,-3.976 -0.106,-5.302 1.388,-6.653 2.986,-2.703 8.581,-11.63 10.772,-17.188 1.993,-5.055 7.07,-32.239 7.06,-37.801 -0.003,-1.575 -1.083,-4.212 -2.401,-5.859 -2.356,-2.945 -2.43,-2.963 -4.457,-1.129 -2.714,2.456 -3.795,6.163 -5.127,17.587 -0.606,5.205 -1.194,9.553 -1.306,9.664 -0.112,0.111 -2.679,-0.867 -5.704,-2.173 -8.54,-3.686 -12.678,-3.005 -11.452,1.883 0.458,1.824 2.499,3.762 6.558,6.228 3.589,2.179 5.894,4.265 5.894,5.333 0,0.964 -1.98,4.302 -4.4,7.419 -2.42,3.116 -5.584,7.687 -7.031,10.156 -3.187,5.438 -5.313,6.778 -8.226,5.187 -1.169,-0.638 -7.847,-6.335 -14.841,-12.66 -6.993,-6.325 -13.111,-11.648 -13.594,-11.829 -0.484,-0.18 -1.377,0.765 -1.986,2.101 -1.731,3.799 2.674,11.217 13.666,23.013 9.289,9.969 9.468,10.251 7.423,11.715 -14.251,10.197 -19.965,15.437 -22.957,21.051 -3.923,7.359 -8.731,13.836 -15.42,20.773 -6.572,6.815 -7.69,7.401 -11.552,6.055 -2.533,-0.883 -3.599,-0.77 -5.694,0.603 -2.223,1.456 -2.489,2.166 -1.93,5.147 1.31,6.983 -1.944,10.356 -8.046,8.342 -5.919,-1.953 -8.545,2.13 -4.285,6.664 4.06,4.321 -0.599,8.312 -10.646,9.119 -9.518,0.764 -10.481,-0.366 -10.481,-12.302 0,-5.081 0.696,-15.699 1.547,-23.595 0.851,-7.896 1.938,-21.557 2.417,-30.357 0.522,-9.607 1.721,-19.778 3.001,-25.455 1.172,-5.2 1.997,-10.78 1.833,-12.399 -0.499,-4.934 -2.33,-5.269 -15.463,-2.834 -13.953,2.587 -16.208,2.681 -16.965,0.71 -0.312,-0.813 1.101,-4.46 3.139,-8.105 3.389,-6.06 3.697,-7.257 3.596,-13.972 -0.108,-7.171 -0.026,-7.426 3.476,-10.826 1.972,-1.916 7.129,-5.326 11.459,-7.579 11.027,-5.737 12.922,-7.6 22.651,-22.271 l 8.612,-12.986 4.696,0.622 c 3.851,0.511 5.172,0.248 7.348,-1.463 3.004,-2.363 3.41,-5.068 1.056,-7.022 -1.271,-1.056 -1.525,-2.892 -1.247,-9.021 0.412,-9.06 1.655,-10.94 9.557,-14.444 5.712,-2.533 7.43,-5.65 5.478,-9.934 -1.019,-2.238 -0.676,-2.498 8.491,-6.446 5.464,-2.353 10.743,-5.389 12.336,-7.094 2.275,-2.436 3.591,-2.981 7.192,-2.981 2.424,0 5.256,-0.62 6.293,-1.379 3.276,-2.395 -0.13,-5.843 -9.507,-9.623 -7.708,-3.107 -8.107,-3.418 -7.497,-5.849 0.354,-1.412 3.762,-5.85 7.573,-9.861 5.734,-6.037 6.928,-7.87 6.928,-10.636 0,-3.3 -2.433,-6.652 -4.829,-6.652 -0.644,0 -1.171,-1.321 -1.171,-2.935 0,-5.48 1.493,-7.487 7.388,-9.93 3.086,-1.279 5.612,-2.749 5.612,-3.266 0,-0.517 -0.727,-2.049 -1.615,-3.404 -1.319,-2.013 -2.466,-2.477 -6.25,-2.528 -4.07,-0.056 -4.335,-0.184 -2.172,-1.047 3.381,-1.349 3.353,-1.23 1.18,-5.014 -1.066,-1.857 -2.232,-4.365 -2.591,-5.574 -1.057,-3.554 4.111,-5.623 15.948,-6.385 11.77,-0.757 22.497,-3.626 22.499,-6.017 10e-4,-1.304 -1.698,-1.721 -9.153,-2.25 -5.034,-0.358 -12.939,-0.65 -17.565,-0.65 -11.038,0 -12.281,-0.71 -12.281,-7.012 0,-6.844 1.469,-7.589 18.73,-9.493 13.068,-1.441 23.3,-4.21 23.255,-6.292 -0.065,-2.974 -2.265,-3.473 -19.03,-4.319 -9.501,-0.479 -17.458,-1.053 -17.681,-1.276 -0.485,-0.485 4.946,-10.407 8.941,-16.335 1.567,-2.324 4.827,-5.386 7.245,-6.803 4.098,-2.401 4.36,-2.806 3.848,-5.96 -0.393,-2.423 0.053,-4.357 1.571,-6.815 2.068,-3.346 2.714,-7.987 1.537,-11.053 -0.47,-1.226 -1.054,-1.308 -3,-0.422 -1.329,0.606 -2.416,1.669 -2.416,2.364 0,1.859 -4.837,7.284 -7.869,8.825 -6.268,3.186 -6.932,3.055 -9.313,-1.847 -1.219,-2.509 -2.595,-4.562 -3.057,-4.562 -2.065,0 -8.761,4.182 -8.761,5.471 0,0.787 0.5,3.764 1.112,6.615 l 1.112,5.185 -4.612,3.942 c -2.537,2.169 -4.612,4.346 -4.612,4.839 0,0.493 1.35,1.595 3,2.448 3.458,1.788 3.68,3.058 1.117,6.391 l -1.838,2.39 -1.852,-3.135 c -1.294,-2.19 -2.877,-3.327 -5.253,-3.773 -2.38,-0.447 -5.454,-2.659 -10.241,-7.371 -4.897,-4.82 -8.487,-7.382 -12.637,-9.018 -8.599,-3.393 -11.977,-5.624 -20.712,-13.682 -4.354,-4.016 -8.462,-7.302 -9.128,-7.302 -0.666,0 -1.743,0.641 -2.394,1.425 m 27.706,42 c -1.495,1.873 -4.026,3.692 -5.625,4.044 -2.509,0.551 -12.628,6.789 -18.713,11.536 -1.062,0.828 -2.83,3.288 -3.93,5.466 -1.483,2.938 -2.788,4.12 -5.051,4.578 -1.913,0.387 -5.557,3.086 -9.771,7.239 -3.696,3.642 -9.978,8.873 -13.959,11.626 -6.133,4.239 -10.719,9.156 -10.719,11.49 0,0.328 1.589,0.596 3.532,0.596 4.989,0 10.142,2.398 11.007,5.122 0.594,1.872 0.048,2.896 -2.904,5.448 -1.999,1.728 -3.635,3.636 -3.635,4.241 0,0.604 1.688,1.383 3.75,1.731 6.116,1.032 7.119,1.469 7.722,3.368 0.92,2.901 -0.452,5.026 -3.829,5.928 -2.672,0.714 -3.111,1.266 -2.929,3.686 0.162,2.16 -0.88,4.015 -4.318,7.691 -6.38,6.82 -5.801,8.095 4.116,9.07 4.393,0.432 10.238,0.497 12.988,0.146 2.75,-0.352 7.226,-0.812 9.946,-1.022 6.213,-0.481 11.222,-2.102 11.893,-3.849 0.283,-0.739 4.981,-4.96 10.439,-9.38 5.458,-4.42 11.188,-9.531 12.733,-11.358 4.386,-5.187 7.414,-12.806 9.957,-25.051 1.287,-6.199 2.94,-12.585 3.674,-14.192 0.818,-1.789 0.952,-3.048 0.346,-3.251 -10.926,-3.661 -12.492,-10.328 -2.425,-10.328 5.839,0 6.661,-0.972 3.406,-4.029 -4.896,-4.6 -1.797,-9.971 5.754,-9.971 2.077,0 3.777,-0.403 3.777,-0.896 0,-1.24 -8.386,-6.503 -15.003,-9.414 -9.169,-4.035 -9.221,-4.036 -12.229,-0.265 m -150.44,37.577 c -1.58,0.637 -2.022,1.452 -1.621,2.985 0.355,1.36 -0.217,2.927 -1.612,4.411 l -2.163,2.303 7.685,0.649 c 12.538,1.06 12.878,1.001 15.752,-2.767 l 2.606,-3.417 -5.184,-2.583 c -5.296,-2.639 -11.312,-3.254 -15.463,-1.581 m 173.223,8.342 c -3.715,4.871 -3.399,8.284 0.959,10.362 4.375,2.087 5.336,1.243 5.942,-5.22 0.339,-3.621 0.035,-5.395 -1.15,-6.705 -2.213,-2.445 -2.82,-2.279 -5.751,1.563 m -141.105,-1.432 c 0.9,1.458 10.558,6.363 10.542,5.355 -0.017,-1 -5.871,-4.778 -8.887,-5.735 -1.636,-0.519 -2.14,-0.404 -1.655,0.38 m -65.324,11.458 -2.226,2.37 2.302,0.616 c 3.263,0.874 6.067,0.762 7.762,-0.31 1.25,-0.791 1.192,-1.221 -0.405,-2.985 -2.442,-2.699 -4.695,-2.605 -7.433,0.309 m 39.164,1.081 c -8.459,2.644 -13.088,6.213 -16.296,12.568 -1.644,3.258 -2.99,6.189 -2.99,6.512 0,0.324 2.24,2.958 4.979,5.853 l 4.979,5.265 -3.479,3.371 c -1.914,1.855 -3.479,3.694 -3.479,4.087 0,0.393 2.069,1.716 4.597,2.94 4.268,2.066 5.447,2.175 16.505,1.528 6.549,-0.383 13.931,-0.393 16.403,-0.022 3.902,0.585 4.495,0.993 4.495,3.093 0,5.348 -2.586,9.005 -8.371,11.835 -7.027,3.438 -14.583,3.648 -23.347,0.648 -3.421,-1.171 -7.471,-2.119 -9,-2.107 -3.944,0.031 -10.28,3.191 -13.701,6.833 -2.593,2.761 -2.789,3.394 -1.75,5.673 1.817,3.988 1.402,6.619 -1.524,9.674 -2.087,2.178 -2.425,3.08 -1.5,4.005 2.214,2.214 1.301,6.474 -2.314,10.801 -4.214,5.044 -5.065,7.912 -3.597,12.124 1.693,4.856 1.337,9.012 -1.396,16.272 -3.67,9.751 -3.381,12.401 2.05,18.763 l 4.55,5.331 -0.674,10.061 c -0.808,12.065 -0.436,13.013 9.562,24.359 6.368,7.226 7.223,7.846 11.487,8.326 7.946,0.896 10.486,5.279 7.932,13.691 -2.29,7.547 -1.917,10.013 1.624,10.721 4.46,0.892 7.278,4.955 6.659,9.6 -0.643,4.817 1.236,7.1 7.81,9.489 3.606,1.311 5.557,2.761 7,5.203 3.798,6.429 8.706,10.694 13.1,11.384 2.254,0.354 5.246,1.545 6.647,2.647 l 2.547,2.004 2.486,-6.241 c 2.762,-6.932 7.72,-27.959 7.72,-32.737 0,-6.768 3.93,-12.005 9.008,-12.005 3.647,0 1.877,-3.247 -3.26,-5.982 -2.602,-1.385 -5.942,-3.735 -7.421,-5.222 -2.405,-2.418 -2.562,-2.984 -1.485,-5.349 1.144,-2.509 1.524,-2.627 7.394,-2.296 5.76,0.325 6.277,0.176 7.462,-2.151 2.132,-4.187 1.491,-7.302 -2.629,-12.785 -2.539,-3.38 -4.309,-7.087 -5,-10.473 -1.749,-8.573 -3.033,-23.492 -3.052,-35.461 -0.014,-9.357 0.406,-12.511 2.534,-19 1.995,-6.088 2.507,-9.521 2.353,-15.781 -0.128,-5.167 0.404,-10.016 1.503,-13.692 2.168,-7.254 1.083,-11.825 -4.253,-17.918 -5.706,-6.516 -6.633,-8.627 -5.068,-11.551 1.018,-1.902 1.039,-3.103 0.102,-5.696 -0.653,-1.807 -1.188,-4.24 -1.188,-5.408 0,-1.168 -1.042,-3.334 -2.315,-4.814 -1.915,-2.228 -3.423,-2.797 -8.75,-3.306 l -6.435,-0.615 v -4 -4 l -7.379,-2.65 c -9.066,-3.256 -10.882,-5.691 -8.108,-10.874 2.023,-3.781 -5.362,-5.14 -13.727,-2.525 m 161.74,11.299 c -4.828,11.852 -10.313,21.643 -14.829,26.471 -2.564,2.741 -5.12,6.366 -5.68,8.055 -0.841,2.539 -1.796,3.257 -5.517,4.147 -4.549,1.089 -5.091,2.005 -3.893,6.577 0.33,1.26 -1.85,1.6 -13.607,2.121 -12.73,0.565 -31.898,2.943 -35.804,4.442 -1.901,0.73 -4.965,9.153 -3.629,9.978 1.736,1.074 0.884,6.937 -1.593,10.959 -3.12,5.065 -3.093,5.728 0.379,9.199 3.718,3.718 4.584,9.577 3.083,20.855 -1.461,10.979 -0.925,17.282 2.143,25.181 1.705,4.391 2.948,6.24 4.203,6.25 2.986,0.025 8.496,-2.701 9.589,-4.743 0.567,-1.061 3.504,-3.795 6.527,-6.077 6.071,-4.584 10.611,-10.558 12.663,-16.665 0.739,-2.2 2.332,-5.125 3.54,-6.5 3.991,-4.544 7.399,-10.247 7.405,-12.39 0.018,-7.095 5.502,-15.671 11.667,-18.247 2.93,-1.224 3.157,-1.636 2.644,-4.797 -0.87,-5.361 0.275,-8.145 4.099,-9.959 2.471,-1.173 3.778,-2.682 4.649,-5.369 1.708,-5.266 4.4,-8.774 7.822,-10.191 1.616,-0.67 3.187,-2.204 3.489,-3.41 0.303,-1.206 2.622,-4.86 5.153,-8.12 4.469,-5.755 4.582,-6.073 3.903,-10.972 -0.385,-2.775 -0.977,-8.367 -1.316,-12.427 -0.496,-5.939 -1.02,-7.65 -2.682,-8.75 -1.952,-1.292 -2.195,-1.05 -4.408,4.382 m -68.994,206.379 c -3.557,1.635 -6.644,3.149 -6.859,3.365 -0.473,0.472 10.009,12.506 10.893,12.506 0.558,0 4.084,-15.088 4.084,-17.475 0,-1.728 -1.522,-1.427 -8.118,1.604 m -167.032,10.583 c 0,3.185 3.043,12.428 6.061,18.408 1.56,3.09 6.054,9.917 9.988,15.17 l 7.151,9.551 4.026,-1.421 c 2.214,-0.781 4.375,-1.42 4.802,-1.42 1.511,0 2.947,6.305 2.323,10.204 l -0.632,3.953 15.391,14.871 c 8.464,8.179 17.793,16.356 20.73,18.171 2.937,1.816 7.853,5.214 10.925,7.551 3.071,2.337 6.436,4.25 7.476,4.25 1.541,0 5.214,-1.409 6.556,-2.516 0.163,-0.134 -1.077,-2.28 -2.756,-4.768 -3.722,-5.516 -4.808,-10.087 -2.932,-12.348 1.188,-1.43 0.92,-1.963 -2.125,-4.228 -1.916,-1.426 -5.622,-4.676 -8.234,-7.223 -5.517,-5.379 -6.241,-9.167 -2.436,-12.743 2.936,-2.758 4.82,-2.741 8.359,0.076 5.704,4.54 9.192,6.677 11.977,7.338 l 2.85,0.676 -3.14,-3.382 c -4.501,-4.848 -4.838,-6.898 -1.859,-11.288 1.393,-2.052 2.233,-4.263 1.867,-4.913 -1.738,-3.085 -5.638,-6.399 -14.368,-12.211 -5.225,-3.479 -11.44,-8.61 -13.81,-11.403 -4.334,-5.106 -15.693,-14.76 -20.007,-17.004 -2.85,-1.482 -5.27,-0.099 -11.465,6.556 -5.113,5.492 -8.897,7.625 -12.1,6.821 -3.501,-0.878 -7.286,-5.34 -8.535,-10.059 -1.049,-3.965 -1.322,-4.185 -7.284,-5.857 -3.406,-0.956 -6.78,-1.963 -7.496,-2.238 -0.793,-0.304 -1.303,0.254 -1.303,1.426 m 168.349,11.339 c -0.578,0.578 -3.414,1.675 -6.301,2.436 -5.618,1.482 -8.783,3.722 -10.091,7.139 -0.594,1.552 -2.009,2.305 -5.249,2.791 -9.468,1.419 -13.98,12.074 -7.673,18.116 l 3.035,2.908 -5.17,4.558 -5.17,4.558 3.635,2.772 c 1.999,1.525 3.635,3.571 3.635,4.548 0,0.976 -1.988,4.431 -4.417,7.679 -2.429,3.247 -4.203,6.251 -3.941,6.674 0.262,0.424 1.525,0.77 2.806,0.77 3.787,0 6.97,3.2 6.207,6.24 -0.5,1.989 -2.581,3.568 -9.11,6.911 l -8.462,4.334 3.098,5.507 c 3.687,6.555 11.651,17.983 13.795,19.796 1.021,0.863 3.47,1.138 7.414,0.832 8.178,-0.633 9.53,-2.235 11.152,-13.218 1.29,-8.737 1.282,-8.823 -1.121,-11.678 -2.62,-3.114 -3.245,-8.5 -1.221,-10.524 0.66,-0.66 2.46,-1.2 4,-1.2 1.54,0 3.692,-0.892 4.783,-1.983 1.663,-1.663 1.871,-2.754 1.29,-6.75 -1.224,-8.416 -0.801,-19.562 1.035,-27.267 2.24,-9.398 5.018,-35.074 3.915,-36.177 -0.453,-0.453 -1.296,-0.35 -1.874,0.228 m -134.624,76.891 c -0.881,3.37 1.33,10.939 4.626,15.837 5.468,8.125 16.771,21.233 19.519,22.637 1.446,0.739 4.034,1.645 5.749,2.014 1.716,0.369 5.465,2.674 8.332,5.121 2.867,2.447 5.383,4.449 5.592,4.449 0.209,0 1.077,-2.348 1.929,-5.217 l 1.549,-5.217 -7.76,-7.836 c -4.269,-4.31 -10.779,-9.834 -14.469,-12.277 -9.221,-6.104 -13.422,-9.966 -16.439,-15.113 -3.577,-6.104 -7.64,-8.175 -8.628,-4.398 m -73.361,10.552 c -0.985,2.565 0.3,11.995 2.171,15.938 1.538,3.242 2.071,3.568 5.829,3.569 l 4.136,0.002 -0.33,-5.279 c -0.283,-4.53 -0.717,-5.501 -3.061,-6.846 -1.605,-0.922 -3.133,-2.969 -3.705,-4.966 -1.054,-3.673 -4.014,-5.093 -5.04,-2.418 m 38.959,16.628 -2.122,2.121 3.378,9.629 c 3.693,10.527 4.301,15.853 1.913,16.769 -2.631,1.01 -6.127,-2.315 -8.448,-8.034 -1.363,-3.356 -3.025,-5.784 -4.221,-6.163 -1.086,-0.345 -2.106,-0.473 -2.268,-0.285 -0.162,0.187 -2.43,3.883 -5.04,8.211 -4.878,8.089 -4.86,7.999 -3.305,16.63 0.149,0.825 -0.075,7.389 -0.498,14.587 -0.928,15.804 0.955,29.722 4.791,35.413 1.984,2.944 2.692,6.361 4.451,21.5 1.15,9.9 2.346,19.687 2.656,21.748 l 0.565,3.749 5.181,-0.609 c 7.112,-0.836 9.895,0.525 25.637,12.532 l 13.317,10.157 2.845,-2.726 c 3.756,-3.598 3.588,-6.272 -0.716,-11.424 -7.302,-8.74 -8.504,-14.701 -3.569,-17.702 2.385,-1.45 2.64,-1.959 1.512,-3.013 -2.365,-2.209 -2.797,-6.284 -1.02,-9.613 1.515,-2.837 1.528,-3.818 0.148,-11.599 -2.736,-15.427 -1.611,-21 4.237,-21 4.475,0 5.253,1.193 9.358,14.358 4.934,15.823 9.732,26.267 14.288,31.097 3.628,3.847 2.804,3.807 11.179,0.542 l 2.572,-1.002 -3.072,-5.369 c -4.427,-7.737 -4.125,-10.489 1.731,-15.783 2.642,-2.389 5.109,-4.85 5.482,-5.469 0.374,-0.619 -0.95,-5.794 -2.943,-11.5 l -3.622,-10.374 1.641,-6.5 c 4.285,-16.977 3.541,-19.272 -7.951,-24.509 -6.122,-2.79 -7.731,-4.014 -8.875,-6.752 -1.37,-3.281 -9.06,-9.897 -20.845,-17.935 -3.969,-2.708 -5.58,-4.504 -6.023,-6.718 -0.43,-2.153 -1.835,-3.783 -4.886,-5.67 -2.354,-1.457 -5.856,-4.098 -7.781,-5.869 -2.31,-2.125 -5.311,-3.616 -8.826,-4.384 -7.272,-1.588 -8.405,-1.488 -10.851,0.959 m 116.139,6.295 c -1.126,1.719 -1.385,3.479 -0.894,6.091 0.521,2.779 0.137,4.852 -1.575,8.508 -2.552,5.447 -2.196,7.576 1.5,8.981 2.862,1.089 11.408,7.157 11.468,8.144 0.096,1.584 -8.212,3.843 -11.939,3.247 -3.635,-0.582 -4.048,-0.393 -5.939,2.716 l -2.031,3.34 2.557,2.67 c 3.502,3.655 2.83,6.556 -2.389,10.308 -4.547,3.27 -6.51,5.666 -7.661,9.353 -0.558,1.788 0.034,3.018 2.766,5.75 3.314,3.314 3.804,3.475 10.575,3.475 h 7.1 v 3.865 c 0,2.289 -0.778,4.855 -1.908,6.291 -3.561,4.527 -3.106,6.039 2.237,7.425 8.718,2.261 10.507,5.899 6.633,13.493 -2.108,4.133 -1.987,4.954 1.267,8.576 l 1.931,2.15 8.287,-8.858 c 5.541,-5.923 9.663,-11.503 12.441,-16.844 3.697,-7.106 7.169,-11.284 10.225,-12.302 0.598,-0.2 0.169,-2.306 -1.05,-5.15 -3.123,-7.285 -2.764,-11.196 1.364,-14.851 3.398,-3.008 3.414,-3.062 1.868,-6.303 -1.729,-3.626 -1.164,-9.526 1.092,-11.398 0.733,-0.609 1.128,-2.178 0.878,-3.488 -0.365,-1.909 -1.278,-2.511 -4.61,-3.038 -2.7,-0.427 -6.135,-2.191 -9.81,-5.038 -3.11,-2.409 -7.027,-5.09 -8.704,-5.957 -1.677,-0.867 -7.407,-6.526 -12.732,-12.575 -5.326,-6.049 -10.061,-10.998 -10.523,-10.998 -0.462,0 -1.553,1.088 -2.424,2.417 m -165.738,59.076 c -8.188,2.251 -7.991,2.089 -6.361,5.241 0.788,1.524 2.364,3.614 3.503,4.645 1.854,1.677 2.573,1.748 6.839,0.674 2.623,-0.661 5.337,-1.673 6.032,-2.249 1.896,-1.574 1.521,-5.546 -0.737,-7.804 -2.28,-2.28 -2.741,-2.305 -9.276,-0.507 m -28.251,25.75 c -3.702,4.767 -5.044,5.841 -6.745,5.396 -3.137,-0.82 -4.728,1.092 -4.728,5.682 0,3.612 -0.584,4.625 -5.114,8.878 -2.812,2.641 -4.697,4.801 -4.188,4.801 0.509,0 1.91,0.918 3.113,2.039 2.505,2.334 2.91,7.118 0.753,8.908 -3.807,3.159 -2.006,16.135 3.458,24.914 3.149,5.059 3.003,5.183 5.471,-4.641 2.177,-8.668 3.209,-10.613 6.733,-12.694 3.023,-1.786 3.074,-1.78 4.877,0.584 2.905,3.81 3.076,6.864 0.858,15.313 -3.456,13.168 -2.373,24.579 2.995,31.565 l 1.911,2.487 2.131,-4.987 c 1.965,-4.601 6.477,-10.488 8.037,-10.488 1.566,0 3.974,8.223 5.048,17.233 1.699,14.257 0.992,20.406 -3.286,28.596 l -3.577,6.847 3.267,2.606 3.267,2.607 3.068,-3.818 3.068,-3.817 -1.427,-9.377 c -1.89,-12.42 -1.973,-11.877 1.814,-11.877 5.411,0 7.725,-2.343 7.711,-7.807 -0.006,-2.581 -0.676,-7.168 -1.488,-10.193 -0.812,-3.025 -1.482,-6.48 -1.488,-7.679 -0.016,-2.996 2.577,-5.321 5.937,-5.321 3.933,0 5.374,-2.129 4.588,-6.781 -0.358,-2.117 0.026,-8.095 0.852,-13.284 1.708,-10.726 2.433,-30.796 1.185,-32.816 -0.458,-0.74 -2.912,-2.25 -5.453,-3.356 -9.071,-3.945 -10.184,-6.745 -4.621,-11.629 4.022,-3.532 4.191,-4.199 1.64,-6.508 -1.815,-1.642 -8.669,-3.195 -26.343,-5.968 l -8.703,-1.366 -4.621,5.951 m 71.527,54.17 c 0,0.228 -4.289,19.24 -9.532,42.25 -7.569,33.223 -9.32,42.31 -8.5,44.134 2.1,4.673 1.248,7.314 -3.905,12.109 -4.133,3.845 -5.192,5.595 -6.5,10.738 -2.414,9.49 -2.138,12.26 1.343,13.473 4.099,1.429 5.619,5.57 4.367,11.901 -0.887,4.483 -0.806,4.982 0.8,4.982 2.109,0 7.603,5.27 10.427,10.004 1.1,1.843 5.825,6.17 10.5,9.614 22.392,16.498 28.479,19.462 49.073,23.897 19.697,4.242 33.573,8.069 45.427,12.531 6.05,2.277 14.052,5.201 17.782,6.498 l 6.781,2.358 4.219,-8.55 4.218,-8.55 -4.499,-4.007 c -7.254,-6.463 -10.728,-7.795 -20.33,-7.795 -9.761,0 -22.643,-2.058 -31.078,-4.965 -10.478,-3.611 -16.118,-2.366 -24.406,5.387 -5.255,4.916 -6.026,4.884 -9.541,-0.395 -2.703,-4.059 -2.043,-8.204 2.354,-14.789 2.2,-3.295 4,-6.226 4,-6.515 0,-0.289 -1.56,-1.446 -3.468,-2.571 -4.288,-2.531 -5.313,-6.012 -3.226,-10.964 1.883,-4.468 3.139,-14.188 1.834,-14.188 -1.392,0 -7.14,-5.625 -7.14,-6.988 0,-0.652 2.475,-3.641 5.5,-6.642 3.025,-3.001 5.5,-6.304 5.5,-7.34 0,-3.513 -4.681,-6.03 -11.212,-6.03 -5.234,0 -6.29,-0.348 -8.865,-2.923 -3.448,-3.449 -3.709,-6.291 -0.84,-9.16 1.907,-1.907 2.813,-2.027 10.75,-1.422 4.767,0.364 9.388,0.861 10.269,1.104 1.408,0.388 1.492,-0.256 0.697,-5.324 -0.497,-3.172 -0.702,-6.539 -0.455,-7.484 0.247,-0.945 -0.179,-2.239 -0.947,-2.877 -2.139,-1.775 -1.667,-6.16 1.063,-9.859 1.352,-1.834 2.73,-5.409 3.06,-7.945 0.33,-2.535 1.038,-5.674 1.571,-6.975 0.534,-1.301 0.707,-3.196 0.385,-4.211 -0.496,-1.564 -21.638,-21.162 -41.181,-38.174 -5.19,-4.518 -6.295,-5.279 -6.295,-4.337 m 77.654,4.481 c -6.167,7.093 -3.841,13.482 6.587,18.094 3.702,1.638 5.789,1.944 9.707,1.425 4.828,-0.641 4.943,-0.731 3.521,-2.76 -1.89,-2.699 -1.872,-6.973 0.045,-10.68 1.447,-2.798 1.413,-2.952 -0.75,-3.481 -17.15,-4.192 -17.664,-4.262 -19.11,-2.598 m 57.384,19.031 c -1.121,2.197 -2.038,4.161 -2.038,4.363 0,0.203 2.7,-0.066 6,-0.598 3.3,-0.531 6,-1.323 6,-1.76 0,-0.707 -3.387,-3.383 -6.712,-5.301 -0.771,-0.446 -1.951,0.751 -3.25,3.296 m 4.925,12.325 c -1.295,2.098 -1.797,4.136 -1.414,5.75 1.333,5.624 4.15,5.155 7.82,-1.303 l 2.131,-3.751 -2.5,-1.951 c -3.334,-2.602 -3.702,-2.525 -6.037,1.255 m -52.406,2.973 c -0.856,1.222 -1.557,2.774 -1.557,3.449 0,1.459 5.599,5.823 8.663,6.752 1.19,0.36 5.187,4.034 8.883,8.164 6.86,7.665 8.68,8.473 11.045,4.905 1.218,-1.838 0.6,-2.778 -7.381,-11.219 -7.822,-8.273 -15.093,-14.274 -17.293,-14.274 -0.442,0 -1.504,1 -2.36,2.223 m 61.614,20.768 c -4.609,3.339 -5.793,6.242 -4.226,10.363 0.58,1.527 1.055,4.322 1.055,6.211 0,2.931 0.342,3.435 2.331,3.435 1.634,0 4.328,-2.222 9,-7.422 3.668,-4.081 6.669,-8.091 6.669,-8.911 0,-2.129 -5.735,-6.667 -8.427,-6.667 -1.25,0 -4.131,1.346 -6.402,2.991 m -79.171,9.673 c 0,0.229 0.9,2.18 2,4.336 2.511,4.921 2.557,11.449 0.121,17.123 -4.057,9.447 -4.079,9.383 4.582,13.607 4.252,2.073 8.524,4.895 9.493,6.27 0.97,1.375 2.308,5.875 2.975,10 0.666,4.125 1.274,7.612 1.351,7.748 0.077,0.136 1.927,-0.515 4.11,-1.447 3.81,-1.628 3.967,-1.878 3.918,-6.248 -0.048,-4.362 0.126,-4.642 4.147,-6.673 2.309,-1.165 5.189,-2.378 6.4,-2.695 2.126,-0.556 2.184,-0.907 1.644,-9.944 -0.626,-10.494 -2.444,-15.981 -5.906,-17.821 -1.284,-0.682 -4.739,-3.193 -7.677,-5.58 -2.938,-2.387 -5.638,-4.36 -6,-4.384 -0.666,-0.044 -3.599,-0.688 -14.908,-3.277 -3.437,-0.787 -6.25,-1.244 -6.25,-1.015 m 88.75,10.025 c -2.124,0.555 -2.119,0.349 -0.141,5.291 1.605,4.011 1.62,4.02 7.108,4.02 5.426,0 5.491,-0.035 4.846,-2.604 -1.249,-4.977 -3.559,-7.405 -6.928,-7.28 -1.724,0.064 -3.923,0.322 -4.885,0.573 m -9.918,16.894 -4.62,2.348 1.994,7.939 1.994,7.94 8.496,3.206 8.496,3.207 2.998,-3.637 c 1.649,-2.001 4.531,-4.278 6.404,-5.061 6.489,-2.711 4.261,-5.367 -9.594,-11.432 -5.225,-2.288 -9.961,-4.767 -10.524,-5.509 -0.841,-1.107 -1.853,-0.928 -5.644,0.999 m -259.465,10.04 c -0.736,0.303 0.375,3.891 3.171,10.244 2.367,5.379 5.066,12.446 5.999,15.706 0.933,3.26 2.388,6.715 3.235,7.677 1.799,2.046 6.719,2.239 10.046,0.393 2.064,-1.145 2.146,-1.428 0.751,-2.585 -0.861,-0.715 -2.752,-3.944 -4.203,-7.176 -1.509,-3.365 -4.447,-7.546 -6.871,-9.78 -2.329,-2.147 -5.676,-6.423 -7.438,-9.502 -1.762,-3.08 -3.283,-5.564 -3.38,-5.521 -0.098,0.043 -0.687,0.288 -1.31,0.544 m 280.633,18.078 c 0,0.45 0.788,1.3 1.75,1.89 7.455,4.567 11.151,6.379 11.583,5.679 0.278,-0.45 -2.608,-2.522 -6.413,-4.603 -3.806,-2.081 -6.92,-3.416 -6.92,-2.966 m -30.437,5.049 c -0.362,2.063 -1.625,6.506 -2.807,9.874 -1.867,5.323 -1.991,6.647 -0.952,10.115 0.657,2.195 2.135,5.186 3.285,6.647 l 2.089,2.656 4.108,-3.021 c 4.782,-3.517 8.65,-3.855 11.249,-0.983 1.8,1.99 1.777,2.171 -0.967,7.589 -3.17,6.261 -2.748,8.385 2.422,12.207 l 2.763,2.043 3.288,-13.397 3.289,-13.396 -2.665,-3.846 c -1.466,-2.115 -2.665,-4.773 -2.665,-5.907 0,-1.134 -0.88,-3.18 -1.956,-4.547 -1.961,-2.494 -15.65,-9.784 -18.371,-9.784 -0.892,0 -1.704,1.443 -2.11,3.75 m -221.143,2.38 c -1.21,1.958 2.524,5.87 5.603,5.87 1.719,0 2.974,-0.528 2.969,-1.25 -0.011,-1.663 -7.804,-5.863 -8.572,-4.62 m 179.662,3.663 c -4.197,4.412 -4.696,5.689 -3.166,8.105 0.706,1.115 1.818,0.634 5.485,-2.37 5.125,-4.2 5.065,-4.057 3.145,-7.527 l -1.383,-2.498 -4.081,4.29 m -170.882,24.407 c -1.778,1.778 -1.48,2.513 1.3,3.211 3.244,0.814 7.5,-0.271 7.5,-1.912 0,-2.49 -6.631,-3.468 -8.8,-1.299 m 250.8,3.141 c 0,1.838 -0.67,5.55 -1.489,8.25 -2.939,9.686 -1.572,13.409 4.923,13.409 2.439,0 2.566,-0.268 2.566,-5.424 0,-2.983 0.541,-7.765 1.201,-10.628 1.143,-4.949 1.089,-5.295 -1.111,-7.076 -3.745,-3.033 -6.09,-2.468 -6.09,1.469 m 13,33.396 c 0,3.708 7.377,7.854 9.11,5.12 2.029,-3.203 0.535,-4.653 -6.654,-6.457 -1.98,-0.497 -2.456,-0.238 -2.456,1.337"
     stroke="none"
     fill="#000000"
     fill-rule="evenodd"
     id="path2" />
</svg>
