<?xml version="1.0" encoding="UTF-8" standalone="no"?>
<svg
   width="860.14569"
   height="516.29413"
   viewBox="0 0 860.14569 516.29413"
   version="1.1"
   id="svg4"
   xmlns="http://www.w3.org/2000/svg"
   xmlns:svg="http://www.w3.org/2000/svg">
  <defs
     id="defs8" />
  <path
     d="m 361.63669,0.79306484 c -3.178,1.28999996 -5.353,9.24900016 -5.266,19.27500016 0.067,7.804 0.321,8.947 2.425,10.924 3.284,3.085 2.933,5.21 -1.184,7.174 -4.521,2.156 -6.117,2.127 -6.706,-0.123 -0.26,-0.994 -2.978,-3.076 -6.041,-4.625 -6.425,-3.251 -11.604,-2.997 -14.19,0.695 -2.889,4.125 -1.232,12.392 3.046,15.195 1.334,0.874 2.425,2.389 2.425,3.366 0,2.283 1.904,4.177 4.2,4.177 1.205,0 1.8,0.751 1.8,2.273 0,2.387 3.915,5.054 9.25,6.301 1.512,0.353 2.75,1.173 2.75,1.82 0,1.195 7.71,7.606 9.147,7.606 0.43,0 1.277,0.924 1.881,2.053 l 1.099,2.052 -4.024,-2.052 c -4.524,-2.308 -8.784,-2.611 -12.556,-0.892 -1.961,0.893 -2.547,1.9 -2.547,4.377 0,1.769 0.675,3.777 1.5,4.462 0.825,0.685 1.5,2.126 1.5,3.202 0,1.687 -0.448,1.859 -3.246,1.244 -6.675,-1.466 -9.544,-3.514 -10.259,-7.323 -1.255,-6.692 -2.095,-7.434 -7.592,-6.704 -4.169,0.553 -4.903,0.401 -4.903,-1.017 0,-0.916 -0.937,-3.182 -2.082,-5.034 -1.681,-2.721 -2.714,-3.368 -5.375,-3.368 -2.904,0 -3.369,-0.378 -3.933,-3.198 -0.892,-4.463 -3.298,-7.802 -5.621,-7.802 -1.178,0 -2.92,1.5 -4.354,3.75 -1.315,2.063 -4.318,5.1 -6.675,6.75 -2.356,1.65 -5.564,4.288 -7.129,5.863 -2.555,2.571 -3.291,2.795 -7.249,2.202 -2.706,-0.406 -4.654,-0.257 -5.052,0.387 -0.357,0.576 -1.677,1.048 -2.934,1.048 -2.591,0 -5.596,2.844 -5.596,5.295 0,0.9 0.779,3.27 1.73,5.266 1.872,3.925 1.906,3.854 -3.288,6.981 -1.503,0.906 -1.613,1.823 -0.836,6.973 0.705,4.678995 1.377,6.170995 3.182,7.068995 3.339,1.661 5.144,4.482 5.18,8.095 0.042,4.203 2.558,6.686 5.94,5.863 8.763,-2.134 10.914,-2.593 13.777,-2.943 3.019,-0.368 3.136,-0.259 2.25,2.072 -0.514,1.352 -0.935,3.073 -0.935,3.823 0,2.338 3.007,4.506 6.25,4.506 1.71,0 4.644,0.555 6.521,1.234 2.862,1.035 3.6,0.995 4.571,-0.25 0.654,-0.838 2.331,-1.349 3.851,-1.173 2.06,0.238 2.957,1.115 3.822,3.734 1.518,4.6 5.642,7.774 9.18,7.066 3.703,-0.741 4.359,0.796 1.219,2.854 -1.414,0.926 -3.039,3.028 -3.612,4.672 -0.593,1.703 -2.711,4.043 -4.922,5.439 -2.977,1.879 -3.876,3.086 -3.865,5.187 0.009,1.505 0.346,3.213 0.75,3.795 1.495,2.152 5.757,4.442 8.269,4.442 4.031,0 7.389,5.23 7.082,11.027 -0.329,6.188 1.162,7.31 9.41,7.084 l 6.474,-0.179 -1.658,3.476 c -1.48,3.104 -1.502,3.884 -0.21,7.278 0.899,2.362 2.189,3.913 3.407,4.097 6.732,1.013 8.456,2.449 4.463,3.716 -3.306,1.05 -3.588,5.015 -0.61,8.556 2.033,2.415 2.383,3.497 1.604,4.952 -1.554,2.903 -1.176,6.83 0.754,7.826 0.962,0.497 3.422,1.205 5.465,1.574 4.951,0.893 5.526,2.21 2.394,5.479 -3.91,4.081 -3.337,6.327 3.299,12.942 3.249,3.239 6.897,7.865 8.107,10.281 1.21,2.415 3.471,5.741 5.024,7.391 1.552,1.65 3.128,4.237 3.5,5.75 1.353,5.49 -3.613,2.866 -13.039,-6.89 -4.884,-5.055 -11.212,-8.36 -16.006,-8.36 -2.494,0 -4.348,-0.763 -6.094,-2.51 -1.381,-1.38 -3.968,-3.118 -5.751,-3.863 -1.782,-0.745 -4.018,-2.541 -4.968,-3.991 -1.312,-2.003 -2.554,-2.636 -5.169,-2.636 -2.426,0 -4.488,-0.918 -6.984,-3.109 -3.504,-3.077 -3.61,-3.1 -10.13,-2.162 -7.243,1.041 -7.362,0.96 -8.854,-6.004 -0.327,-1.527 -1.483,-3.664 -2.569,-4.75 -2.177,-2.177 -7.875,-2.675 -9.702,-0.848 -1.88,1.88 -5.98,0.084 -8.272,-3.625 -1.932,-3.126 -2.626,-3.502 -6.476,-3.502 -4.54,0 -5.525,-0.976 -5.525,-5.476 0,-2.961 -5.161,-8.524 -7.908,-8.524 -1.158,0 -2.956,1.012 -3.996,2.25 -1.04,1.238 -2.984,3.555 -4.32,5.149 l -2.429,2.899 -4.63,-1.768 c -2.547,-0.973 -5.681,-1.505 -6.964,-1.183 -1.915,0.481 -2.672,-0.042 -4.214,-2.904 -2.412,-4.479 -7.7,-7.847 -10.774,-6.861 -2.944,0.944 -12.238,0.569 -15.366,-0.621 -1.939,-0.736 -2.322,-1.421 -1.85,-3.301 0.575,-2.292 -1.539,-5.66 -3.553,-5.66 -0.474,0 -1.156,-0.927 -1.515,-2.061 -0.36,-1.133 -1.853,-2.587 -3.318,-3.23 -1.465,-0.642 -2.888,-1.402 -3.163,-1.689 -2.392,-2.489 -12.528,-8.27 -14.502,-8.27 -5.188,0 -6.786,4.046 -4.306,10.904 0.655,1.813 0.912,3.576 0.57,3.918 -0.342,0.341 -3.646,-0.588 -7.341,-2.067 -3.966,-1.586 -7.786,-2.485 -9.32,-2.192 -10.977,2.096 -12.512,3.35 -11.802,9.645 0.325,2.887 1.244,5.063 2.602,6.163 1.154,0.935 2.099,2.865 2.099,4.289 0,2.376 -0.351,2.592 -4.25,2.618 -5.012,0.033 -15.095,5.096 -17.976,9.027 -2.597,3.542 -1.089,7.356 3.507,8.873 3.761,1.241 17.235,0.741 22.526,-0.836 1.819,-0.542 3.963,-0.734 4.763,-0.427 0.801,0.307 2.133,-0.004 2.961,-0.691 1.225,-1.016 1.864,-0.926 3.421,0.482 1.369,1.239 2.768,1.545 4.915,1.073 2.532,-0.556 3.279,-0.237 4.772,2.042 0.973,1.486 3.305,3.344 5.182,4.128 1.877,0.784 4.47,2.682 5.762,4.217 1.334,1.585 4.94,3.736 8.349,4.979 3.301,1.203 6.291,2.656 6.644,3.228 0.353,0.572 -0.532,2.265 -1.967,3.763 -3.114,3.251 -3.376,7.322 -0.634,9.876 2.957,2.755 15.073,5.608 20.414,4.807 2.742,-0.411 4.682,-0.263 5.085,0.389 0.358,0.579 2.547,0.982 4.865,0.894 3.119,-0.118 5.377,0.587 8.687,2.711 6.088,3.907 9.506,5.906 15.974,9.345 3.025,1.608 6.283,3.861 7.24,5.008 0.957,1.146 2.446,2.084 3.309,2.084 0.863,0 1.3,0.435 0.971,0.967 -0.329,0.532 -1.875,0.712 -3.437,0.4 -3.864,-0.773 -6.787,1.01 -7.581,4.625 -0.364,1.654 -0.88,3.008 -1.148,3.008 -0.268,0 -1.962,-1.125 -3.765,-2.5 -1.803,-1.375 -4.462,-2.5 -5.91,-2.5 -1.705,0 -3.21,0.881 -4.271,2.5 -1.39,2.122 -2.404,2.5 -6.702,2.5 -2.785,0 -6.52,-0.527 -8.301,-1.17 -2.714,-0.982 -3.66,-0.893 -5.865,0.552 -1.446,0.947 -3.025,2.763 -3.508,4.034 -1.291,3.394 -4.397,3.766 -8.177,0.977 -4.055,-2.991 -9.114,-3.134 -11.913,-0.335 -1.792,1.792 -2.492,1.916 -5.405,0.954 -1.841,-0.607 -5.077,-1.123 -7.192,-1.146 -9.716,-0.106 -14.054,-0.593 -16.662,-1.869 -2.484,-1.216 -3.219,-1.163 -6.212,0.449 -2.884,1.553 -3.841,1.643 -6.361,0.6 -1.631,-0.676 -3.743,-2.088 -4.693,-3.137 -0.95,-1.05 -2.536,-1.909 -3.525,-1.909 -0.989,0 -2.909,-0.506 -4.267,-1.125 -1.816,-0.827 -3.311,-0.832 -5.651,-0.016 -2.54,0.886 -3.609,0.81 -5.3,-0.375 -1.166,-0.816 -2.884,-1.484 -3.82,-1.484 -0.935,0 -3.13,-1.203 -4.878,-2.673 -3.173,-2.67 -3.181,-2.671 -6.541,-0.862 -3.296,1.775 -3.471,1.766 -8.65,-0.43 -2.907,-1.233 -5.712,-2.646 -6.235,-3.139 -1.446,-1.364 -3.225,-1.078 -5.127,0.824 -1.626,1.626 -1.799,1.599 -3.193,-0.5 -1.516002,-2.283 -6.555002,-3.121 -7.693002,-1.279 -0.334,0.54 -1.823,0.228 -3.497,-0.733 -2.795,-1.604 -3.011,-1.584 -5.228,0.488 -2.058,1.923 -2.526,2.004 -4.253,0.732 -1.068,-0.785 -2.868,-1.435 -4,-1.443 -2.322,-0.017 -7.897,-1.897 -11.376,-3.836 -1.949,-1.086 -2.706,-1.036 -4.767,0.314 -2.222,1.456 -2.869,1.462 -6.968,0.071 -2.485,-0.844 -5.572,-1.534 -6.861,-1.534 -1.288,0 -2.941,-0.722 -3.673,-1.604 -0.973,-1.172 -2.392,-1.461 -5.272,-1.075 -2.63,0.353 -4.723,0.017 -6.29,-1.01 -1.429,-0.936 -3.622,-1.351 -5.6,-1.061 -1.789,0.263 -4.266,0.017 -5.504,-0.548 -1.69,-0.769 -3.69,-0.557 -8,0.846 -7.5580002,2.461 -7.9490002,2.81 -9.0820002,8.12 -0.833,3.907 -0.636,5.281 1.421,9.933 1.313,2.969 3.008,5.399 3.766,5.399 0.757,0 2.6050002,0.966 4.1070002,2.147 2.417,1.902 3.24,2.03 7.206,1.122 4.241,-0.97 4.525,-0.898 5.39,1.379 0.503,1.322 1.596,2.617 2.429,2.878 5.243,1.641 5.008,1.41 3.236,3.182 -1.513,1.513 -1.932,1.501 -5.616,-0.161 -5.128,-2.312 -8.581,-1.49 -9.924,2.363 -0.951,2.729 -1.287,2.885 -5.1000002,2.374 -2.777,-0.372 -4.081,-0.171 -4.081,0.632 0,0.649 -1.172,2.265 -2.604,3.593 -2.23999997,2.076 -2.59399997,3.209 -2.53599997,8.116 0.038,3.137 0.434,6.069 0.88,6.515 0.44699997,0.447 5.07499997,1.036 10.28600017,1.308 5.211,0.273 10.891,1.041 12.623,1.706 2.61,1.001 3.554,0.943 5.512,-0.34 1.995,-1.307 2.562,-1.336 3.641,-0.181 1.735,1.858 2.843,1.722 5.203,-0.638 1.652,-1.652 2.34,-1.797 3.902,-0.821 1.522,0.95 2.403,0.853 4.46,-0.495 3.216,-2.107 3.289,-2.101 3.923,0.321 0.567,2.169 5.068,2.848 6.246,0.941 0.36,-0.582 1.869,-0.791 3.353,-0.465 2.067,0.454 3.255,-0.001 5.079,-1.942 2.363,-2.516 8.032,-3.598 8.032,-1.534 0,2.16 4.032,5.03 6.275,4.467 1.234,-0.31 5.84,-0.747 10.235,-0.971 4.394,-0.224 10.17,-0.701 12.834002,-1.06 4.276,-0.576 4.804,-0.446 4.5,1.106 -0.637,3.256 -7.290002,4.629 -18.876002,3.896 -11.7,-0.741 -13.409,-0.053 -12.79,5.151 0.329,2.771 0.632,3.019 7.012,5.745 3.322,1.419 3.722,1.998 4,5.791 0.297,4.043 0.499,4.277 4.992,5.794 2.575,0.87 5.815,2.65 7.199,3.958 3.227002,3.046 5.619002,2.213 5.619002,-1.957 0,-3.063 0.091,-3.126 3.576,-2.472 2.208,0.415 4.111,0.227 4.975,-0.49 1.117,-0.927 1.638,-0.637 2.585,1.44 1.499,3.291 4.337,3.336 6.456,0.102 1.2,-1.832 2.521,-2.5 4.941,-2.5 2.695,0 3.701,0.643 5.46,3.488 1.487,2.407 3.993,4.332 8.081,6.208 3.259,1.496 5.926,3.014 5.926,3.373 0,0.359 -2.25,0.919 -4.999,1.244 -7.646,0.906 -12.819,3.749 -20.751,11.404 -8.005,7.726 -9.17,10.979 -4.929,13.758 2.948,1.931 17.112,3.252 18.08,1.685 0.426,-0.689 2.294,-0.889 4.931,-0.528 3.201,0.439 4.574,0.186 5.579,-1.025 0.798,-0.962 2.865,-1.607 5.146,-1.607 2.097,0 4.901,-0.414 6.231,-0.919 2.136,-0.813 2.603,-0.533 4,2.398 1.864,3.907 1.473,4.521 -2.873,4.521 -1.788,0 -3.98,0.28 -4.87,0.621 -2.46,0.944 -4.6,5.856 -3.955,9.08 0.533,2.664 0.29,2.916 -3.892,4.035 -5.761,1.541 -10.698,5.662 -10.698,8.93 0,1.384 1.226,3.714 2.763,5.251 l 2.763,2.763 -2.263,1.706 c -1.245,0.939 -2.263,2.55 -2.263,3.579 0,3.907 -1.128,5.035 -5.036,5.035 -5.175,0 -7.336,2.269 -6.593,6.922 0.512,3.208 0.256,3.759 -2.481,5.328 -1.679,0.962 -4.071,1.75 -5.316,1.75 -2.718,0 -5.574,2.895 -5.574,5.649 0,1.095 1.634,3.9 3.632,6.234 3.193,3.73 3.498,4.536 2.527,6.668 -1.436,3.152 -0.835,4.482 3.215,7.111 2.953,1.918 4.992,2.2 18.033,2.5 l 14.703,0.338 4.427,-5 c 2.436,-2.75 4.796,-6.327 5.246,-7.95 0.605,-2.182 1.65,-3.165 4.017,-3.778 1.76,-0.456 3.2,-1.413 3.2,-2.126 0,-1.666 3.885,-5.23 6.592,-6.048 3.465,-1.047 6.434,-5.031 8.732,-11.715 1.479,-4.302 2.923,-6.701 4.508,-7.489 3.492,-1.737 8.878,-7.279 10.219,-10.516 0.651,-1.573 2.657,-3.771 4.458,-4.884 1.801,-1.112 4.941,-4.058 6.979,-6.545 2.793,-3.408 4.18,-4.372 5.631,-3.911 1.059,0.336 3.316,0.306 5.016,-0.068 3.65,-0.801 10.863,-6.998 10.869,-9.336 0.002,-0.899 0.895,-3.096 1.985,-4.884 1.492,-2.447 2.688,-3.25 4.841,-3.25 3.343,0 6.17,-2.707 6.17,-5.908 0,-1.977 0.362,-2.171 2.978,-1.597 1.637,0.36 3.854,0.376 4.927,0.035 2.216,-0.703 6.095,-6.727 6.095,-9.465 0,-2.284 2.315,-4.27 4.69,-4.023 6.549,0.681 7.86,-0.104 22.715,-13.592 2.261,-2.052 3.56,-2.507 5.853,-2.048 4.683,0.936 10.6,-0.379 11.275,-2.507 0.567,-1.785 0.676,-1.778 2.759,0.162 3.068,2.858 6.213,3.403 8.876,1.538 1.252,-0.877 3.527,-1.595 5.055,-1.595 1.527,0 2.777,-0.45 2.777,-1 0,-1.587 3.725,-1.16 4.362,0.5 0.671,1.751 3.914,1.958 6.766,0.431 1.099,-0.587 3.431,-1.094 5.185,-1.125 1.753,-0.031 4.199,-0.978 5.437,-2.105 1.82,-1.658 2.25,-1.753 2.25,-0.498 0,3.297 2.662,4.145 7.747,2.47 2.992,-0.986 5.105,-1.216 5.703,-0.62 1.184,1.18 6.583,1.212 8.418,0.05 0.899,-0.57 2.013,-0.222 3.25,1.015 2.258,2.258 4.77,2.374 9.414,0.433 3.028,-1.265 3.468,-1.265 3.468,0 0,1.735 5.052,1.997 6.701,0.348 0.801,-0.801 1.281,-0.53 1.765,0.994 0.366,1.153 1.343,2.773 2.171,3.601 1.779,1.779 7.471,1.998 9.117,0.352 0.873,-0.873 1.874,-0.385 4.102,2 1.62,1.734 3.433,3.154 4.028,3.154 1.436,0 9.533,7.901 11.015,10.75 1.343,2.581 4.673,2.947 7.069,0.779 1.438,-1.301 2.254,-1.214 7.079,0.755 2.999,1.225 6.509,2.973 7.801,3.884 l 2.347,1.657 -2.347,1.21 c -3.658,1.884 -7.848,6.165 -7.848,8.017 0,0.923 0.805,2.751 1.79,4.063 3.132,4.173 4.317,7.816 3.215,9.876 -2.683,5.014 -0.171,10.139 9.245,18.863 2.063,1.911 3.75,4.001 3.75,4.645 0,0.644 -1.35,2.373 -3,3.843 -4.216,3.757 -3.912,6.735 1.171,11.477 l 4.172,3.891 -2.35,3.801 c -2.196,3.553 -2.248,3.979 -0.805,6.494 1.31,2.283 1.343,3.056 0.214,5.093 -1.905,3.438 -1.664,5.874 1.013,10.23 1.99,3.236 2.186,4.27 1.27,6.695 -0.82,2.174 -0.762,3.465 0.242,5.341 1.05,1.961 1.08,3.167 0.145,5.805 -1.133,3.199 -1.029,3.463 2.624,6.665 7.764,6.805 27.957,14.693 49.424,19.306 8.585,1.845 13.666,2.242 29.38,2.295 17.13,0.059 19.718,-0.161 26.298,-2.228 9.327,-2.931 16.432,-9.293 18.103,-16.207 0.598,-2.475 1.622,-5.85 2.276,-7.5 1.601,-4.039 1.205,-11.861 -0.797,-15.732 -1.607,-3.109 -1.589,-3.19 1.244,-5.464 1.582,-1.269 3.552,-2.527 4.378,-2.795 2.449,-0.793 4.385,-4.677 4.96,-9.949 0.506,-4.651 0.743,-4.993 4.038,-5.84 1.925,-0.495 4.132,-1.422 4.904,-2.06 0.772,-0.638 2.194,-1.026 3.161,-0.862 0.967,0.164 2.049,-0.174 2.405,-0.75 1.124,-1.818 2.267,-1.158 4.474,2.582 2.074,3.516 2.284,3.611 6.636,3.014 3.354,-0.46 4.629,-0.262 5.029,0.779 0.294,0.766 1.87,1.947 3.501,2.623 1.632,0.675 3.415,2.067 3.963,3.091 2.012,3.758 10.927,1.338 10.927,-2.966 0,-1.798 1.767,-1.417 6.948,1.495 5.388,3.029 7.63,2.684 9.047,-1.39 0.531,-1.527 1.649,-4.05 2.485,-5.607 0.836,-1.557 1.52,-4.114 1.52,-5.683 0,-1.96 0.617,-3.047 1.974,-3.478 2.371,-0.752 5.641,-5.127 6.555,-8.769 1.452,-5.783 -8.434,-10.265 -14.056,-6.374 -1.085,0.751 -2.986,1.682 -4.223,2.068 -2.107,0.657 -2.25,0.412 -2.25,-3.852 0,-4.289 -0.211,-4.642 -3.622,-6.068 -4.249,-1.775 -7.736,-1.927 -10.482,-0.458 -3.996,2.139 -5.398,0.5 -5.375,-6.283 0.016,-5.011 0.349,-6.316 1.674,-6.571 2.15,-0.414 9.739,3.463 10.461,5.344 0.635,1.655 4.904,1.976 5.853,0.44 0.345,-0.558 2.156,-1.654 4.024,-2.434 2.199,-0.919 3.623,-2.324 4.04,-3.985 0.354,-1.411 1.054,-2.566 1.554,-2.566 0.501,0 0.645,1.06 0.32,2.356 -0.684,2.723 1.679,5.644 4.564,5.644 1.437,0 1.94,0.866 2.179,3.75 0.293,3.54 0.506,3.755 3.81,3.838 7.362,0.184 7.239,0.118 5.43,2.879 -1.522,2.323 -1.478,2.716 0.758,6.75 l 2.374,4.283 h 7.056 c 8.873,0 11.028,1.351 8.856,5.551 -2.94,5.685 -1.392,9.949 3.612,9.949 1.477,0 3.974,0.672 5.55,1.494 5.192,2.708 9.389,1.497 11.111,-3.206 3.355,-9.161 3.636,-11.207 1.814,-13.22 -1.705,-1.884 -1.644,-1.959 2.092,-2.549 9.953,-1.574 13.647,-2.606 15.679,-4.379 1.687,-1.472 1.913,-1.453 2.863,0.244 1.354,2.419 4.579,5.616 5.665,5.616 0.474,0 2.56,-1.153 4.638,-2.563 2.472,-1.678 4.115,-2.224 4.759,-1.58 1.022,1.022 2.525,6.906 3.434,13.442 1.007,7.238 7.57,8.601 11.374,2.362 l 1.928,-3.161 0.003,2.75 c 0.004,2.688 3.015,6.75 5.004,6.75 1.445,0 1.228,2.087 -0.407,3.921 -2.601,2.918 -2.396,8.579 0.364,10.056 1.469,0.786 3.18,0.583 6.86,-0.816 l 4.904,-1.863 0.889,4.601 0.89,4.601 4.612,0.013 c 2.536,0.007 5.343,0.62 6.239,1.363 3.888,3.227 13.649,-1.723 13.649,-6.923 0,-2.206 0.712,-3.27 2.97,-4.438 3.501,-1.81 5.373,-4.859 4.559,-7.425 -0.32,-1.008 -2.578,-3.095 -5.017,-4.637 l -4.435,-2.803 2.462,-2.461 c 1.424,-1.424 2.461,-3.623 2.461,-5.217 0,-2.283 -0.689,-3.03 -4.02,-4.363 -2.211,-0.885 -4.686,-1.609 -5.5,-1.609 -2.722,0 -1.519,-2.791 1.685,-3.908 2.543,-0.886 3.49,-0.809 4.816,0.391 1.281,1.159 3.815,1.423 11.326,1.181 5.321,-0.172 9.974,-0.611 10.338,-0.976 0.365,-0.365 1.233,-3.692 1.928,-7.393 1.409,-7.498 0.749,-9.925 -2.952,-10.854 -1.33,-0.334 -2.918,-1.939 -3.721,-3.762 -1.356,-3.08 -1.579,-3.173 -7.136,-2.985 l -5.736,0.194 1.574,-2.404 c 1.78,-2.716 1.18,-7.59 -1.175,-9.544 -1.849,-1.535 -8.25,-0.553 -9.783,1.501 -0.629,0.843 -2.615,1.821 -4.413,2.174 l -3.269,0.643 0.649,-6.982 c 0.61,-6.558 0.506,-7.08 -1.704,-8.628 -3.079,-2.157 -6.077,-2.086 -9.022,0.214 -1.312,1.025 -3.51,2.197 -4.885,2.605 -1.375,0.407 -3.455,1.342 -4.622,2.076 -1.948,1.226 -2.317,1.033 -4.502,-2.354 -3.703,-5.74 -9.358,-5.511 -12.731,0.516 -0.8,1.43 -1.257,1.352 -4.149,-0.708 -3.086,-2.197 -3.409,-2.235 -6.373,-0.739 -5.106,2.575 -8.275,2.865 -12.567,1.148 -3.203,-1.282 -4.675,-1.386 -7.191,-0.509 -4.702,1.639 -9.461,1.35 -16.795,-1.022 -4.33,-1.4 -7.501,-3.169 -9.299,-5.187 -3.617,-4.058 -2.738,-4.594 2.187,-1.334 4.762,3.151 6.249,3.262 9.832,0.736 3.105,-2.189 10.601,-3.568 17.323,-3.188 3.988,0.226 4.903,-0.106 6.75,-2.455 2.765,-3.515 2.713,-6.987 -0.146,-9.745 -1.255,-1.211 -3.043,-3.405 -3.973,-4.876 -0.93,-1.471 -2.603,-2.964 -3.717,-3.318 -1.136,-0.36 -2.027,-1.512 -2.027,-2.621 0,-1.088 -1.149,-3.127 -2.554,-4.532 -2.82,-2.82 -6.886,-2.898 -13.238,-0.255 -2.953,1.229 -3.669,1.165 -6.933,-0.615 -4.894,-2.669 -5.101,-4.113 -0.844,-5.892 2.416,-1.009 3.569,-2.141 3.569,-3.503 0,-2.164 3.501,-3.512 12.235,-4.709 4.227,-0.579 4.682,-0.413 6.835,2.499 1.369,1.853 3.202,3.12 4.511,3.12 1.213,0 2.457,0.657 2.765,1.459 0.717,1.868 6.651,3.502 8.789,2.421 0.899,-0.455 1.92,-1.964 2.269,-3.354 0.349,-1.389 1.022,-2.526 1.496,-2.526 1.839,0 7.105,-6.512 7.661,-9.472 0.351,-1.875 1.452,-3.497 2.762,-4.072 2.418,-1.062 3.533,-6 1.755,-7.778 -1.602,-1.602 -1.309,-2.678 0.731,-2.678 0.995,0 2.633,-0.603 3.641,-1.34 1.28,-0.936 3.062,-1.115 5.908,-0.594 4.673,0.854 12.209,-0.123 15.142,-1.964 1.485,-0.932 2.715,-0.982 4.776,-0.194 2.825,1.081 3.098,1.498 4.16,6.342 0.493,2.254 1.143,2.75 3.597,2.75 1.647,0 3.812,-0.511 4.812,-1.135 2.386,-1.49 7.48,0.831 7.996,3.643 0.663,3.613 3.369,5.72 6.663,5.185 2.068,-0.335 3.785,0.123 5.419,1.446 2.317,1.876 7.017,1.951 13.319,0.212 1.182,-0.326 2.134,0.381 2.962,2.197 1.167,2.561 1.462,2.65 6.758,2.056 7.13,-0.8 10.038,-3.724 10.038,-10.095 0,-5.175 -1.445,-9.519 -3.747,-11.267 -0.911,-0.692 -2.129,-2.702 -2.705,-4.466 -0.969,-2.967 -2.932,-4.528 -8.048,-6.397 -1.951,-0.713 -1.948,-0.74 0.133,-1.109 1.173,-0.208 3.314,-1.704 4.758,-3.324 1.443,-1.62 3.094,-2.946 3.668,-2.946 1.253,0 3.941,-6.115 3.941,-8.968 0,-3.258 -3.73,-6.299 -7.118,-5.801 -4.223,0.619 -5.312,-1.261 -3.244,-5.598 2.102,-4.407 0.737,-8.633 -2.788,-8.633 -1.206,0 -3.041,-0.768 -4.077,-1.706 -1.491,-1.349 -2.266,-1.467 -3.707,-0.567 -1.504,0.939 -2.202,0.702 -3.992,-1.357 -3.253,-3.741 -2.024,-6.307 2.717,-5.671 2.915,0.391 4.131,0.045 5.62,-1.6 1.044,-1.155 2.442,-2.099 3.105,-2.099 1.177,0 2.762,-7.946 2.573,-12.899 -0.181,-4.763 -4.823,-7.71 -13.753,-8.731 -4.378,-0.5 -6.657,-1.379 -9.121,-3.518 -3.636,-3.157 -6.831,-3.609 -9.774,-1.384 -2.535,1.918 -7.861,1.936 -9.441,0.032 -2.076,-2.502 -7.326,-1.817 -11.5,1.5 -4.747,3.772 -8.196,3.93 -9.525,0.435 -0.536,-1.411 -0.975,-2.943 -0.975,-3.404 0,-0.461 4.612,-4.967 10.25,-10.013 5.724,-5.123 11.032,-10.795 12.021,-12.846 1.985,-4.117 1.622,-10.154 -0.837,-13.911 -2.35,-3.59 -11.359,-8.241 -15.984,-8.252 -2.227,-0.005 -4.543,-0.502 -5.146,-1.105 -1.169,-1.169 -0.617,-12.614 0.695,-14.404 0.403,-0.55 0.751,-3.925 0.774,-7.5 0.032,-4.89 -0.837,-9.101 -3.51,-17 -1.953,-5.775 -4.248,-11.062 -5.099,-11.75 -1.628,-1.316 -6.905,-1.67 -9.582,-0.643 -0.87,0.334 -1.582,1.635 -1.582,2.892 0,1.552 -0.74,2.47 -2.309,2.864 -2.542,0.638 -6.661,8.519 -7.649,14.637 -0.483,2.987 -1.004,3.55 -3.554,3.838 -4.363,0.495 -5.488,1.885 -5.488,6.784 0,4.306 -0.055,4.378 -3.378,4.378 -4.289,0 -6.036,2.112 -6.084,7.358 -0.038,4.102 -0.077,4.145 -4.025,4.467 -5.127,0.417 -6.332,1.495 -6.707,6.001 -0.255,3.06 -0.724,3.73 -2.806,4.012 -1.375,0.185 -3.4,1.115 -4.5,2.065 -1.1,0.95 -3.237,2.496 -4.75,3.435 -2.967,1.843 -3.598,5.208 -1.657,8.835 0.79,1.477 0.79,2.344 0,3.134 -0.601,0.601 -1.093,3.071 -1.093,5.489 0,2.417 -0.734,5.638 -1.632,7.157 -1.554,2.632 -1.766,2.695 -4.482,1.34 -4.089,-2.04 -9.151,-1.329 -10.373,1.457 -0.658,1.5 -1.851,2.25 -3.576,2.25 -1.445,0 -3.592,1.069 -4.861,2.419 -1.25,1.331 -4.467,3.363 -7.148,4.517 -4.917,2.115 -7.184,4.707 -6.869,7.853 0.094,0.941 0.119,2.274 0.056,2.961 -0.137,1.487 -3.73,1.682 -4.615,0.25 -0.34,-0.55 -2.066,-1 -3.836,-1 -3.86,0 -8.564,4.615 -10.194,10 l -1.059,3.5 -2.756,-5.794 c -4.247,-8.931 -10.439,-10.14 -15.034,-2.937 -1.309,2.052 -3.588,4.766 -5.065,6.031 -1.901,1.627 -2.594,3.067 -2.371,4.924 0.258,2.149 -0.194,2.761 -2.499,3.381 -4.971,1.336 -5.856,2.741 -5.506,8.738 0.308,5.271 0.211,5.512 -2.494,6.25 -4.338,1.184 -5.686,2.821 -5.686,6.907 0,4.29 -1.241,5.681 -5.5,6.162 -2.616,0.295 -3.118,0.871 -3.923,4.498 -0.767,3.454 -1.403,4.255 -3.75,4.725 -2.041,0.408 -2.827,1.157 -2.827,2.696 0,1.171 -1.125,3.467 -2.5,5.101 -1.375,1.634 -2.5,4.216 -2.5,5.736 0,2.356 -0.587,2.941 -3.97,3.955 -3.49,1.045 -4.105,1.699 -5.093,5.408 -1.35,5.07 -3.304,7.427 -7.667,9.251 -2.47,1.032 -3.27,1.984 -3.27,3.893 0,1.39 -0.898,4 -1.996,5.801 -1.098,1.801 -1.998,3.931 -2,4.734 -0.002,0.802 2.105,3.396 4.683,5.762 5.442,4.996 5.045,6.18 -2.309,6.897 -7.457,0.727 -8.155,0.643 -10.719,-1.291 -1.723,-1.3 -2.736,-3.56 -3.645,-8.132 l -1.258,-6.332 2.872,-3 c 2.449,-2.558 2.849,-3.74 2.717,-8.029 l -0.154,-5.029 5.376,-2.378 c 3.974,-1.758 6.077,-3.487 8.062,-6.633 1.478,-2.341 3.788,-5.122 5.135,-6.181 2.017,-1.587 2.349,-2.531 1.889,-5.367 -0.334,-2.054 0.071,-5.016 1.003,-7.344 0.873,-2.183 1.286,-4.996 0.938,-6.385 -0.997,-3.97 0.343,-10.067 2.25,-10.239 6.544,-0.592 11.156,-3.202 11.156,-6.313 0,-0.961 1.289,-2.257 2.914,-2.93 1.603,-0.664 3.451,-2.504 4.108,-4.089 0.656,-1.584 1.81,-3.393 2.565,-4.019 1.766,-1.466 4.073,-6.103 4.892,-9.834 0.724,-3.297 -1.045,-11.094 -2.518,-11.094 -2.086,0 -0.736,-3.21 4.039,-9.597 5.98,-8.001 6.645,-12.659 2.508,-17.576 l -2.492,-2.961 3.536,-6.833 c 2.232,-4.313 3.358,-7.7 3.052,-9.183 -0.266,-1.293 -0.751,-5.804 -1.079,-10.025 -0.578,-7.462 -0.512,-7.77 2.372,-11.055 3.829,-4.361 4.777,-8.093 2.815,-11.087 -1.931,-2.947 -1.167,-11.378 1.285,-14.183 1.684,-1.926 2.566,-4.61 3.618,-11 0.271,-1.65 0.701,-4.004 0.954,-5.232 0.539,-2.614 6.119,-9.264 7.785,-9.277 0.63,-0.004 2.855,-1.628 4.944,-3.608 3.596,-3.408 3.788,-3.902 3.603,-9.241995 -0.149,-4.276 0.326,-6.488 1.964,-9.141 3.549,-5.752 4.457,-10.476 2.676,-13.92 -0.84,-1.624 -1.285,-3.583 -0.99,-4.352 0.295,-0.769 -0.33,-2.469 -1.39,-3.777 -1.673,-2.067 -2.254,-2.23 -4.421,-1.242 -1.813,0.826 -2.795,0.836 -3.594,0.037 -1.14,-1.14 -9.061,-2.741 -15.146,-3.062 l -3.5,-0.184 v 6.5 6.5 l -5.666,-0.341 c -5.104,-0.307 -5.786,-0.108 -6.876,2 -0.665,1.288 -2.44,3.496 -3.946,4.909 l -2.736,2.567 -3.004,-2.683 c -2.656,-2.373 -3.628,-2.633 -8.388,-2.243 -7.34,0.602 -7.514,0.692 -8.226,4.253 -0.587,2.931 -0.843,3.094 -3.957,2.51 -2.394,-0.449 -3.697,-0.182 -4.638,0.952 -0.719,0.867 -1.896,1.576 -2.614,1.576 -2.089,0 -4.449,2.937 -4.449,5.536 0,3.083 -3.182,4.784995 -7.864,4.206995 -2,-0.246 -4.682,-0.063 -5.961,0.408 -1.592,0.587 -2.971,0.405 -4.372,-0.576 -1.467,-1.027995 -2.737,-1.169995 -4.49,-0.503995 -3.655,1.389995 -6.665,-0.531 -5.86,-3.738 0.345,-1.377 0.349,-3.382 0.008,-4.456 -0.784,-2.47 -7.675,-6.877 -10.754,-6.877 -3.016,0 -7.292,-4.498 -9.019,-9.489 -1.071,-3.092 -2.035,-4.103 -4.524,-4.748 -3.067,-0.795 -3.164,-0.989 -3.164,-6.292 0,-7.882 -3.899,-11.528 -8.559,-8.003 -2.579,1.951 -5.943,1.904 -9.041,-0.126 -2.508,-1.643 -2.575,-1.609 -7.715,3.874 -5.42,5.782 -8.332,7.348 -11.685,6.284 -2.723,-0.864 -2.702,-5.782 0.033,-7.628 2.227,-1.503 3.576,-7.308 2.602,-11.191 -0.359,-1.429 -1.84,-2.937 -3.6,-3.666 -2.598,-1.076 -3.447,-0.969 -6.474,0.816 -2.518,1.486 -4.466,1.896 -7.028,1.481 -2.817,-0.458 -4.351,-0.017 -7.471,2.145 -4.076,2.825 -6.752,2.826 -9.094,0.004 -1.726,-2.079 -5.568,-1.807 -7.764,0.55 l -1.874,2.012 -1.82,-2.012 c -2.162,-2.389 -5.28,-2.552 -10.12,-0.529 -3.263,1.363 -3.521,1.776 -3.229,5.17 0.404,4.68 -1.147,5.238 -3.427,1.233 -1.559,-2.739 -2.144,-3.031 -5,-2.498 l -3.234,0.604 v -6.068 c 0,-5.651 -0.226,-6.252 -3.292,-8.754 -2.508,-2.046 -3.014,-2.963 -2.125,-3.852 1.819,-1.819 1.377,-5.917 -0.958,-8.885 -1.169,-1.486 -2.125,-3.221 -2.125,-3.855 0,-1.857 -6.885,-17.8940002 -8.251,-19.2200002 -0.687,-0.666 -2.915,-1.51499996 -4.952,-1.88599996 -3.142,-0.574 -4.051,-0.3 -6.001,1.80399996 l -2.299,2.481 -3.47,-2.378 c -3.653,-2.50299996 -5.246,-2.77099996 -8.536,-1.43599996 m 46.259,69.13800016 c -1.144,0.667 -1.75,2.243 -1.75,4.553 0,4.776 2.102,3.939 3.665,-1.459 1.26,-4.354 0.992,-4.787 -1.915,-3.094 m 60.517,18.156 c -4.755,3.227 -10.701,11.595 -11.742,16.521995 -0.836,3.959 -3.548,5.577 -8.389,5.003 -2.584,-0.306 -4.504,0.172 -6.636,1.654 -4.176,2.902 -4.467,3.473 -4.485,8.778 -0.011,3.363 -0.527,5.064 -1.82,6 -0.993,0.719 -2.247,2.882 -2.786,4.807 -0.651,2.322 -1.978,4.005 -3.945,5 -2.932,1.484 -2.88,1.505 4.71,2 6.339,0.413 8.121,0.922 10.25,2.924 4.596,4.325 3.203,8.225 -4.843,13.566 -2.97,1.971 -6.074,4.613 -6.898,5.871 -1.536,2.344 -1.286,4.728 1.553,14.815 0.569,2.021 0.697,4.496 0.284,5.5 -2.407,5.85 -2.358,8.363 0.223,11.43 2.181,2.592 2.534,3.946 2.442,9.354 -0.094,5.505 0.405,7.332 3.854,14.116 2.178,4.286 3.968,8.947 3.976,10.358 0.026,4.255 1.345,5.431 3.464,3.09 1.007,-1.113 2.959,-2.024 4.338,-2.024 3.985,0 11.064,4.664 11.819,7.786 0.36,1.493 2.04,3.892 3.733,5.332 3.074,2.615 3.076,2.622 1.792,7.633 -1.37,5.342 -1.159,6.171 3.846,15.161 2.508,4.506 3.551,5.055 9.639,5.073 l 5.146,0.015 2.992,5.75 c 2.335,4.487 3.566,5.819 5.604,6.066 3.032,0.368 3.034,0.359 1.167,-6.657 -1.618,-6.077 -1.387,-7.305 1.632,-8.68 3.737,-1.702 4.499,-4.048 2.445,-7.526 -1.015,-1.718 -1.584,-4.03 -1.278,-5.198 0.302,-1.157 0.068,-4.354 -0.522,-7.104 -0.789,-3.679 -0.759,-6.401 0.116,-10.309 1.013,-4.525 0.956,-5.64 -0.38,-7.548 -1.976,-2.822 -2.018,-7.201 -0.088,-9.131 0.814,-0.814 3.181,-1.768 5.259,-2.119 2.816,-0.476 4.228,-1.422 5.543,-3.713 1.688,-2.94 1.999,-3.055 7.112,-2.631 4.458,0.369 5.544,0.128 6.529,-1.449 1.008,-1.614 0.659,-2.471 -2.37,-5.824 -3.946,-4.367 -4.658,-8.679 -1.892,-11.445 1.274,-1.274 3.08,-1.582 7.75,-1.321 l 6.089,0.339 0.069,-4 c 0.093,-5.404 1.903,-8.5 4.966,-8.5 3.198,0 3.188,-2.296 -0.019,-4.398 -3.017,-1.976 -4.095,-5.652 -2.521,-8.592 0.937,-1.752 0.856,-2.517 -0.415,-3.922 -0.869,-0.96 -1.58,-2.224 -1.58,-2.808 0,-0.585 -1.125,-1.346 -2.5,-1.691 -2.068,-0.519 -2.5,-1.229 -2.5,-4.108 0,-3.324 -0.161,-3.481 -3.566,-3.481 -5.47,0 -7.76,-1.619 -7.083,-5.006 0.483,-2.416 -0.04,-3.312 -3.643,-6.232 -2.314,-1.875 -4.97,-3.69 -5.901,-4.032 -1.201,-0.442 -1.782,-2.016 -2,-5.412 -0.266,-4.15 -0.597,-4.791 -2.479,-4.804 -2.566,-0.017 -8.328,-7.375 -8.328,-10.634 0,-1.176 -1.575,-3.881 -3.5,-6.012 -1.925,-2.13 -3.5,-4.503 -3.5,-5.272 0,-0.768995 -1.575,-2.327995 -3.5,-3.462995 -1.925,-1.136 -3.5,-2.5 -3.5,-3.032 0,-0.531 -0.852,-1.237 -1.892,-1.567 -1.041,-0.33 -2.428,-1.893 -3.082,-3.472 -1.646,-3.973 -3.82,-4.178 -8.759,-0.826 m -111.267,10.109 c 0,0.74 0.927,2.183995 2.061,3.209995 1.744,1.578 2.198,1.644 2.949,0.428 0.586,-0.947 0.342,-2.041995 -0.716,-3.209995 -1.896,-2.095 -4.294,-2.334 -4.294,-0.428 m 464.322,153.511995 c -0.875,1.401 -2.802,1.988 -7.852,2.393 -4.599,0.37 -7.583,1.197 -9.544,2.647 -1.569,1.16 -5.232,2.461 -8.14,2.892 -4.502,0.667 -5.236,1.074 -4.946,2.747 0.37,2.131 2.977,5.464 4.276,5.464 0.443,0 1.68,-0.938 2.749,-2.085 1.317,-1.414 2.9,-1.985 4.914,-1.774 1.634,0.171 3.772,-0.353 4.75,-1.165 1.22,-1.011 3.46,-1.368 7.115,-1.134 4.898,0.313 5.413,0.139 6.273,-2.124 0.528,-1.39 2.059,-2.746 3.51,-3.11 2.417,-0.607 3.676,-2.608 1.64,-2.608 -0.513,0 -1.218,-0.9 -1.567,-2 -0.791,-2.492 -1.687,-2.532 -3.178,-0.143 m -539.822,34.143 c 0.995,1.1 2.035,2 2.31,2 0.275,0 -0.315,-0.9 -1.31,-2 -0.995,-1.1 -2.035,-2 -2.31,-2 -0.275,0 0.315,0.9 1.31,2 m 427.909,8.376 c -0.361,0.941 -0.368,1.998 -0.016,2.35 0.352,0.353 1.173,0.108 1.824,-0.543 0.902,-0.902 0.905,-1.461 0.016,-2.35 -0.89,-0.89 -1.324,-0.761 -1.824,0.543 m -149.409,72.624 c 0,1.949 1.061,2.606 2.264,1.402 0.802,-0.801 -0.247,-3.402 -1.371,-3.402 -0.491,0 -0.893,0.9 -0.893,2 m -10.03,14.055 c -0.605,1.131 -0.918,2.593 -0.696,3.25 0.222,0.657 1.163,-0.267 2.09,-2.055 0.928,-1.788 1.242,-3.25 0.697,-3.25 -0.545,0 -1.486,0.925 -2.091,2.055"
     stroke="none"
     fill="#000000"
     fill-rule="evenodd"
     id="path2" />
</svg>
