<?xml version="1.0" encoding="UTF-8" standalone="no"?>
<!-- Generator: Adobe Illustrator 26.0.0, SVG Export Plug-In . SVG Version: 6.00 Build 0)  -->

<svg
   version="1.1"
   id="图层_1"
   x="0px"
   y="0px"
   viewBox="0 0 450.52115 342.36343"
   xml:space="preserve"
   width="450.52115"
   height="342.36343"
   xmlns="http://www.w3.org/2000/svg"
   xmlns:svg="http://www.w3.org/2000/svg"><defs
   id="defs11" />
<g
   id="g6"
   transform="translate(-18.899619,-123.98484)">
	<g
   id="g4">
		<path
   d="m 162.4,447 c -0.3,-9.2 -7.7,-12.1 -13.9,-15.7 -4.5,-2.6 -7.4,-5.9 -7.8,-11.1 -0.1,-1.8 -0.6,-4 1.7,-4.8 2.2,-0.8 3.3,1.1 4.3,2.6 3.1,4.9 5.9,10 12.2,11.8 4.3,1.2 6.5,0.1 9.7,-3.6 6.2,-7.1 7.3,-12.9 0.8,-20 -2.6,-2.9 -2.1,-9.5 -7.6,-8.8 -7.7,0.9 -16.6,-1.1 -22.2,7.3 -4.9,7.4 -11.7,13.4 -18.2,19.4 -4.5,4.2 -10.2,6.3 -16.7,6 -6.2,-0.3 -12,1.3 -17.3,4.7 -1.8,1.1 -4.6,3.2 -6.1,0.1 -1.3,-2.6 1.2,-4.3 3.3,-5.5 4.7,-2.6 9.7,-3.9 15,-4.9 11.4,-2.2 21.9,-6.1 27.9,-17.1 1,-1.8 2.8,-3.6 1.8,-5.8 -1.2,-2.4 -3.8,-1.5 -5.7,-1.3 -7.7,1.1 -15.9,-0.1 -22.1,6.6 -1.6,1.7 -4.9,2.7 -7.3,2.6 -15.9,-0.8 -32.3,2.4 -47.5,-5.3 -3.7,-1.9 -7.8,-3.2 -11.7,-4.8 -2.2,-0.9 -5.1,-1.5 -3.8,-4.8 1.2,-2.9 3.9,-3.5 6.7,-2.3 2.4,1 4.7,2.5 7.1,3.5 8.6,3.5 17.4,6.4 26.9,5.1 5.9,-0.8 11.5,1.2 17,2.9 2.1,0.6 5.3,1.3 6.1,-1.7 0.7,-2.6 -2.2,-3.1 -4.2,-3.8 -4.1,-1.3 -7.8,-2.9 -10,-7.1 -1,-1.9 -3.4,-2.3 -5.5,-2.7 C 57.5,386 44.5,375.2 33.2,362 c -2.8,-3.3 -6.1,-5.9 -10,-7.5 -3.5,-1.5 -5.6,-3.8 -3.4,-7.3 2.3,-3.7 5.2,-0.9 7.5,0.5 5.4,3.3 11.3,6.1 15.1,11.4 6.8,9.7 18.6,12.9 26.4,21.1 0.9,1 2.4,1.4 3.6,0.5 1.2,-0.9 1.1,-2.3 0.6,-3.6 -1.2,-3.7 -3.3,-6.5 -6.6,-8.6 -1.9,-1.2 -4.5,-2.9 -2.9,-5.7 1.8,-3.1 4.8,-1.7 7,-0.6 6.7,3.3 12.9,6.8 14,15.7 0.8,6.9 11.7,15 19.6,14.8 7.2,-0.2 14.8,0.1 21.4,-4.3 5.2,-3.5 10.6,-4.6 16.1,-0.3 2.4,1.9 5.4,2.2 8.3,1.7 2.5,-0.4 5.5,-0.3 6.2,-3.7 0.5,-2.8 0,-5.2 -2.2,-7.2 -10.3,-8.9 -22.7,-10.4 -35.6,-10.3 -3.4,0 -4.9,2.7 -6.5,5.2 -1.4,2.2 -3,4.4 -4.8,6.3 -1.9,2.1 -4.4,3.3 -6.9,1 -2.6,-2.4 -1.3,-4.6 0.3,-7 1.9,-2.7 7,-4.2 5.5,-7.9 -1.8,-4.4 -6.1,-0.5 -9.3,-0.6 -12.3,-0.4 -20.9,-7.6 -29.1,-15.2 -3.1,-2.9 -5.9,-5.9 -10.1,-7.3 -9.5,-3.2 -16.8,-9.9 -24.4,-15.9 -1.4,-1.1 -2.3,-2.9 -3.2,-4.5 -1.4,-2.6 -3.1,-5.7 0.1,-7.7 3.3,-2.1 5.3,0.7 7,3.1 5.8,8.5 14.3,12.9 23.4,16.8 7.7,3.4 15,7.6 19.7,15.2 3.7,5.9 10.6,5.3 16.2,6.8 1.8,0.5 2.8,-1.5 1.9,-3.2 -2.7,-5 -3.9,-11 -10.2,-13.5 -5.1,-2.1 -9.9,-4.9 -14.9,-7.2 -3.3,-1.5 -5.3,-3.5 -4,-7.4 0.6,-1.8 1.6,-3.7 0,-5.2 C 58.4,310 55.1,292.4 38.1,288 c -1.6,-0.4 -4.2,-1 -3.5,-3.5 0.7,-2.5 3.3,-2.4 5.4,-2.1 7.9,1.3 13.4,4.1 19.1,11.4 8.1,10.5 17.1,21.1 27.6,29.8 0.4,0.3 0.9,0.6 1.4,0.7 3.7,0.9 8.2,5 10.9,1.9 2.8,-3.3 -2.2,-6.8 -3.9,-10.2 C 90.8,307 84,301.4 74.8,296.9 59.7,289.4 50,275.1 39.1,262.7 c -1.4,-1.6 -2.6,-3.6 -0.4,-5.6 2.1,-2 3.7,-0.4 5.5,0.9 5.1,3.4 9.7,7.1 12.6,12.8 5.4,10.9 15.5,15.9 26.3,21 1.1,-5.3 -0.6,-9.4 -2.8,-13.3 -8.7,-15.4 -19,-29.8 -29.2,-44.1 -7.8,-11 -9.1,-23.9 -11,-36.6 -0.5,-3.2 0.7,-7.2 5.6,-7 4.1,0.2 4,3.1 4,6.3 0.2,14.9 4.3,28.2 14.5,39.8 6.5,7.4 13.5,15.3 17.7,23.9 6,12.3 14.5,24 15.6,38.5 0.1,1.8 0.7,3.6 1.3,5.4 0.7,2.2 0.5,5.4 3.3,5.8 3.1,0.4 4.2,-2.6 5.4,-4.9 0.5,-0.9 0.8,-2 1.3,-2.9 1.8,-3.5 4.3,-6.8 8.6,-4.3 4.4,2.6 3.6,6.6 0.7,10.2 -1.3,1.6 -3,3 -4.3,4.6 -2.6,3.4 -2.1,6.5 2.4,6.7 8.6,0.5 13,8.1 20.2,10.7 0.7,0.3 1.1,1.1 1.8,1.5 3.2,2.1 6.6,6.4 10.4,3.5 4.2,-3.1 1.4,-8 -0.6,-11.5 -3.5,-6.3 -6.5,-12.6 -8.4,-19.6 -2.4,-9 -11.8,-11.5 -17,-18 -6.4,-8 -14.7,-12.6 -24.6,-15.6 -8,-2.5 -8.1,-7.1 -1.4,-11.2 2.6,-1.6 2.2,-3.3 1.5,-5.3 -4.3,-11.4 -8.2,-22.6 -4.6,-35.2 0.9,-3.3 -1.7,-7.6 -2.8,-11.4 -3.3,-11.7 2.7,-27.6 12.3,-33.3 2.5,-1.5 4.3,-1.8 6.5,-0.3 2.5,1.7 1.9,4 0.6,6.3 -1.3,2.3 -2,5.1 -3.6,7 -9,10.3 -3,21 -1.1,31.5 0.5,2.5 3.3,4.2 4.6,2.7 4.2,-4.9 10.6,-1.2 15.1,-4.5 3.3,-2.5 5.6,-0.3 6.4,3 1,4.3 3.4,7.7 5.9,11.1 0.9,1.2 2.2,2.7 3.9,1.4 1.3,-1 0.4,-2.4 -0.1,-3.6 -3.2,-8.4 -6,-16.9 -9.7,-25 -3.8,-8.4 -3.7,-16.4 0.2,-24.4 5.2,-10.5 10.8,-20.8 16.2,-31.2 1,-2 2.7,-2.4 4.7,-2.3 2.3,0.2 4.1,1.4 4.7,3.6 2,7.6 6.4,15 1.9,23.3 -0.9,1.6 -1.1,4.9 0,6.1 6.6,7.6 8.1,18.2 15.4,25.2 4.1,3.9 13.5,2.8 19.2,-2.3 4.6,-4.1 5.8,-10 1.9,-14.2 -5.3,-5.6 -9.7,-9.1 -8.4,-19.1 0.9,-6.5 -6.1,-16.1 -13.8,-21 -5.8,-3.7 -9,-9.5 -13.5,-14.3 -3.2,-3.4 -1.4,-5 1,-7.7 3.6,-3.9 4.5,-0.6 6.3,1.4 2.9,3.1 6.4,5.6 8.9,9 2.5,3.5 4.6,4.4 8.4,1.9 5.1,-3.4 8.7,0.5 8,4.4 -2.4,12.7 7.1,20.9 10.5,31.4 3.2,10.2 8.4,19.7 2.6,30.9 -3.6,6.9 -9,9.9 -15.7,10.1 -7.9,0.1 -9.2,3.1 -8.1,10.3 1.4,9.4 3.4,18.7 5.3,27.9 0.5,2.4 0.7,4.9 3.7,5.3 3.4,0.5 4.6,-2 5.5,-4.5 5.8,-15.8 12.1,-31.5 17.1,-47.6 4.1,-13.2 12.2,-23.1 22,-32 2.7,-2.5 5.5,-5 8.5,-7.1 6.9,-4.7 7.4,-10.3 2.9,-16.9 -0.7,-1.1 -1.4,-2.3 -1.8,-3.5 -1.1,-2.6 -0.4,-4.8 2.2,-5.9 2.5,-1.1 4.4,0.5 4.9,2.6 2.2,9.7 6.1,6.8 12.1,2.9 4.9,-3.1 8.8,-7.2 13.3,-10.5 2.1,-1.6 5.1,-4.1 7.5,-0.5 1.8,2.8 0.9,5.4 -1.9,7.6 -13.9,10.9 -24.6,25.1 -38.9,35.5 -1.9,1.4 -3.3,3.4 -4.7,5.3 -0.9,1.3 -1.6,2.9 -0.6,4.4 1,1.7 2.7,1.3 4.3,0.9 8.9,-2.5 18.7,-0.7 27.3,-5.9 4.6,-2.8 12.4,1 14.7,5.8 0.5,1 0.7,2.1 1.3,2.9 1.7,2.2 3.3,5.8 6.4,4.8 3.2,-1 2.4,-4.6 2.3,-7.6 -0.4,-11.5 -7,-21.6 -7.7,-33.1 -0.2,-3.5 -0.4,-6.2 3.7,-7.5 4.5,-1.4 8.5,-3 7.3,4.6 -1.7,10.5 6.6,18.2 8.1,27.9 1.5,9.8 2.8,19.4 -4.5,27.6 -1.6,1.8 -1.6,3.8 -1.9,5.8 -1.9,11.4 -8,20.1 -16.5,27.9 -10.3,9.6 -17.6,21.6 -23.6,34.3 -2.3,5 -5.9,9.4 -7,15 -0.6,2.9 -1.6,6.1 1.8,7.6 2.9,1.3 5.8,0.3 7.9,-2 7.8,-8.3 16,-16.8 16.3,-29 0.2,-9.8 5.4,-16.3 11.1,-22.9 3.8,-4.4 7.9,-8.5 10.9,-13.6 1.7,-2.9 4.2,-4.3 7.3,-3.2 3.9,1.4 2.4,4.8 2,7.5 -0.9,5.7 -5.5,9 -9.2,12.5 -5.2,4.7 -7.9,10.3 -9.5,16.9 -3.5,14.3 -10,27.1 -19.9,38.1 -2.1,2.3 -4.6,4.8 -7.4,5.8 -11.5,4.2 -11,14.4 -12.3,23.5 -0.6,4.2 0.8,5.5 5.5,3.3 10.7,-5 14.4,-15.6 18.7,-24.7 7,-14.5 17.8,-26 27,-38.8 2,-2.8 3.6,-5.7 5.2,-8.8 7.1,-13.9 10.4,-29.3 19.4,-42.5 7.1,-10.3 5.2,-22.5 1.3,-33.4 -3.1,-8.7 -2,-17 -1.4,-25.5 0.2,-3.5 3.1,-5.4 6.3,-6.4 2.4,-0.8 5.1,-0.3 6.5,1.7 2.1,2.9 0.1,5.6 -0.7,8.7 -2.1,7.8 -1.3,15.9 2,23.4 1,2.3 3.5,3.6 5.7,0.8 3.6,-4.5 6.1,-0.9 8.3,1.3 3.3,3.3 -0.2,5.2 -2.4,6.7 -8.3,5.7 -9.7,15.4 -13.5,23.5 -3.3,7 -7.4,13.5 -11.6,19.7 -3.9,5.9 -4.9,12.1 -6.5,18.4 -1.3,5.4 2.2,7.8 6,5.3 13.5,-8.8 30.3,-7.7 44.1,-15.4 7.5,-4.2 13.1,-9.9 11.5,-19.6 -0.2,-1.3 0,-2.6 0.1,-4 0.2,-3.6 2.6,-5.2 5.8,-5.2 3.1,0 3.4,2.7 3.7,5.2 2.1,17.3 -4.4,28.6 -21.2,33.9 -8.8,2.8 -13.9,9.3 -19.9,15 -1.2,1.2 -2.1,3.2 -2.3,4.9 -0.6,4.1 -1.6,9.5 2,11.8 4.3,2.7 8.3,-0.9 11.6,-4.3 4.7,-4.7 8.2,-10.3 12.3,-15.5 2.3,-2.9 5.1,-6.1 9.2,-2.6 3.8,3.2 1.2,6 -1,8.8 -8.7,10.8 -19.1,19.3 -32.8,23 -1.5,0.4 -3.1,0.9 -4.4,1.7 -2.8,1.7 -5.4,4.2 -4.4,7.7 1.1,3.7 4.8,2.6 7.5,2.5 16.8,-0.4 28.5,-10.9 40.8,-20.4 10.3,-8.1 18.6,-17.1 18.2,-31.3 -0.1,-4.2 0.5,-8.5 0.1,-12.7 -0.7,-7.6 -0.4,-15.2 -0.3,-22.8 0,-2.9 -0.5,-5.4 3.3,-5.8 3,-0.3 6,-0.2 7.3,3.2 0.9,2.5 1.5,5 0.6,7.7 -1.5,4.4 -0.3,8.7 0.5,13.1 3.2,17.6 3.4,34.5 -12.1,47.4 -2,1.7 -5.5,4 -3.8,7.1 2,3.7 5.8,1.5 8.5,0.4 12,-4.8 23.9,-9.9 35.9,-14.9 4.5,-1.9 6.7,-5.8 8.7,-9.8 2,-4.1 5.2,-7 9.4,-4.5 4.2,2.5 2.3,7.7 0.4,10.5 -4,5.7 -9.4,9.5 -16.1,12.9 -14.1,7.3 -29.9,8.6 -44.1,14.7 -4.9,2.1 -10.4,3.9 -15.9,0.2 -1.9,-1.3 -3.9,-0.2 -5.8,1.2 -8.7,6.3 -11.6,16.6 -17.7,24.7 -2.3,3 -0.3,5.3 3.3,4.4 6.3,-1.7 13.1,-2 18.8,-5.9 18.3,-12.5 38.4,-19.7 60.5,-21 3.6,-0.2 7.2,-1.5 10.9,-2.2 1.9,-0.4 3.9,-0.5 4.7,1.8 0.7,2.1 -0.8,3.4 -2.4,4.5 -3,2 -6.6,2.1 -10,2.2 -12,0.4 -22.5,6.9 -34.2,8.6 -1.7,0.2 -3.9,1.1 -3.8,3.4 0.2,2.4 2.4,2.4 4.2,2.9 3,0.9 6.1,1.6 9.1,2.6 1.5,0.5 3.2,1.3 2.9,3.2 -0.3,2 -2.3,1.8 -3.9,1.8 -1.6,0 -3.5,0.5 -4.7,-0.2 -13.7,-7.5 -25.9,0.3 -38.5,3.7 -7.4,2 -14.5,4.7 -22.4,2.3 -3.1,-1 -6.4,-0.4 -8.5,2.6 -1,1.4 -0.7,3 0.2,4.5 1.9,2.9 4.7,2.9 7.8,2.4 9.4,-1.8 17.9,1.6 25.8,5.6 9.2,4.6 18.3,9.4 28.1,12.6 2.4,0.8 4.7,1.7 3.8,4.9 -0.7,2.4 -3.1,3.4 -5.1,2.7 -5.2,-1.8 -10.5,-0.4 -15.5,-1.3 -4.6,-0.9 -11.1,-0.3 -11.9,-7.9 -0.1,-1 -2.2,-2.1 -3.6,-2.6 -9,-3.4 -17.6,-7.5 -27.8,-2.9 -4.8,2.2 -10.9,1.2 -16.4,2.1 -3,0.5 -6.9,1.1 -6.5,5.4 0.4,3.7 3.5,5.9 6.8,5.2 11.4,-2.3 21.9,6.5 33.4,2.4 2.3,-0.8 5.3,0.5 5.5,3.2 0.3,3.6 -3.1,3.1 -5.2,2.9 -15.7,-1 -31.5,-2.1 -47.2,-3.6 -4.1,-0.4 -6.4,-0.5 -5,4.5 0.8,2.8 0.5,5.3 -2.5,6.7 -3,1.3 -5.5,0.2 -8,-1.8 -1.6,-1.3 -2,-5.3 -5.2,-3.6 -2.6,1.3 -0.4,3.8 -0.1,5.7 0.9,5.7 -2.2,6.7 -6.5,5 -2.3,-0.9 -4.6,-2.8 -6,-4.9 -4.2,-6.3 -9.1,-7.2 -16.7,-6.2 -7.9,1.1 -9.1,5.7 -10.9,11.2 -2,5.9 3.8,6.6 6.4,8.4 15.2,10.8 31.6,9.4 48,2.8 3.4,-1.4 6.3,-3.7 7.5,-7.6 0.9,-2.8 2.9,-5 5.6,-6.4 1.9,-1 4,-1.9 5.9,-0.2 1.8,1.7 0.2,3.4 -0.4,5 -1.1,2.7 -2,5.4 -3.1,8.1 -2.8,6.7 -0.8,10.2 6.6,10 10.3,-0.3 20.2,-3 29.8,-6.5 5.2,-1.9 10.5,-3.5 15.9,-4.8 1.9,-0.4 3.8,-0.3 4.8,1.7 1.1,2.3 0.1,3.9 -1.6,5.5 -4.5,4.2 -10.6,4.7 -15.8,7.1 -2.5,1.2 -6.1,1.4 -2.7,5.7 1.7,2.2 0,4.6 -2,6.1 -2.4,1.7 -5.2,0.9 -6.3,-1.1 -4,-7.1 -10.7,-6.6 -17.3,-6.6 -6.5,0 -12.5,-1.7 -18.5,-4.1 -1.7,-0.7 -3.6,-1.8 -5.1,-1.5 -3.5,0.7 -8.2,0.4 -9.5,4.5 -1.5,4.5 2.4,9.2 5,10.8 9.8,5.9 18.1,14.8 30.2,16.4 8.2,1.1 15.5,0 21.8,-6.3 2.2,-2.2 6.8,-7.1 9.8,-3.1 3.2,4.3 -2,7.3 -5.5,9.7 -5.6,3.8 -10.7,8.4 -17.7,10 -11.8,2.7 -21.3,-3.7 -30.4,-8.6 -6.9,-3.7 -16,-6.6 -18.9,-15.7 -0.1,-0.2 -0.3,-0.4 -0.4,-0.7 -2.8,-4.9 -10.8,-11.5 -15.9,-13.1 -4.1,-1.3 -8.5,-1.7 -10.3,2.7 -1.9,4.7 2.2,7.5 5.9,8.8 9.7,3.4 15.1,10.1 17.4,19.8 0.7,3 1.4,5.8 -2.1,7.5 -3.5,1.7 -6.1,0.9 -7.6,-2.9 -0.8,-2 -2.7,-3 -4.4,-3.1 -11.3,-0.8 -21.9,-6 -33.3,-5.5 -13,0.5 -19.8,-5.4 -20.5,-18.9 -0.6,-12.3 -1.5,-13.5 -11.5,-15.3 -9,-1.6 -13,2.3 -11.1,11.5 1.8,8.4 2.7,16.7 0.2,25 -1.8,6.3 -17.9,12.1 -20,7.1 -3,-7 -9.3,-9.7 -13.4,-14.9 -7.9,-9.8 -8,-9.7 -18.1,-1.5 z M 340.7,281.6 c 0.2,-7.8 -1.4,-9 -8.1,-7.4 -3.3,0.8 -6.6,2.2 -10,2.3 -9.3,0.1 -15,5.9 -20.2,12.3 -5,6 -4,8.6 3.4,10.5 1.7,0.5 4,0.3 3.8,3 -0.2,2 -1.6,3.5 -3.5,3.9 -3.6,0.9 -7.2,0.9 -10.7,-1.1 -3.4,-2 -6.6,-0.1 -6.1,3.2 0.9,5.8 -1.9,8.6 -5.7,11.7 -1.7,1.4 -3.1,4 -1.5,6.4 1.3,2.1 3.8,1.5 5.8,1.3 4,-0.6 7.4,-2.5 10.5,-5.2 4.3,-3.9 8.7,-7.6 13.1,-11.5 2.4,-2.1 4.8,-1.7 7.3,-0.3 1.7,0.9 2.3,2.4 0.9,3.9 -8.7,9 -16,20.3 -29.9,21.7 -12.6,1.3 -23.6,7.2 -35.3,11.1 -2,0.7 -4.2,1.7 -4.1,4.2 0.1,2.9 2.4,4.1 4.8,4.4 3.4,0.5 6.8,0.4 10.3,0.6 1.9,0.2 3.9,0.7 4.3,2.8 0.5,2.6 -1.4,3.9 -3.5,4.6 -4.1,1.4 -8.3,1.1 -12.5,0.1 -3.7,-0.9 -7,-0.8 -8.8,3.1 -1.9,4.1 -3.7,8.2 -4.8,12.5 -1.2,4.7 1.1,6.5 6,6.4 14.4,-0.4 24.1,-7.8 31.2,-19.6 2.5,-4.2 5.3,-8.1 9,-11.7 6.6,-6.5 14.5,-11.1 21.4,-16.9 8.3,-6.9 14.7,-16.2 21,-25.2 7,-9.4 9.6,-20.9 11.9,-31.1 z m -139.2,74.6 c -0.1,3.8 0.2,8.3 2.3,11.9 5.3,9.3 6.5,19.3 7.3,29.6 0.2,2.8 -0.6,6.4 3.3,7.2 4,0.8 6.6,-1.8 8,-5.1 2.2,-5.4 4.2,-10.8 6.1,-16.3 1.9,-5.2 5.6,-10.8 4.8,-15.6 -0.9,-5.7 -8.9,-6.5 -13.2,-10.2 -0.4,-0.3 -0.9,-0.6 -1.3,-0.9 -2.1,-1.5 -3.8,-3.4 -1.8,-5.9 2,-2.5 4.6,-2.6 6.9,-0.4 1.9,1.9 3.9,3.5 6.3,4.7 3.8,1.8 6.7,1.9 7.4,-3.2 1.7,-11.7 6.1,-23.4 4.2,-35.2 -1.9,-12.2 0.2,-23.5 3.2,-35 1.9,-7.4 -0.6,-10.1 -8.3,-9.8 -7.1,0.2 -24.8,14.1 -26.8,21.1 -0.8,2.9 -0.8,5.8 0.4,8.5 1.4,3.4 3.1,6.7 4.6,10 2.5,5.7 4.9,11.3 12.3,4.8 1.7,-1.5 4.8,-1.6 6.3,0.9 1.7,2.8 -0.9,4.2 -2.7,5.6 -0.8,0.6 -1.8,1.2 -2.8,1.6 -11.9,4.6 -17,16.1 -25.2,24.5 -1.7,1.6 -1.5,4.3 -1.3,7.2 z M 250,261.1 c -0.7,2.7 -1.2,5.8 2.3,6.5 3.5,0.8 4.2,-2.7 4.9,-5.1 3,-9.9 7.9,-18 16.8,-24 8.7,-5.9 11.7,-15.7 14.4,-25.5 1.9,-7.1 -6.3,-7 -7.4,-11.8 -0.2,-1 -1,-1.9 -1.2,-2.9 -1.3,-6.7 -5.2,-7.1 -10.4,-4.3 -17.3,9.6 -31.6,21.9 -38.1,41.4 -3.8,11.5 -4.5,24.7 -17.2,31.3 -0.7,0.4 -1.3,1.9 -1.2,2.6 0.4,1.7 2,1.3 3.3,1.2 5.5,-0.4 20.2,-11.7 21.5,-16.8 0.7,-2.7 1.2,-5.4 4.4,-5.7 3.2,-0.3 4.4,2.5 5.6,4.8 1.2,2.8 3.1,5.2 2.3,8.3 z m -137.5,-17 c 1.6,0.3 3.8,0.2 5.7,1 2,0.9 3,3 3,5.2 0,1.9 -1.7,2.4 -3.2,3 -7.1,3 -7.5,5.1 -2,10.4 3.6,3.5 7.3,6.8 10.9,10.4 2,2 4.3,3.3 7.1,2.6 5.4,-1.2 8.2,1.7 9.4,6.1 1.4,5 4.6,7.8 8.7,10.7 8.5,5.8 15.8,12.4 18.2,23.6 2.2,10.5 6.8,20.5 10.2,30.7 1.6,4.7 4,10.2 9.6,8.1 5.1,-1.9 1.9,-7.7 0.7,-11.2 -4.3,-13.3 -10,-26.1 -10.6,-40.4 -0.1,-3.3 -3,-4.5 -5.3,-6.3 -9.5,-7.4 -20.9,-14.2 -22.4,-27.3 -1.6,-14.3 -12.6,-22.3 -18.9,-33.5 -1.9,-3.3 -5.6,-5.5 -8.3,-8.4 -1.1,-1.2 -1.7,-2.4 -3.8,-1.6 -4,1.4 -8,2.5 -12.1,3.7 -4.6,1.3 -5.3,4.6 -4.7,8.7 0.7,4.4 3.2,5.8 7.8,4.5 z M 140,190.6 c 0.7,3.2 1.7,6.7 2.4,10.3 4.3,21.9 17.3,41.3 19.2,64 0.5,6 4,11.4 7.2,16.5 2,3.2 4.8,7.7 9.2,6 4.3,-1.6 2.4,-6.5 2,-9.9 -2.4,-21.9 -6.5,-43.5 -14.6,-64.1 -4.2,-10.7 -10,-20.8 -15.1,-31.1 -1,-1.9 -2.5,-3.6 -4.9,-3.5 -2.9,0.2 -3.7,2.6 -4.2,5 -0.4,2.2 -0.7,4.3 -1.2,6.8 z m -31.6,138.2 c -2.9,-0.4 -3.5,0.7 -4.3,2.4 -4.6,10.3 2,23.1 14.7,25.2 13.7,2.2 26.7,5.5 38.4,13 1.3,0.8 3,1.6 4.4,0.3 1.8,-1.6 0.7,-3.3 -0.2,-5 -4.6,-8.8 -9.7,-16.6 -20.4,-19.4 -4.9,-1.3 -9.3,-4.8 -13.7,-7.6 -6.1,-4.1 -14,-4.3 -18.9,-8.9 z m 47.2,-20 c -2.7,3.4 -1.3,6.3 -0.3,9.2 1.7,5 4.3,9.8 5,15 3.3,24 17.6,41.6 32.9,58.8 1,1.2 2.2,2.6 4,2.1 1.8,-0.6 2,-2.4 1.8,-3.9 -1.4,-9.4 -2.7,-19.3 -12.5,-24 -12.7,-6.1 -17.6,-16.5 -19.1,-29.6 -1.1,-10.3 -3.4,-20.1 -11.8,-27.6 z m 89.9,121.9 c -0.3,1.8 -0.6,2.6 -0.5,3.4 0.5,4 1.7,8.2 5.6,9.6 5.1,1.8 3.8,-3.6 5.2,-5.9 1,-1.6 2.1,-3.1 4.2,-3.2 2.4,0 3.9,1.4 4.6,3.6 0.5,1.7 0.3,3.7 1,5.4 1.7,4.4 5.5,3.4 8.7,2.6 2.1,-0.5 4.4,-2.5 1.9,-4.5 -5.3,-4.4 -4.9,-10.7 -6.5,-16.4 -2.6,-9.6 -11.6,-12 -20,-7.4 -7,4 -4.9,8.7 -4.2,12.8 z M 344,335.1 c -0.5,1.7 -1.6,3.7 0.7,4.8 2.3,1.1 4.2,-0.2 5.6,-1.8 3.4,-3.7 6.6,-7.5 10,-11.2 1.4,-1.6 3,-3.3 1.9,-5.5 -1.5,-3 -4.1,-1.4 -6.3,-1 -4.9,0.9 -9.4,3.6 -14.6,3.2 -4.8,-0.4 -8.3,1.8 -12,4.8 -5.5,4.4 -8.3,11.7 -15.5,14.3 -1.7,0.6 -2.5,2.7 -1.8,4.7 0.5,1.7 2,2.3 3.6,2.6 4.3,0.8 7.6,0 9.9,-4.3 2.5,-4.6 5.7,-8.8 8.6,-13.2 2.1,-3.2 5.3,-3.3 8.5,-2.5 3,0.8 1.9,3.1 1.4,5.1 z m -35.9,22 c -6,-0.9 -9.8,1.1 -12.5,5.2 -1.7,2.7 -3.5,5.2 -6,7.3 -1.3,1.1 -3.5,2.2 -2.6,4.4 1,2.2 3.5,2.4 5.5,2.4 6.3,0.1 11.7,-2.8 17.1,-5.6 4.3,-2.3 11.3,-4 10.4,-9.2 -0.9,-5.5 -8.5,-2.8 -11.9,-4.5 z m -98.9,-32.3 c 0.7,-6.1 -2.4,-10.7 -6,-15 -2,-2.3 -4.5,-3.6 -7.7,-2.1 -3.3,1.6 -3.3,4.1 -2.5,7.3 1.4,5.3 2.3,10.7 3.6,16.1 0.6,2.8 -1.4,7.3 2.9,7.9 4.1,0.6 6.4,-3.2 7.8,-6.6 1,-2.4 1.3,-5.1 1.9,-7.6 z m -6.6,117 c -0.4,-2.5 -0.4,-5 -1.2,-7.1 -0.9,-2.3 -2.3,-4.5 -5.1,-1.4 -5.2,5.8 -10,4.4 -14.5,-1 -1.3,-1.6 -3,-2.4 -4.7,-0.9 -1.7,1.4 -1.5,3.2 -0.2,4.9 5.2,6.4 11.1,11.9 18.3,15.9 2.9,1.6 5.1,0.4 5.9,-2.8 0.7,-2.6 1,-5.2 1.5,-7.6 z m 13.8,-211.4 c 0,1.7 -0.9,4 1.5,4.6 2.2,0.5 4,-0.8 4.8,-3.1 0.9,-2.8 1.6,-5.6 2.7,-8.2 3.3,-7.9 8.1,-14.7 15.2,-19.7 1.5,-1 2.8,-2.6 2.6,-4.6 -0.1,-1.2 -1.3,-2.1 -2.2,-1.8 -5.3,2 -12.6,1.2 -15.4,6.8 -3.8,8.2 -6.1,17.2 -9.2,26 z m 19.7,181.4 c 6.3,-0.1 13.6,-6.2 14.9,-12.2 0.7,-3.2 -0.7,-4.9 -3.7,-4.1 -4.3,1.1 -8.7,2.3 -12.6,4.3 -3.8,2 -3.5,6.2 -3.1,9.8 0.2,2.4 2.6,2.2 4.5,2.2 z"
   id="path2" />
	</g>
</g>
</svg>
