<?xml version="1.0" encoding="UTF-8" standalone="no"?>
<svg
   width="351.41696"
   height="859.87866"
   viewBox="0 0 351.41696 859.87866"
   version="1.1"
   id="svg4"
   xmlns="http://www.w3.org/2000/svg"
   xmlns:svg="http://www.w3.org/2000/svg">
  <defs
     id="defs8" />
  <path
     d="M 12.002946,6.7501038 C 8.7489459,10.456104 4.6989459,16.414104 3.0029459,19.989104 c -3.07599999,6.486 -3.08299999,6.536 -2.96999999,23 0.155,22.876 2.01799999,33.522 8.40199999,48.039 C 18.007946,112.7951 18.853946,114.5051 22.045946,118.5541 c 4.687,5.945 14.258,22.379 15.395,26.435 0.54,1.925 1.258,7.1 1.596,11.5 1.091,14.222 -5.169,42.652 -12.644,57.419 -6.611,13.061 -7.116,15.314 -7.297,32.566 -0.132,12.636 0.206,17.372 1.605,22.449 2.436,8.845 6.664,17.966 8.877,19.15 1.012,0.542 3.978,0.702 6.591,0.357 4.71,-0.623 18.599,1.604 22.277,3.573 3.124,1.672 6.784,6.831 11.43,16.112 5.282,10.552 5.31,10.899 2.541,31.654 -1.837,13.767 -1.882,15.644 -0.547,22.624 1.814,9.481 8.142,21.964 14.394,28.395 2.513,2.586 5.714,7.047 7.113,9.915 3.418,7.007 20.877004,22.947 26.043004,23.778 1.925,0.309 7.1,1.263 11.5,2.121 4.4,0.857 8.878,1.726 9.952,1.932 1.073,0.205 3.938,-0.072 6.366,-0.616 5.574,-1.249 7.818,-0.533 9.693,3.092 2.086,4.033 1.857,6.959 -0.761,9.743 -1.934,2.057 -2.298,3.699 -2.592,11.678 l -0.342,9.284 4.592,5.171 c 5.885,6.626 5.944,9.203 0.449,19.633 -5.162,9.798 -5.449,14.889 -1.381,24.47 4.91,11.562 6.731,19.735 6.125,27.5 -0.774,9.92 -2.817,16.055 -10.654,32 -10.738,21.848 -11.594,27.446 -6.433,42.073 3.125,8.858 3.093,13.933 -0.19,29.927 -2.131,10.378 -2.685,15.924 -2.747,27.5 -0.086,16.154 -1.05,13.026 8.848,28.719 2.418,3.833 3.468,6.886 3.956,11.5 0.365,3.454 0.934,8.788 1.264,11.853 0.809,7.51 -2.849,23.829 -6.247,27.867 -3.598,4.276 -5.15,8.737 -5.94,17.079 -0.915,9.648 -4.798,22.044 -8.155,26.033 -1.449,1.723 -5.135,4.316 -8.191,5.763 -11.062,5.238 -17.123,14.188 -17.097,25.252 0.018,7.759 1.334,10.654 6.318,13.889 l 3.782,2.455 -0.633,6.045 c -0.633,6.036 -0.628,6.051 3.3,9.859 3.518,3.411 4.398,3.782 8.308,3.5 4.271,-0.307 4.442,-0.456 7.253,-6.314 1.618,-3.373 3.096,-8.408 3.374,-11.5 0.42,-4.658 0.149,-5.938 -1.772,-8.363 -1.247,-1.574 -3.625,-3.688 -5.284,-4.697 l -3.017,-1.835 -3.357,2.948 c -1.846,1.621 -4.171,2.947 -5.167,2.947 -4.442,0 -7.374,-7.703 -4.8,-12.612 2.066,-3.939 8.174,-9.553 14.079,-12.942 5.75,-3.299 10.924,-8.237 13.158,-12.555 0.875,-1.693 2.623,-8.998 3.885,-16.235 1.728,-9.915 3.404,-15.759 6.803,-23.722 5.52,-12.931 6.818,-18.706 6.83,-30.387 0.014,-12.777 -2.435,-24.387 -7.391,-35.047 l -4.184,-9 0.187,-14 c 0.102,-7.7 0.741,-17.825 1.419,-22.5 1.716,-11.824 1.516,-23.376 -0.526,-30.5 -4.155,-14.492 -4.603,-11.329 4.257,-30.081 11.217,-23.742 12.676,-28.883 12.608,-44.419 -0.057,-12.734 -0.078,-12.848 -6.599,-35.587 -1.117,-3.895 -0.952,-4.559 3.491,-14.064 2.565,-5.487 4.663,-10.491 4.663,-11.12 0,-0.629 4.23,-3.174 9.399,-5.655 11.446,-5.494 13.371,-8.023 14.725,-19.355 1.236,-10.336 2.153,-12.277 8.083,-17.101 5.513,-4.485 5.414,-4.462 17.793,-4.169 l 8.5,0.201 5.5,-4.155 c 7.807,-5.899 10.265,-6.995 15.7,-6.999 11.305,-0.009 18.747,-9.384 27.294,-34.387 2.06,-6.029 3.321,-8.218 5.339,-9.275 3.11,-1.63 3.391,-2.724 4.031,-15.673 0.486,-9.835 1.923,-13.661 5.13,-13.661 1.559,0 3.1,-3.52 5.562,-12.71 3.242,-12.095 4.204,-13.713 10.837,-18.217 3.591,-2.439 7.006,-5.751 8.343,-8.093 2.231,-3.908 4.053,-4.939 5.264,-2.98 0.772,1.249 6.184,1.321 6.943,0.092 0.309,-0.5 1.432,-7.42 2.495,-15.379 1.064,-7.959 2.675,-16.213 3.58,-18.342 1.754,-4.122 2.25,-12.748 1.044,-18.144 -0.541,-2.421 -1.703,-3.769 -4.468,-5.179 -2.056,-1.049 -5.361,-3.889 -7.347,-6.311 -3.388,-4.136 -3.552,-4.657 -2.684,-8.522 1.027,-4.569 2.887,-33.281 2.233,-34.465 -0.228,-0.413 -0.987,-0.75 -1.687,-0.75 -1.662,0 -5.579,16.969 -5.699,24.688 -0.087,5.608 -0.126,5.689 -1.097,2.312 -0.948,-3.293 -0.79,-7.631 0.771,-21.206 0.598,-5.199 0.372,-6.21 -2.541,-11.373 -2.351,-4.164 -3.026,-6.362 -2.549,-8.293 1.032,-4.179 5.39,-7.952 11.105,-9.614 5.042,-1.466 11.401,-5.698 11.401,-7.589 0,-0.494 3.599,-5.741 7.997,-11.661 4.398,-5.92 7.998,-11.326 8,-12.014 0.006,-2.447 -2.412,-1.171 -8.527,4.5 -11.8,10.943 -29.759,23.25 -33.929,23.25 -1.153,0 -3.079,0.688 -4.28,1.529 -4.112,2.881 -5.628,14.426 -2.623,19.971 3.85,7.103 4.996,13.037 4.013,20.786 -0.87,6.865 -0.709,8.158 2.266,18.246 1.967,6.669 2.961,11.818 2.577,13.348 -0.344,1.37 -0.993,6.57 -1.444,11.555 -0.736,8.154 -1.272,9.869 -5.339,17.065 -5.629,9.962 -9.328,14.47 -12.889,15.712 -3.366,1.173 -4.318,5.015 -3.566,14.384 0.282,3.522 0.222,6.404 -0.134,6.404 -0.357,0 -4.242,3.178 -8.635,7.062 -5.522,4.883 -11.071,8.586 -17.98,12 -5.496,2.716 -10.286,4.938 -10.644,4.938 -0.358,0 0.427,-3.392 1.743,-7.538 1.317,-4.146 2.394,-8.684 2.394,-10.083 0,-3.79 3.918,-18.536 5.627,-21.182 0.96,-1.485 2.267,-2.195 3.681,-2 1.884,0.26 2.503,-0.61 4.407,-6.197 1.304,-3.83 2.229,-9.014 2.25,-12.619 0.045,-7.864 2.385,-21.223 5.059,-28.881 1.518,-4.349 2.196,-9.164 2.464,-17.5 0.203,-6.325 0.848,-13.908 1.434,-16.852 1.309,-6.579 0.749,-9.097 -3.621,-16.267 -3.654,-5.998 -7.301,-18.552 -7.301,-25.136 0,-3.133 0.726,-4.806 3.34,-7.7 1.837,-2.033 5.55,-7.909 8.25,-13.056 5.357,-10.212 14.382,-20.113 25.716,-28.213 12.397,-8.859 14.202,-10.423 14.514,-12.571 0.445,-3.074 -0.853,-2.787 -7.858,1.741 -3.358,2.17 -7.761,4.475 -9.784,5.121 -2.023,0.647 -6.742,2.766 -10.487,4.709 -5.182,2.689 -7.26,4.42 -8.702,7.245 -2.646,5.186 -6.499,9.546 -11.445,12.949 -3.422,2.354 -5.232,4.918 -9.52,13.483 -5.114,10.213 -5.276,10.79 -4.725,16.812 0.314,3.429 1.702,8.947 3.085,12.261 1.383,3.314 2.819,8.999 3.191,12.634 0.601,5.865 0.377,7.269 -1.995,12.474 -1.47,3.226 -4.452,7.502 -6.627,9.5 -4.587,4.218 -4.885,6.492 -2.491,19.006 1.132,5.914 1.229,9.077 0.428,14 -0.569,3.498 -0.889,13.177 -0.712,21.51 l 0.322,15.149 -4.68,4.124 c -2.825,2.489 -5.152,5.601 -5.87,7.851 -0.655,2.049 -3.611,9.681 -6.57,16.96 -4.748,11.679 -5.38,14.063 -5.38,20.289 0,6.85 -0.115,7.177 -3.975,11.266 l -3.975,4.211 0.008,-4.5 c 0.007,-4.331 1.135,-8.142 5.921,-20 3.027,-7.498 4.658,-29.633 2.37,-32.164 -1.346,-1.49 -1.24,-2.395 1.005,-8.619 4.814,-13.345 5.961,-24.816 5.475,-54.717 -0.045,-2.75 0.026,-8.15 0.158,-12 0.176,-5.157 -0.35,-8.681 -1.998,-13.384 -2.561,-7.307 -2.368,-12.39 1.064,-28.117 1.354,-6.204 1.807,-10.75 1.364,-13.702 -0.364,-2.43 -0.782,-12.378 -0.928,-22.107 -0.454,-30.154 -2.246,-67.430996 -3.516,-73.110996 -0.895,-4.003 -2.313,-6.617 -5.425,-10 -2.318,-2.518 -7.637,-9.135 -11.822,-14.703 l -7.608,-10.124 -9.588,-3.715 c -5.273,-2.043 -10.877,-4.8 -12.453,-6.126 -2.01,-1.691 -4.091,-2.411 -6.971,-2.411 -4.424,0 -4.496,0.113 -4.171,6.504 0.159,3.124 -0.507,4.986 -3.029,8.467 -4.331,5.978 -5.91,11.731 -5.886,21.438 0.021,8.265 1.396,20.341 2.436,21.38 1.684,1.685 2.233,-2.335 1.532,-11.221 -0.934,-11.842 0.012,-15.85 5.872,-24.874 2.212,-3.407 4.486,-7.43 5.054,-8.94 l 1.033,-2.745 6.777,3.603 c 8.49,4.514 13.17,9.558 20.963,22.597 5.536,9.262 6.307,11.24 7.716,19.791 0.861,5.225 1.573,11.975 1.583,15 0.068,20.893996 -0.837,44.508996 -1.917,49.999996 -0.85,4.323 -1.058,9.868 -0.62,16.556 0.485,7.398 0.248,12.023 -0.894,17.5 -2.48,11.886 -2.057,20.503 1.533,31.223 2.82,8.422 3.037,9.986 2.505,18.05 -0.32,4.857 -0.926,9.443 -1.345,10.193 -0.507,0.905 -4.038,-4.635 -10.517,-16.503 -10.243,-18.762 -12.324,-24.859 -11.154,-32.677 0.862,-5.759 -0.255,-9.905 -3.737,-13.871 -1.632,-1.86 -4.235,-5.989 -5.784,-9.176 -3.189,-6.564 -5.264,-8.706 -11.898,-12.283 -2.562,-1.382 -5.102,-3.525 -5.645,-4.762 -1.363,-3.107 -2.513,-2.816 -2.513,0.637 0,2.262 1.931,4.927 8.925,12.318 11.27,11.907 12.546,15.636 11.52,33.648 l -0.664,11.647 4.022,7.549 c 2.212,4.152 5.458,11.802 7.213,17 4.423,13.096 5.483,14.842 10.308,16.976 2.3,1.018 5.531,3.263 7.179,4.991 l 2.997,3.141 -2.452,1.995 c -1.349,1.098 -5.468,3.757 -9.155,5.91 -7.98,4.661 -14.417,11.586 -15.339,16.504 -0.364,1.94 -0.37,5.477 -0.013,7.859 0.542,3.612 0.23,4.973 -1.879,8.203 -2.364,3.622 -2.572,4.97 -3.207,20.872 -0.628,15.706 -0.519,17.473 1.433,23.218 2.983,8.782 2.733,16.684 -0.977,30.925 -4.519,17.349 -4.82,19.076 -4.862,27.857 -0.04,8.501 0.819,12.876 4.152,21.136 1.34,3.322 1.837,6.075 1.406,7.793 -1.535,6.117 -7.607,3.188 -7.607,-3.67 0,-2.162 -0.768,-6.811 -1.706,-10.332 -1.406,-5.276 -1.493,-6.987 -0.5,-9.735 0.663,-1.834 1.206,-4.683 1.206,-6.331 0,-1.649 0.721,-5.425 1.602,-8.392 1.213,-4.085 1.673,-10.866 1.896,-27.932 0.162,-12.395 0.627,-27.545 1.033,-33.666 0.695,-10.48 0.583,-11.58 -1.925,-18.843 -2.383,-6.901 -2.597,-8.626 -2.029,-16.371 0.577,-7.86 0.388,-9.301 -2.058,-15.657 -4.862,-12.638 -5.637,-15.873 -6.488,-27.107 -0.776,-10.244 -1.153,-11.694 -4.852,-18.675 -2.724,-5.142 -4.39,-9.926 -5.196,-14.922 -1.291,-8.006 -4.775,-14.386 -9.009,-16.496 -5.689,-2.837 -6.218,-6.826 -2.461,-18.588 2.974,-9.314 3.054,-11.27 0.622,-15.259 -1.022,-1.676 -2.177,-6.021 -2.566,-9.656 -0.39,-3.634 -1.352,-8.747 -2.138,-11.362 -0.787,-2.614 -1.434,-6.369 -1.437,-8.344 -0.009,-5.991 -1.817,-10.608 -6.026,-15.39 -4.887,-5.552 -6.553,-9.374 -7.496,-17.201 -0.397,-3.3 -1.15,-6.821996 -1.673,-7.825996 -1.281,-2.46 -11.416,-12.468 -16.332,-16.126 -2.182,-1.624 -8.071,-6.799 -13.088004,-11.5 -5.016,-4.702 -12.167,-11.229 -15.892,-14.505 -4.523,-3.98 -7.542,-7.621 -9.093,-10.969 l -2.322,-5.012 1.956,-3.031 c 6.028,-9.339 5.741,-14.17 -1.167,-19.641 -3.766,-2.983 -4.039,-3.524 -3.565,-7.0600002 0.552,-4.114 -0.225,-4.758 -2.725,-2.259 -2.161,2.162 -1.987,3.8570002 1.061,10.2990002 2.454,5.188 2.577,6.103 1.82,13.596 -0.446,4.419 -0.802,10.059 -0.791,12.534 0.04,8.749 6.06,18.114 22.992,35.765 8.612004,8.977 10.261004,10.263 13.145004,10.25 3.684,-0.017 6.421,2.47 10.937,9.938 2.149,3.553996 2.718,5.792996 2.816,11.084996 0.109,5.857 0.581,7.374 4.036,12.969 3.844,6.225 3.91,6.495 3.768,15.415 -0.08,4.993 -0.458,11.155 -0.84,13.693 -0.66,4.386 -0.513,4.791 2.983,8.186 4.225,4.103 4.211,4.264 -1.264,15.191 -2.465,4.921 -3.65,8.824 -3.999,13.172 l -0.496,6.179 5.347,5.655 5.347,5.654 -0.212,9.674 c -0.169,7.713 0.207,10.789 1.857,15.174 3.81,10.131 7.928,24.249 11.036,37.839 l 3.082,13.477 -1.153,26.092 c -0.633,14.351 -1.392,28.895 -1.685,32.32 -0.572,6.675 1.182,13.94 4.825,19.987 3.095,5.137 3.882,9.136 3.874,19.692 -0.006,9.094 0.238,10.365 2.983,15.5 1.645,3.076 5.021,8.293 7.502,11.593 4.761,6.332 7.493,13.498 7.406,19.432 -0.049,3.346 -0.199,3.174 -2.408,-2.776 -1.296,-3.489 -3.805,-8.146 -5.575,-10.349 -1.771,-2.203 -4.053,-6.774 -5.073,-10.156 -1.274,-4.228 -3.103,-7.473 -5.851,-10.38 -3.876,-4.1 -11.134,-17.191 -12.348,-22.271 -0.329,-1.375 -1.313,-11.087 -2.188,-21.583 -1.156,-13.867 -1.312,-20.29 -0.572,-23.5 1.991,-8.639 1.399,-11.907 -4.077,-22.482 -2.829,-5.464 -6.843,-13.352 -8.92,-17.529 -3.415,-6.867 -7.772,-12.018 -11.105,-13.129 -2.055,-0.685 -0.999,-8.206 2.314,-16.481 3.377,-8.433 3.337,-6.122 0.596,-34.51 -1.165,-12.061 -1.612,-14.02 -3.707,-16.25 -1.311,-1.395 -3.429,-2.536 -4.708,-2.536 -2.637,0 -2.511,1.015 -2.854,-23 -0.288,-20.195 -1.443,-27.588 -4.733,-30.297 -3.399004,-2.799 -4.739004,-6.478 -4.740004,-13.018 0,-2.852 -0.91,-7.579 -2.022,-10.505 -1.112,-2.927 -2.301,-7.989 -2.642,-11.25 -0.635,-6.07 -1.905,-7.358 -4.35,-4.412 -0.823,0.992 -1.358,5.763 -1.542,13.75 -0.155,6.728 -0.596,15.029 -0.98,18.448 -0.941,8.375 0.034,13.097 2.981,14.44 4.978,2.269 6.79,13.338 4.23,25.844 -1.863,9.099 -3.152,24.958 -2.304,28.338 0.378,1.506 1.722,2.847 3.46,3.453 2.711,0.945 2.925,1.487 4.668,11.85 2.667004,15.852 2.485004,22.579 -0.8,29.73 -2.955,6.43 -3.241,9.132 -1.596,15.056 0.924,3.329 0.746,4.937 -1.165,10.55 -2.831,8.317 -2.3,10.565 3.981,16.846 2.695004,2.695 5.900004,6.875 7.123004,9.288 1.223,2.414 3.799,6.144 5.724,8.289 l 3.5,3.899 -0.669,9.72 c -0.57,8.278 -0.385,10.444 1.251,14.601 1.725,4.383 1.816,5.869 0.885,14.587 -0.909,8.513 -0.817,10.297 0.746,14.5 4.05,10.888 9.851,16.329 25.923,24.313 l 9.099,4.521 0.536,5.312 c 0.487,4.835 0.999,5.741 5.693,10.08 2.837,2.621 5.462,5.98 5.834,7.463 1.119,4.456 -0.009,3.86 -3.16,-1.67 -2.934,-5.149 -3.058,-5.233 -8.463,-5.726 -4.078,-0.372 -7.297,-1.576 -12.545,-4.695 -3.882,-2.307 -7.607,-4.856 -8.278,-5.664 -0.671,-0.808 -5.879,-3.745 -11.573,-6.527 -5.695,-2.781 -11.274,-6.226 -12.398,-7.656 -1.125,-1.429 -2.314,-4.705 -2.642,-7.278 -0.329,-2.574 -1.698,-9.18 -3.041,-14.68 -1.344,-5.5 -3.143004,-14.682 -3.998004,-20.405 -1.412,-9.452 -1.41,-11.043 0.028,-17.363 2.874004,-12.635 -0.349,-25.388 -9.045,-35.793 -2.041,-2.441 -5.041,-6.795 -6.667,-9.675 -3.504,-6.206 -10.363,-12.628 -17.862,-16.724 -4.697,-2.565 -6.485,-2.965 -13.419,-3 l -8,-0.04 -0.897,-11.5 c -1.57,-20.14 -1.533,-20.495 3.238,-31.312 2.381,-5.397 4.693,-12.372 5.139,-15.5 0.445,-3.128 2.02,-11.538 3.499,-18.688 1.796,-8.688 2.475,-14.327 2.047,-17 -0.353,-2.2 -1.523,-10.975 -2.601,-19.5 -1.078,-8.525 -2.657,-17.619 -3.509,-20.21 -0.853,-2.59 -5.822,-10.69 -11.044,-18 -8.36,-11.703 -12.657,-19.400996 -21.998,-39.402996 -5.486,-11.748 -8.9130001,-31.74 -8.1520001,-47.548 0.4680001,-9.729 0.4710001,-9.738 6.1230001,-19.209 3.11,-5.2120002 5.655,-9.73600025 5.655,-10.05300025 0,-0.317 -0.788,-0.572 -1.75,-0.56599999752 -0.962,0.005999998 -4.413,3.04300004752 -7.667,6.75000004752 M 318.10595,261.7181 c -0.874,8.363 -4.405,18.999 -8.225,24.771 -1.82,2.75 -3.637,6.317 -4.038,7.927 l -0.729,2.927 3.007,-2.141 c 1.654,-1.178 4.22,-3.732 5.704,-5.677 1.507,-1.976 3.582,-3.536 4.702,-3.536 4.148,0 8.264,-15.315 5.978,-22.242 -0.629,-1.905 -2.189,-4.447 -3.468,-5.648 l -2.324,-2.184 -0.607,5.803 m -104.798,10.959 c -1.987,2.097 -4.443,5.269 -5.459,7.05 l -1.845,3.237 3.208,3.31 c 5.022,5.182 4.178,10.814 -2.986,19.931 -4.101,5.218 -4.523,9.256 -1.659,15.86 2.077,4.789 2.343,6.887 2.265,17.914 l -0.088,12.49 2.828,-10.49 c 2.982,-11.063 3.233,-13.047 4.866,-38.49 0.565,-8.8 1.513,-18.925 2.107,-22.5 0.595,-3.575 0.922,-7.765 0.728,-9.312 l -0.353,-2.811 -3.612,3.811 m -47.876,64.812 c -0.565,9.166 0.162,17.245 2.487,27.67 l 2.304,10.33 0.099,-6.091 c 0.054,-3.35 -0.622,-8.3 -1.501,-11 -0.88,-2.7 -1.933,-9.634 -2.341,-15.409 -0.521,-7.391 -0.832,-9.019 -1.048,-5.5 m 107.988,5.119 c -4.125,3.07 -9.543,7.563 -12.04,9.986 -2.496,2.423 -7.424,5.866 -10.95,7.65 -6.094,3.085 -6.768,3.805 -13.669,14.603 -3.992,6.247 -7.995,13.447 -8.895,16 -0.9,2.553 -2.341,6.667 -3.201,9.142 -1.119,3.217 -3.761,6.638 -9.266,12 -4.236,4.125 -8.971,9.3 -10.522,11.5 -2.114,2.998 -1.202,2.34 3.643,-2.627 6.911,-7.087 16.667,-12.808 25.543,-14.978 6.627,-1.62 9.812,-3.351 15.056,-8.185 4.998,-4.607 7.016,-8.138 10.22,-17.884 2.362,-7.186 3.169,-8.214 7.204,-9.175 3.95,-0.942 5.431,-5.53 5.088,-15.759 -0.315,-9.401 -0.717,-8.556 7.289,-15.301 5.178,-4.362 2.311,-2.784 -5.5,3.028 m -67.805,13.881 c 0.02,1.65 0.244,2.204 0.498,1.231 0.254,-0.973 0.237,-2.323 -0.037,-3 -0.274,-0.677 -0.481,0.119 -0.461,1.769 m -1.527,10.347 c -0.445,4.04 -0.585,7.569 -0.313,7.841 0.77,0.77 1.845,-7.838 1.463,-11.714 -0.241,-2.446 -0.582,-1.299 -1.15,3.873 m 10.46,14.946 c -2.771,2.984 -5.2,7.004 -6.633,10.98 -1.243,3.451 -3.411,8.013 -4.818,10.139 -3.118,4.711 -7.21,14.338 -8.114,19.088 -0.611,3.214 -0.415,3.05 2.4,-2 1.686,-3.025 3.766,-7.075 4.622,-9 5.395,-12.126 7.7,-16.126 12.281,-21.308 4.059,-4.592 5.134,-6.529 5.134,-9.25 0,-1.893 -0.112,-3.422 -0.25,-3.399 -0.138,0.024 -2.217,2.162 -4.622,4.75 m -15.403,4.435 c -0.859,2.349 -1.854,5.397 -2.209,6.772 -1.171,4.528 1.362,-0.073 2.984,-5.42 1.866,-6.149 1.326,-7.092 -0.775,-1.352 m -7.005,17.104 c -0.396,1.007 -0.679,3.257 -0.63,5 l 0.09,3.168 0.964,-3.349 c 1.134,-3.939 0.786,-7.895 -0.424,-4.819 m 1.359,25.251 c 0.048,1.165 0.285,1.402 0.604,0.605 0.289,-0.722 0.253,-1.585 -0.079,-1.917 -0.332,-0.332 -0.568,0.258 -0.525,1.312"
     stroke="none"
     fill="#000000"
     fill-rule="evenodd"
     id="path2" />
</svg>
