<svg xmlns="http://www.w3.org/2000/svg" viewBox="0 0 100 125" x="0px" y="0px"><title>hierarchical-clustering-analysis</title><g><g><g><g><g><polygon points="91.78 79.9 91.78 57.32 86.92 57.32 86.92 48.55 78.92 48.55 78.92 19.19 31.16 19.19 31.16 43.57 19.16 43.57 19.16 56.86 8.52 56.86 8.52 67.21 5.18 67.21 5.18 95 6.34 95 6.34 68.37 11.86 68.37 11.86 76.18 9.8 76.18 9.8 95 10.96 95 10.96 77.35 13.93 77.35 13.93 95 15.09 95 15.09 76.18 13.02 76.18 13.02 67.21 9.68 67.21 9.68 58.02 29.79 58.02 29.79 95 30.95 95 30.95 56.86 20.32 56.86 20.32 44.73 43.51 44.73 43.51 74.16 34.4 74.16 34.4 95 35.56 95 35.56 75.32 52.62 75.32 52.62 84.17 49.28 84.17 49.28 95 50.44 95 50.44 85.34 55.96 85.34 55.96 95 57.13 95 57.13 84.17 53.78 84.17 53.78 74.16 44.67 74.16 44.67 43.57 32.66 43.57 32.66 20.69 77.42 20.69 77.42 48.55 69.42 48.55 69.42 71.4 65.3 71.4 65.3 80.18 62.55 80.18 62.55 95 63.71 95 63.71 81.34 68.38 81.34 68.38 95 69.55 95 69.55 80.18 66.8 80.18 66.8 72.9 73.54 72.9 73.54 95 75.04 95 75.04 71.4 70.92 71.4 70.92 50.05 85.42 50.05 85.42 57.32 80.56 57.32 80.56 95 82.06 95 82.06 58.82 90.28 58.82 90.28 79.9 87.31 79.9 87.31 94.89 88.81 94.89 88.81 81.4 93.25 81.4 93.25 94.89 94.75 94.89 94.75 79.9 91.78 79.9"/></g></g></g></g></g><text x="0" y="115" fill="#000000" font-size="5px" font-weight="bold" font-family="'Helvetica Neue', Helvetica, Arial-Unicode, Arial, Sans-serif">Created by Product Pencil</text><text x="0" y="120" fill="#000000" font-size="5px" font-weight="bold" font-family="'Helvetica Neue', Helvetica, Arial-Unicode, Arial, Sans-serif">from the Noun Project</text></svg>