<?xml version="1.0" encoding="UTF-8" standalone="no"?>
<svg
   width="859.80109"
   height="827.86469"
   viewBox="0 0 859.80109 827.86469"
   version="1.1"
   id="svg4"
   xmlns="http://www.w3.org/2000/svg"
   xmlns:svg="http://www.w3.org/2000/svg">
  <defs
     id="defs8" />
  <path
     d="m 501.95404,0.54 c 0,0.297 0.905,2.313 2.011,4.481 2.719,5.331 5.973,19.3 5.982,25.68 0.004,2.86 -0.484,7.49 -1.084,10.288 -0.856,3.992 -1.448,4.987 -2.75,4.618 -3.484,-0.986 -12.929,-2.506 -19.409,-3.123 l -6.75,-0.643 0.033,-10.171 c 0.023,-7.299 0.565,-11.713 1.919,-15.636 1.38,-3.997 1.615,-5.975 0.873,-7.361 -0.941,-1.759 -1.295,-1.62 -4.942,1.941 -6.665,6.508 -8.883,12.249 -8.883,22.992 v 9.213 l -6.75,1.125 c -3.712,0.619 -9.066,1.485 -11.896,1.925 l -5.146,0.799 -0.593,-3.584 c -0.326,-1.971 -0.608,-4.934 -0.626,-6.584 -0.018,-1.65 -0.942,-5.025 -2.053,-7.5 -3.376,-7.52 -12.357,-21.965 -13.667,-21.983 -2.57,-0.035 -2.461,4.846 0.261,11.65 2.726,6.814 5.37,19.015 5.435,25.083 l 0.035,3.25 -6.75,-0.047 c -3.712,-0.025 -9.675,-0.59 -13.25,-1.254 l -6.5,-1.208 -0.633,-4.996 c -0.348,-2.747 -1.334,-7.116 -2.191,-9.708 -1.252,-3.788 -3.676,-20.106 -3.676,-24.748 0,-1.66 -1.832,-1.207 -4.038,0.999 -1.897,1.897 -1.997,2.854 -1.431,13.75 l 0.609,11.712 -3.475,-8.355 c -3.835,-9.219 -4.897,-10.738 -6.722,-9.61 -0.915,0.566 -1.074,3.49 -0.619,11.363 0.337,5.831 0.908,12.065 1.27,13.852 l 0.656,3.25 -4.375,0.015 c -6.101,0.02 -15.987,2.502 -21.894,5.495 l -4.981,2.524 v -2.896 c 0,-1.593 -1.101,-5.313 -2.448,-8.267 -2.698,-5.923 -4.533,-15.49 -4.544,-23.704 -0.009,-6.119 -1.924,-6.758 -3.271,-1.092 -1.078,4.536 -1.409,31.436 -0.444,36.072 0.759,3.646 0.758,3.648 -3.945,5.25 -8.927,3.042 -9.693,2.671 -13.386,-6.491 -3.086,-7.656 -9.517,-17.685 -13.365,-20.842 -1.52,-1.247 -1.876,-1.247 -2.717,0 -1.642,2.438 -0.342,8.986 3.946,19.884 2.261,5.747 4.013,10.521 3.893,10.611 -0.121,0.089 -2.022,0.438 -4.226,0.775 l -4.007,0.612 -2.957,-5.647 C 304.54304,46.773 295.46604,37 292.41704,37 h -2.322 l 2.405,4.304 c 3.885,6.95 8.412,18.642 7.818,20.19 -0.627,1.634 -3.894,2.915 -5.268,2.065 -1.213,-0.75 -22.238,4.704 -28.488,7.389 -2.69,1.156 -4.997,1.978 -5.125,1.827 -0.129,-0.151 -1.686,-5.891 -3.459,-12.754 -5.56,-21.526 -10.642,-32.021 -15.502,-32.021 -1.387,0 -2.522,0.23 -2.522,0.511 0,0.281 1.527,5.569 3.393,11.75 1.866,6.182 4.147,15.964 5.068,21.739 0.921,5.775 2.031,11.892 2.466,13.594 0.736,2.883 0.309,3.588 -6.251,10.319 -6.527,6.697 -12.222,10.874 -13.325,9.771 -0.255,-0.254 0.237,-3.165 1.093,-6.468 0.856,-3.302 1.556,-7.087 1.556,-8.41 0,-2.298 -1.616,-4.806 -3.096,-4.806 -1.255,0 -9.711,14.409 -11.917,20.306 l -2.157,5.764 -11.9,5.965 c -6.544,3.281 -12.518,5.965 -13.275,5.965 -0.928,0 -1.556,-1.749 -1.93,-5.372 -1.17,-11.344 -10.512,-23.1 -16.775,-21.112 -2.811,0.892 -2.44,1.928 1.931,5.39 4.843,3.835 7.119,8.513 7.119,14.629 0,9.039 -1.572,11.951 -8.701,16.12 -3.527,2.063 -8.209,5.288 -10.404,7.167 -2.195,1.879 -4.107,3.25 -4.249,3.047 -0.142,-0.203 -0.826,-3.294 -1.52,-6.869 -2.628,-13.536 -9.077,-23 -15.673,-23 -4.74,0 -5.01,1.375 -1.119,5.71 6.892,7.68 9.544,16.579 9.065,30.426 -0.267,7.731 -1.811,11.196 -7.123,15.996 -4.123,3.724 -12.709,9.868 -13.791,9.868 -0.361,0 -0.348,-3.283 0.028,-7.296 0.578,-6.164 0.423,-7.512 -0.998,-8.692 -2.483,-2.061 -4.632,-0.254 -7.234,6.083 -1.427,3.474 -2.231,7.558 -2.25,11.431 l -0.031,6.026 -7.14,5.474 c -3.926,3.011 -7.991,6.101 -9.031,6.867 -1.712,1.26 -2.212004,1.019 -5.252004,-2.532 -4.643,-5.425 -12.407,-9.449 -19.398,-10.057 -10.07,-0.875 -15.346,3.344 -6.146,4.915 5.512,0.94 13.877,4.991 16.856,8.163 1.253,1.333 2.668,4.154 3.145,6.268 0.755,3.348 0.559,4.167 -1.518,6.347 -1.312,1.377 -5.942,8.353 -10.288,15.503 -4.815,7.921 -8.454,12.903 -9.315,12.753 -0.777,-0.136 -4.788,-0.962 -8.913,-1.836 -6.08,-1.288 -8.068,-1.359 -10.5,-0.375 l -3,1.213 7.974,3.794 c 11.002,5.234 11.109,5.798 3.764,19.747 -5.232,9.937 -5.959,10.881 -7.044,9.142 -3.012,-4.822 -5.024,-0.538 -7.072,15.062 -0.608,4.632 -2.854,10.955 -7.814,22 -3.828,8.525 -7.826,17.636 -8.884,20.246 -1.058,2.611 -2.149,4.746 -2.424,4.745 -0.275,0 -1.592,-3.647 -2.928,-8.102 -2.673,-8.921 -4.044,-10.889 -7.584,-10.889 -3.5,0 -3.64,1.047 -1.012,7.579 1.311,3.256 3.122,9.888 4.026,14.736 1.492,8.003 1.5,9.034 0.082,11.197 -0.859,1.311 -1.304,3.054 -0.989,3.875 0.315,0.82 0.148,2.25 -0.37,3.176 -0.8,1.429 -1.11,1.206 -2.042,-1.469 -0.605,-1.734 -1.793,-3.847 -2.641,-4.695 -0.848,-0.848 -1.548,-2.747 -1.556,-4.22 -0.019,-3.833 -1.055,-7.179 -2.221,-7.179 -0.638,0 -0.849,4.623 -0.58,12.75 0.368,11.15 0.758,13.503 3.11,18.75 2.464,5.496 2.712,7.218 2.947,20.5 0.265,14.92 -0.622,24 -2.346,24 -0.54,0 -3.219,-2.093 -5.954,-4.651 -2.735,-2.558 -5.26300004,-4.361 -5.61800004,-4.007 -1.209,1.21 1.72500004,8.569 5.26500004,13.206 3.588,4.702 3.732,5.76 1.741,12.789 -0.488,1.724 -0.61,1.709 -1.982,-0.25 -0.804,-1.148 -2.336,-2.087 -3.405,-2.087 -2.64500004,0 -2.54700004,3.408 0.438,15.141 1.31,5.147 2.658,13.859 2.997,19.359 0.552,8.951 2.852,25.111 4.235,29.75 0.429,1.437 -0.116,1.75 -3.046,1.75 -4.979,0 -4.691,1.816 1.972,12.428 7.847,12.499 8.107,13.097 11.933,27.466 1.895,7.119 4.558,15.68 5.917,19.025 1.919,4.722 2.157,6.081 1.064,6.081 -1.88,0 -5.315,5.213 -3.774,5.726 3.263,1.088 10.65,6.918 11.631,9.179 1.49,3.437 9.634,13.095 11.041,13.095 0.609,0 4.798,3.672 9.31,8.16 l 8.203,8.16 -3.182,1.59 c -1.75,0.875 -3.31,2.49 -3.467,3.59 -0.25,1.758 1.2,2.411 12,5.4 14.066,3.894 15.637,4.558 16.591,7.02 1.262,3.253 9.601,9.502 20.126004,15.08 5.708,3.025 12.221,7.173 14.473,9.217 l 4.095,3.717 -8.046,-0.599 c -6.776,-0.505 -8.315,-0.331 -9.75,1.104 -0.937,0.937 -1.704,2.073 -1.704,2.524 0,0.451 3.138,1.529 6.974,2.395 10.7,2.416 17.23,6.275 18.37,10.855 0.515,2.069 1.622,2.996 4.666,3.908 2.643,0.792 3.99,1.776 3.99,2.915 0,2.561 1.8,3.504 9.168,4.806 8.157,1.44 17.317,5.274 29.814,12.479 11.581,6.675 15.817,10.15 19.914,16.336 5.875,8.87 7.143,15.285 8.168,41.343 0.957,24.315 4.164,61.126 6.012,69 1.223,5.214 4.707,11.542 8.096,14.706 2.943,2.747 16.56,4.721 44.57,6.46 22.56,1.4 42.5,0.4 75.758,-3.8 12.134,-1.532 26.066,-2.658 33,-2.668 11.659,-0.016 12.142,0.071 17,3.056 12.454,7.654 25.308,8.115 39,1.398 4.4,-2.159 9.125,-4.266 10.5,-4.683 1.375,-0.416 3.869,-1.799 5.542,-3.073 4.573,-3.482 13.475,-7.282 19.796,-8.451 6.606,-1.221 15.655,0.075 22.662,3.247 3.518,1.592 7.882,2.225 20,2.901 8.525,0.475 26.525,1.661 40,2.635 35.232,2.548 40.148,2.436 47.301,-1.076 9.721,-4.774 13.202,-12.207 14.269,-30.471 0.545,-9.336 1.612,-14.08 8.474,-37.681 10.916,-37.543 21.498,-71.734 23.522,-75.998 0.937,-1.974 3.555,-5.095 5.818,-6.935 7.069,-5.749 41.317,-29.984 44.8,-31.702 1.824,-0.9 7.334,-2.368 12.245,-3.263 4.91,-0.894 9.114,-1.812 9.341,-2.039 0.903,-0.903 -0.967,-4.462 -2.567,-4.883 -0.937,-0.246 -0.16,-0.5 1.726,-0.564 1.886,-0.064 4.811,-0.531 6.5,-1.038 1.689,-0.507 5.658,-1.655 8.821,-2.551 6.154,-1.744 7.132,-3.343 4.095,-6.698 -0.91,-1.006 -1.193,-1.829 -0.629,-1.829 0.564,0 5.07,-2.863 10.014,-6.362 5.525,-3.911 10.489,-6.631 12.88,-7.059 2.139,-0.383 7.04,-1.676 10.89,-2.872 9.081,-2.824 10.119,-4.088 6.408,-7.799 -1.28,-1.28 -2.86,-1.892 -4.068,-1.576 -1.086,0.284 3.353,-4.962 9.864,-11.658 6.512,-6.696 15.62,-17.231 20.24,-23.411 4.62,-6.181 9.336,-11.529 10.478,-11.885 1.143,-0.356 3.587,-1.964 5.432,-3.573 1.844,-1.609 6.232,-4.345 9.75,-6.08 3.518,-1.735 6.396,-3.66 6.396,-4.279 0,-0.619 -1.129,-1.639 -2.508,-2.268 -2.033,-0.926 -3.441,-0.775 -7.436,0.8 l -4.927,1.942 6.164,-11.71 c 3.391,-6.441 8.424,-16.95 11.186,-23.354 4.765,-11.051 5.403,-11.986 12.521,-18.364 4.125,-3.696 9.178,-7.906 11.229,-9.356 4.279,-3.026 4.732,-4.831 1.521,-6.064 -1.757,-0.675 -3.861,0.018 -9.608,3.162 l -7.358,4.025 0.607,-2.879 c 0.955,-4.531 3.414,-39.123 4.15,-58.38 0.655,-17.141 0.728,-17.588 3.564,-21.8 1.592,-2.365 2.895,-4.712 2.895,-5.215 0,-1.444 -3.898,-3.152 -5.809,-2.546 -1.486,0.472 -2.356,-1.762 -6.113,-15.694 -2.41,-8.935 -4.561,-16.743 -4.782,-17.352 -0.22,-0.609 0.993,-1.684 2.696,-2.39 3.284,-1.36 13.008,-11.553 13.008,-13.635 0,-2.687 -4.098,-2.466 -10.515,0.566 -3.577,1.689 -7,3.183 -7.606,3.319 -0.607,0.136 -2.361,-3.729 -3.897,-8.588 l -2.794,-8.835 2.037,-4.606 c 1.671,-3.777 5.504,-16.493 8.434,-27.974 0.81,-3.175 -1.662,-2.919 -4.842,0.5 -3.137,3.372 -9.817,13.146 -9.817,14.362 0,0.488 -0.358,0.888 -0.796,0.888 -0.438,0 -1.714,-2.824 -2.837,-6.276 -2.031,-6.247 -2.031,-6.301 -0.096,-11.75 1.069,-3.011 2.737,-8.73 3.705,-12.711 1.557,-6.399 1.589,-7.38 0.269,-8.475 -1.248,-1.035 -2.429,-0.242 -7.201,4.835 l -5.709,6.073 -2.417,-4.598 c -1.33,-2.529 -4.457,-7.304 -6.949,-10.611 l -4.531,-6.014 2.183,-3.239 c 1.296,-1.922 2.471,-5.718 2.891,-9.335 0.64,-5.515 1.022,-6.281 4.008,-8.043 3.749,-2.212 5.159,-4.808 3.264,-6.011 -1.522,-0.966 -7.94,-1.106 -10.239,-0.224 -2.052,0.788 -4.545,5.547 -4.545,8.676 0,1.318 -0.788,3.328 -1.75,4.465 -0.962,1.138 -2.22,2.849 -2.795,3.803 -0.954,1.582 -1.348,1.472 -4.5,-1.25 -1.9,-1.641 -6.209,-4.835 -9.575,-7.098 -3.366,-2.264 -7.949,-6.193 -10.184,-8.732 -4.654,-5.287 -4.711,-5.085 3.761,-13.293 3.587,-3.476 4.172,-4.498 3,-5.24 -2.001,-1.266 -1.941,-1.275 -10.03,1.642 -3.956,1.427 -7.47,2.19 -7.81,1.695 -0.339,-0.495 -3.483,-4.631 -6.985,-9.19 -7.399,-9.633 -7.914,-7.965 5.595,-18.099 4.765,-3.575 8.833,-7.046 9.04,-7.713 1.349,-4.36 -13.758,-1.115 -22.633,4.862 -2.402,1.617 -4.742,2.808 -5.201,2.646 -0.458,-0.162 -4.007,-4.537 -7.886,-9.722 l -7.052,-9.426 3.49,-3.197 c 1.92,-1.759 4.846,-3.759 6.503,-4.445 3.351,-1.388 3.798,-3.076 1.441,-5.434 -2.034,-2.033 -2.196,-2.018 -10.025,0.929 -8.152,3.068 -8.447,3.064 -10.807,-0.172 -1.524,-2.09 -1.673,-2.976 -0.75,-4.455 0.634,-1.015 1.163,-2.414 1.175,-3.109 0.012,-0.695 3.412,-5.989 7.556,-11.764 13.036,-18.167 15.938,-24.905 11.124,-25.822 -2.622,-0.5 -4.071,1.046 -11.347,12.116 -3.606,5.487 -8.43,11.829 -10.719,14.092 -2.288,2.263 -4.83,5.137 -5.648,6.386 l -1.488,2.273 -4.849,-3.468 c -2.667,-1.907 -7.803,-4.422 -11.414,-5.588 -6.699,-2.165 -14.208,-5.682 -17.664,-8.275 -1.864,-1.399 -1.811,-1.588 1.618,-5.83 4.94,-6.11 5.754,-7.973 6.371,-14.588 0.882,-9.442 -2.177,-10.856 -6.373,-2.946 -1.26,2.376 -4.729,6.727 -7.709,9.669 l -5.416,5.35 -5.782,-5.007 c -8.366,-7.243 -9.547,-9.951 -8.881,-20.362 0.298,-4.675 0.849,-9.573 1.223,-10.884 0.509,-1.785 0.328,-2.274 -0.722,-1.945 -2.02,0.631 -4.778,6.691 -6.13,13.469 -0.643,3.223 -1.273,6.016 -1.4,6.206 -0.127,0.191 -2.176,-0.987 -4.552,-2.618 -10.087,-6.922 -27.592,-14.228 -34.088,-14.228 -3.578,0 -5.732,-1.474 -5.732,-3.921 0,-0.837 2.508,-4.056 5.574,-7.154 5.175,-5.229 5.457,-5.751 3.929,-7.279 -0.905,-0.905 -2.452,-1.646 -3.438,-1.646 -2.321,0 -10.762,9.03 -12.638,13.521 -0.911,2.179 -2.139,3.479 -3.288,3.479 -1.687,0 -1.889,-1.462 -2.51,-18.25 -0.638,-17.221 -0.801,-18.355 -2.902,-20.116 l -2.227,-1.865 -1.098,15.865 c -1.021,14.756 -2.607,22.176 -5.05,23.628 -0.469,0.279 -3.54,-0.037 -6.824,-0.701 -7.381,-1.493 -7.296,-1.256 -7.428,-20.811 -0.055,-8.112 -0.48,-14.75 -0.945,-14.75 -2.923,0 -6.663,10.857 -8.714,25.293 -0.375,2.637 -0.976,4.662 -1.337,4.5 -0.36,-0.161 -4.783,-2.306 -9.828,-4.767 l -9.172,-4.475 0.095,-10.575 c 0.104,-11.544 -1.119,-16.739 -6.465,-27.476 -4.176,-8.387 -6.559,-11.5 -8.802,-11.5 -1.063,0 -1.932,0.243 -1.932,0.54"
     stroke="none"
     fill="#000000"
     fill-rule="evenodd"
     id="path2" />
</svg>
