<?xml version="1.0" encoding="UTF-8" standalone="no"?>
<svg
   width="853.57239"
   height="859.95929"
   viewBox="0 0 853.57239 859.95929"
   version="1.1"
   id="svg4"
   xmlns="http://www.w3.org/2000/svg"
   xmlns:svg="http://www.w3.org/2000/svg">
  <defs
     id="defs8" />
  <path
     d="m 504.67425,1.4593152 c -0.685,0.825 -2.485,1.5 -4,1.5 -1.515,0 -3.2,0.563 -3.743,1.25 -0.543,0.688 -1.243,5.39 -1.554,10.4509998 -0.443,7.191 -1.51,11.996 -4.885,21.998 -4.635,13.735 -7.845,18.709 -12.776,19.792 -3.952,0.868 -10.782,-1.14 -13.657,-4.015 -2.054,-2.054 -2.38,-3.328 -2.352,-9.181 0.02,-4.309 0.78,-8.807 2.075,-12.295 1.124,-3.025 2.735,-7.405 3.58,-9.733 2.526,-6.955 -0.831,-13.7349998 -6.476,-13.0779998 -2.142,0.25 -2.992,1.196 -4.321,4.8109998 -1.936,5.269 -3.454,5.846 -8.031,3.056 -4.638,-2.828 -10.897,-2.738 -13.537,0.194 -2.888,3.208 -3.229,3.983 -4.343,9.853 -1.735,9.153 -5.468,10.801 -15.677,6.921 -2.859,-1.087 -7.071,-2.099 -9.36,-2.25 l -4.163,-0.274 -4.596,8.5 c -3.862,7.144 -4.698,9.684 -5.24,15.922 -0.582,6.685 -0.96,7.703 -3.811,10.25 -7.487,6.69 -15.213,0.954 -19.68,-14.609 -1.49,-5.192 -1.544,-6.783 -0.43,-12.686 1.252,-6.632 1.223,-6.851 -1.625,-12.563 -3.504,-7.03 -5.366,-7.568 -11.302,-3.269 -3.113,2.255 -4.625,2.826 -5.408,2.043 -0.907,-0.907 -6.697,-1.632 -6.684,-0.838 0.002,0.138 1.127,2.464 2.5,5.169 2.129,4.197 2.496,6.285 2.496,14.215 0,8.357 0.208,9.407 2.056,10.396 2.933,1.57 3.766,4.651 2.676,9.903 -0.902,4.346 -4.025,9.067 -5.999,9.067 -0.504,0 -2.055,0.894 -3.444,1.988 l -2.527,1.987 -3.285,-4.237 c -1.806,-2.331 -4.916,-5.751 -6.912,-7.599 -1.996,-1.849 -4.301,-4.662 -5.123,-6.25 -1.745,-3.375 -3.445,-3.648 -5.891,-0.946 -0.967,1.069 -2.967,2.209 -4.445,2.534 -5.299,1.164 -9.061,4.366 -11.47,9.763 -3.885,8.706 -9.185,11.76 -20.408,11.76 -9.222,0 -15.195,-3.583 -18.769,-11.26 -2.128,-4.571 -2.441,-6.675 -2.449,-16.49 -0.009,-10.183 -0.181,-11.25 -1.819,-11.25 -0.995,0 -2.682,0.661 -3.75,1.468 -1.067,0.808 -3.546,1.483 -5.507,1.5 -2.818,0.025 -4.236,0.789 -6.763,3.644 -3.023,3.414 -3.441,3.575 -7.646,2.944 -8.333,-1.25 -9.707,1.1 -7.342,12.551 1.945,9.418 -1.689,17.967 -8.25,19.408 -2.793,0.613 -6.756,-0.801 -8.168,-2.915 -0.404,-0.605 -0.741,-2.802 -0.75,-4.882 -0.019,-4.817 -2.458,-10.718 -4.43,-10.718 -0.834,0 -3.069,0.74 -4.966,1.645 -3.353,1.599 -3.575,1.571 -7.962,-1 -2.482,-1.455 -4.722,-2.645 -4.976,-2.645 -1.251,0 -3.681,8.629 -3.681,13.07 0,6.009 1.812,9.866 7.529,16.028 7.478,8.059005 8.549,21.301005 1.878,23.214005 -3.779,1.084 -9.587,-1.126 -11.772,-4.478 -0.836,-1.284 -3.402,-8.184 -5.702,-15.334005 -3.667,-11.396 -4.184,-14.144 -4.194,-22.275 -0.007,-5.102 -0.378,-9.502 -0.826,-9.779 -0.448,-0.277 -2.414,0.354 -4.369,1.402 -2.502,1.342 -4.81,1.764 -7.799,1.429 -3.808,-0.427 -4.778,-0.051 -9.421,3.65 -3.238,2.58 -5.408,5.177 -5.793,6.932 -1.14,5.192 0.953,10.796 6.161,16.495 7.855,8.594005 9.674,18.434005 4.385,23.723005 -4.767,4.767 -7.713,4.074 -16.268,-3.829 -7.525,-6.951 -14.515,-10.959 -17.27,-9.901 -1.797,0.689 -3.539,4.688 -3.539,8.123 0,1.288 -1.575,4.226 -3.5,6.53 -4.799,5.744 -4.622,8.293 0.75,10.824 2.337,1.101 5.698,2.298 7.468,2.661 2.691,0.552 3.325,1.227 3.868,4.122 0.575,3.066 0.236,3.864 -2.968,6.976 -5.457,5.299 -4.799,10.288 1.9,14.428 5.706,3.527 9.36,12.711 6.282,15.789 -1.496,1.496 -6.034,1.566 -7.485,0.115 -0.596,-0.596 -2.113,-0.934 -3.371,-0.75 -3.346,0.49 -4.545,4.964 -2.975,11.092 1.219,4.754 1.172,5.001 -1.607,8.434 -1.574,1.945 -3.312,3.595 -3.862,3.665 -1.462,0.189 -6.028,-8.742 -8.541,-16.704 -1.825,-5.784 -2.65,-7.086 -5.064002,-7.998 -1.901,-0.717 -3.249,-2.195 -3.956,-4.338 -1.324,-4.014 -6.494,-8.523 -9.307,-8.117 -2.104,0.303 -2.703,1.52 -4.631,9.416 -0.553,2.264 -2.355,5.813 -4.003,7.888 -3.72,4.68 -3.972,9.233 -0.684,12.323 1.273,1.196 3.088,2.174 4.033,2.174 4.255,0 15.653,7.001 15.653,9.615 0,0.613 0.9,2.259 2,3.658 3.406002,4.329 2.704002,4.957 -5.25,4.692 -9.842,-0.328 -9.524,-0.441 -10.697,3.785 -1.631,5.871 -1.316,9.039 1.023,10.291 1.141,0.61 2.871,1.864 3.843,2.785 0.972,0.921 3.172,2.431 4.888,3.357 3.842,2.071 5.189,6.249 2.79,8.648 -1.549,1.55 -2.44,1.268 -13.151,-4.165 -7.963,-4.038 -12.326,-6.907 -14.217,-9.346 -1.501,-1.936 -3.441,-4.443 -4.31,-5.571 -2.144,-2.78 -5.392,-1.851 -10.719,3.066 -3.984,3.678 -4.194,4.156 -4.082,9.281 0.199,9.079 1.008,11.194 5.129,13.404 6.657,3.57 6.036,6.409 -2.071,9.473 -11.189,4.228 -14.301,6.246 -17.83,11.561 -1.965,2.96 -4.846,5.811 -6.824,6.754 -7.327,3.494 -8.255,9.941 -2.446,16.988 3.757,4.558 7.854,4.965 12.853,1.276 1.825,-1.346 4.655,-2.741 6.289,-3.1 1.634,-0.359 6.807,-2.868 11.495,-5.575 l 8.523,-4.922 -0.707,5.658 c -0.389,3.113 -0.314,5.935 0.167,6.273 0.48,0.338 1.87,1.912 3.088,3.499 4.073,5.302 2.312,13.57 -4.821,22.638 -3.864,4.911 -3.911,6.273 -0.336,9.621 2.594,2.43 3.248,3.971 3.837,9.047 0.825,7.108 2.795,9.763 8.355,11.26 4.452,1.199 7.472,4.109 9.633,9.281 1.845,4.414 1.94,6.813 0.406,10.181 -1.642,3.603 -10.034,5.432 -16.877,3.679 -4.775,-1.224 -8.981,-0.808 -8.981,0.887 0,0.465 -1.913,1.155 -4.25,1.534 -2.338,0.379 -8.656,1.559 -14.042,2.623 -8.783,1.734 -10.07,1.78 -12.5,0.448 -7.536,-4.134 -6.683,-4.097 -13.926,-0.616 -3.7300002,1.792 -7.9010002,3.784 -9.2690002,4.426 -3.37400001,1.584 -4.48200001,5.176 -3.11900001,10.107 1.71000001,6.187 2.43500001,6.784 9.27200001,7.633 8.4060002,1.045 15.2700002,0.122 21.2090002,-2.853 8.71,-4.362 21.625,-2.692 21.625,2.796 0,2.292 -18.093,21.5 -21.172,22.478 -1.058,0.335 -2.572,0.073 -3.363,-0.584 -1.769,-1.468 -4.465,-0.575 -4.465,1.478 0,0.831 -1.203,4.442 -2.674,8.024 -1.471,3.581 -2.432,6.754 -2.136,7.051 0.297,0.296 4.538,1.144 9.425,1.884 4.887,0.739 10.532,2.139 12.544,3.11 4.419,2.132 6.201,1.58 8.832,-2.734 1.423,-2.336 2.003,-5.047 2.005,-9.39 0.004,-5.444 0.386,-6.607 3.529,-10.722 3.777,-4.947 10.776,-9.672 14.328,-9.672 1.382,0 2.899,1.186 4.158,3.25 2.582,4.235 2.547,4.388 -1.177,5.133 -4.186,0.837 -9.834,5.226 -9.834,7.642 0,1.083 1.202,2.553 2.75,3.364 1.512,0.792 4.301,3.054 6.196,5.026 4.197,4.366 5.545,4.471 7.554,0.585 0.853,-1.65 2.051,-3 2.661,-3 1.977,0 5.998,5.203 6.523,8.441 0.768,4.729 -1.358,5.972 -8.992,5.259 -7.342,-0.685 -8.414,-0.22 -8.746,3.8 -0.642,7.771 1.095,10.5 6.683,10.5 1.917,0 6.647,0.522 10.51,1.16 7.631,1.26 10.298,3.453 9.219,7.579 -0.931,3.558 -3.688,3.548 -13.033,-0.048 -11.814,-4.547 -15.15,-5.08 -19.752,-3.157 -2.796,1.168 -4.546,1.322 -6.909,0.606 -1.74,-0.528 -6.199,-1.208 -9.908,-1.512 -3.71,-0.303 -7.618,-1.019 -8.685,-1.59 -1.067,-0.571 -3.699,-1.038 -5.85,-1.038 -5.402,0 -7.697,2.625 -6.861,7.848 0.533,3.337 0.192,4.44 -2.368,7.663 -6.715,8.448 -1.142,14.419 10.343,11.08 7.021,-2.041 10.798,-1.988 17.974,0.252 7.387,2.306 9.911,4.417 9.503,7.95 -0.23,2 -0.951,2.797 -2.76,3.052 -1.346,0.19 -4.711,2.326 -7.477,4.746 -7.636,6.679 -17.529,8.997 -25.575,5.991 -2.821,-1.055 -4.227,1.112 -4.897,7.549 -0.365,3.503 -1.014,6.932 -1.442,7.619 -0.983,1.577 -0.811,1.567 4.339,-0.25 2.338,-0.825 5.785,-1.5 7.659,-1.5 2.843,0 3.755,0.588 5.499,3.543 1.15,1.949 3.807,4.419 5.905,5.489 3.264,1.665 3.86,2.488 4.126,5.699 0.454,5.477 2.301,5.576 12.181,0.654 5.184,-2.583 7.024,1.034 4.095,8.046 -0.939,2.246 -1.298,4.942 -0.924,6.936 0.714,3.804 -1.706,6.868 -3.783,4.791 -0.637,-0.637 -1.965,-1.158 -2.952,-1.158 -2.017,0 -7.806,7.397 -7.806,9.976 0,2.742 4.299,6.024 7.891,6.024 2.293,0 4.156,0.893 6.265,3.002 3.349,3.349 3.307,5.42 -0.282,13.791 -2.074,4.839 -2.423,10.313 -0.844,13.262 1.418,2.651 6.191,4.945 10.285,4.945 4.93,0 8.364,-3.228 12.438,-11.691 3.768,-7.829 7.986,-12.313 11.574,-12.303 1.195,0.003 3.861,0.474 5.923002,1.047 3.344,0.928 3.75,1.391 3.75,4.269 0,1.776 -1.336,5.917 -2.969,9.203 -3.393002,6.83 -3.661002,9.346 -1.481,13.939 3.561,7.504 9.461,9.778 14.589,5.623 2.105,-1.705 2.238,-2.239 1.226,-4.925 -1.892,-5.022 0.942,-16.162 4.111,-16.162 2.43,0 3.024,2.236 3.024,11.376 0,10.895 0.635,11.583 8.967,9.719 10.278,-2.3 11.903,-9.173 6.134,-25.94 -3.183,-9.253 -3.378,-10.567 -3.086,-20.767 0.638,-22.207 6.941,-31.665 28.156,-42.253 4.494,-2.243 12.128,-6.415 16.964,-9.272 4.837,-2.856 12.597,-6.976 17.245,-9.154 7.81,-3.66 9.404,-4.028 21.035,-4.863 6.922,-0.497 15.735,-1.571 19.585,-2.386 5.885,-1.247 10.586,-1.32 29.5,-0.459 24.036,1.094 34.213,2.194 43,4.644 21.89,6.104 60.913,49.645 70.046,78.156 4.323,13.498 6.522,23.526 10.897,49.699 3.384,20.246 3.997,26.561 5.114,52.738 0.994,23.284 1.015,34.46 0.097,51.5 -0.645,11.969 -1.281,42.687 -1.413,68.262 -0.218,41.967 -0.075,46.866 1.461,50.256 1.003,2.215 2.774,4.164 4.315,4.75 1.437,0.547 8.192,0.994 15.01,0.994 h 12.396 l 0.979,-3.75 c 2.397,-9.184 5.646,-34.026 9.122,-69.75 2.3,-23.643 2.729,-63.496 0.849,-78.959 -1.301,-10.704 -1.236,-18.099 0.368,-41.541 0.659,-9.625 1.167,-21.325 1.129,-26 -0.716,-88.538 -0.161,-93.696 12.302,-114.313 2.056,-3.403 4.384,-6.844 5.173,-7.647 2.084,-2.124 4.155,-7.534 4.155,-10.853 0,-1.607 0.883,-3.676 2,-4.687 2.865,-2.593 2.487,-4.813 -1.5,-8.8 -2.796,-2.796 -3.498,-4.275 -3.488,-7.35 0.028,-9.072 6.488,-23.776 16.064,-36.562 10.158,-13.564 27.984,-28.103 43.424,-35.418 3.3,-1.563 6.158,-2.932 6.352,-3.041 0.194,-0.11 -0.369,-1.229 -1.25,-2.487 -2.307,-3.293 -1.979,-7.192 0.843,-10.014 4.045,-4.046 29.565,-14.334 49.555,-19.979 22.029,-6.221 33.992,-7.278 49.534,-4.378 10.654,1.988 14.439,3.563 24.702,10.28 4.256,2.785 11.006,6.309 15,7.831 3.995,1.522 11.815,4.888 17.378,7.48 11.341,5.286 12.632,6.598 19.365,19.688 2.334,4.538 4.641,8.25 5.126,8.25 2.076,0 6.745,8.272 7.413,13.134 1.018,7.401 2.926,8.866 11.548,8.866 7.672,0 10.35,-0.909 13.449,-4.566 l 2.015,-2.377 5.745,2.117 c 5.543,2.041 5.817,2.053 7.736,0.316 1.499,-1.356 1.989,-3.079 1.989,-6.99 0,-6.443 -1.426,-7.871 -9.5,-9.51 -7.384,-1.499 -10.994,-3.288 -13.091,-6.488 -2.185,-3.336 -3.477,-9.348 -2.807,-13.07 0.508,-2.823 1.243,-3.316 9.225,-6.189 12.478,-4.49 17.638,-5.588 22.886,-4.869 6.284,0.861 11.594,4.183 21.791,13.63 4.744,4.395 9.684,8.256 10.979,8.581 1.33,0.334 5.108,4.041 8.685,8.524 6.613,8.286 9.322,9.9 13.453,8.018 1.36,-0.62 4.521,-1.127 7.025,-1.127 5.461,0 11.04,-2.435 11.918,-5.202 0.364,-1.146 -0.102,-3.382 -1.084,-5.206 -1.658,-3.077 -1.643,-3.353 0.399,-7.355 1.167,-2.286 2.121,-4.81 2.121,-5.609 0,-0.798 -2.869,-4.08 -6.376,-7.293 l -6.376,-5.843 2.41,-3.496 c 1.53,-2.218 2.307,-4.592 2.126,-6.496 -0.261,-2.76 -0.684,-3.069 -5.284,-3.861 -2.75,-0.474 -8.377,-1.937 -12.503,-3.25 -4.594,-1.463 -9.926,-2.389 -13.75,-2.389 -4.95,0 -6.247,-0.319 -6.247,-1.535 0,-0.845 -0.755,-2.687 -1.677,-4.094 -1.574,-2.403 -1.568,-2.76 0.094,-5.846 2.957,-5.492 4.832,-5.946 17.096,-4.138 7.566,1.116 12.044,2.335 15.056,4.101 4.667,2.735 8.629,3.227 10.16,1.262 0.988,-1.269 3.271,-11.627 3.271,-14.84 0,-0.966 -1.157,-3.132 -2.572,-4.813 -3.044,-3.618 -2.491,-5.097 1.909,-5.097 4.327,0 7.663,-2.48 7.663,-5.697 0,-1.421 -1.166,-6.233 -2.591,-10.693 -1.425,-4.461 -2.774,-8.705 -2.997,-9.433 -0.421,-1.375 -5.661,2.496 -13.798,10.194 -3.845,3.638 -4.241,3.787 -6.578,2.476 -1.368,-0.768 -3.173,-2.622 -4.011,-4.119 -1.505,-2.688 -1.452,-2.794 3.975,-7.976 3.025,-2.889 8.341,-8.514 11.813,-12.502 6.28,-7.211 6.341,-7.25 11.368,-7.25 4.538,0 5.451,-0.397 8.937,-3.882 2.135,-2.136 3.882,-4.313 3.882,-4.84 0,-1.178 -4.436,-3.278 -6.925,-3.278 -2.213,0 -4.497,-2.508 -3.602,-3.956 0.355,-0.574 1.936,-1.044 3.515,-1.044 3.628,0 6.012,-2.346 6.012,-5.916 0,-3.979 -2.826,-6.084 -8.165,-6.084 -3.643,0 -5.833,0.859 -11.421,4.479 -6.304,4.083 -7.468,4.48 -13.196,4.5 -3.455,0.011 -7.73,-0.588 -9.5,-1.331 -4.925,-2.07 -9.544,-7.464 -11.883,-13.879 -2.254,-6.183 -5.419,-8.32 -8.74,-5.902 -7.964,5.8 -10.339,6.302 -14.46,3.06 -3.52,-2.768 -3.321,-4.324 0.865,-6.794 1.925,-1.136 3.5,-2.568 3.5,-3.181 0,-1.55 11.547,-0.733 21,1.486 9.385,2.204 29.33,1.606 41.856,-1.254 8.864,-2.024 9.474,-2.484 11.342,-8.555 1.06,-3.446 0.984,-4.023 -0.695,-5.25 -1.037,-0.759 -4.017,-1.379 -6.623,-1.379 -5.237,0 -7.889,-1.795 -7.865,-5.321 0.022,-3.094 0.923,-4.126 5.735,-6.565 3.127,-1.585 4.25,-2.757 4.25,-4.434 0,-2.718 -1.737,-4.68 -4.143,-4.68 -0.958,0 -3.357,-0.952 -5.329,-2.116 -5.232,-3.087 -11.741,-2.878 -18.528,0.594 -4.28,2.19 -7.447,2.953 -14.273,3.437 l -8.773,0.623 -3.477,-3.561 c -1.912,-1.959 -3.477,-4.022 -3.477,-4.585 0,-0.563 1.575,-2.418 3.5,-4.123 4.418,-3.911 4.771,-8.736 1,-13.68 -4.546,-5.96 -3.039,-7.672 9.711,-11.025 7.509,-1.975 9.129,-3.326 9.009,-7.514 -0.285,-10.031 -9.336,-13.544 -20.43,-7.928 -5.174,2.619 -9.996,2.417 -13.543,-0.567 -3.206,-2.698 -11.247,-14.177 -11.247,-16.056 0,-0.654 0.915,-2.017 2.032,-3.028 1.963,-1.776 2.269,-1.779 8.89,-0.061 8.477,2.198 10.377,1.432 11.951,-4.82 2.138,-8.491 0.912,-10.59 -6.185,-10.59 -5.375,0 -6.351,-2.031 -3.811,-7.936 2.828,-6.573 2.688,-8.35 -0.981,-12.529 -4.785,-5.45 -6.701,-4.877 -16.267,4.863 l -8.248,8.398 -12.792,1.96 -12.792,1.96 0.675,-6.608 c 0.889,-8.72 3.215,-17.821 5.601,-21.915005 2.314,-3.972 2.449,-8.461 0.427,-14.193 -0.825,-2.338 -1.5,-5.545 -1.5,-7.126 0,-3.245 -1.738,-3.725 -5.285,-1.46 -1.749,1.117 -3.475,1.211 -8.204,0.449 -9.759,-1.573 -10.072,-1.204 -10.871,12.777 -0.372,6.505 -2.039,18.584005 -3.705,26.843005 -2.577,12.779 -3.446,15.464 -5.829,18.017 -1.539,1.65 -4.406,5.925 -6.37,9.5 -7.128,12.975 -11.961,17.682 -14.287,13.917 -0.368,-0.595 -2.539,-1.884 -4.823,-2.863 -5.72,-2.452 -6.469,-3.645 -8.282,-13.199 -2.087,-10.994 -1.322,-22.249 2.177,-32.012 4.077,-11.377005 4.225,-13.546005 1.02,-15.006005 -2.08,-0.948 -3.655,-0.954 -7.12,-0.027 -7.572,2.025 -9.851,1.581 -14.421,-2.81 -2.29,-2.2 -5.001,-4 -6.026,-4 -3.25,0 -7.33,4.566 -9.951,11.137 -3.021,7.573005 -5.358,8.606005 -8.835,3.904005 -2.646,-3.580005 -6.717,-4.052005 -10.253,-1.19 -1.793,1.452 -2.378,3.126 -2.713,7.761 -0.595,8.222 1.008,13.471 4.762,15.591 5.828,3.292 2.978,6.788 -4.915,6.03 -3.203,-0.308 -5.768,0.077 -7.916,1.188 -3.08,1.593 -3.254,1.569 -5.589,-0.766 -1.326,-1.326 -2.968,-4.27 -3.649,-6.543 -1.104,-3.686 -0.943,-5.236 1.499,-14.372 1.504,-5.632 3.602,-12.210005 4.661,-14.617005 2.22,-5.048 2.39,-7.381 0.762,-10.439 -1.595,-2.994 -3.679,-4.466 -8.071,-5.702 -7.509,-2.112 -10.614,1.6 -14.818,17.715 -2.654,10.173005 -6.145,15.736005 -11.505,18.331005 -4.944,2.393 -7.188,2.458 -12.436,0.358 -4.739,-1.896 -8.007,-6.02 -8.007,-10.104 0,-2.4 1.442,-4.155 8.25,-10.041005 4.538,-3.923 11.625,-10.071 15.75,-13.663 4.125,-3.592 10.278,-8.155 13.674,-10.142 8.418,-4.923 9.722,-6.514 8.905,-10.867 -0.805,-4.288 -6.477,-10.569 -9.546,-10.569 -4.085,0 -8.958,3.157 -12.513,8.105 -3.695,5.144 -5.397,5.875 -7.885,3.388 -2.787,-2.788 0.158,-13.689 6.005,-22.229 3.834,-5.6 3.876,-8.264 0.132,-8.264 -1.26,0 -2.844,-0.886 -3.52,-1.969 -2.304,-3.688 -7.028,-5.321 -13.166,-4.549 -3.072,0.386 -8.23,0.639 -11.461,0.564 -6.561,-0.154 -6.168,-1.009 -3.794,8.228 0.593,2.309 0.632,6.385 0.102,10.5 -0.477,3.699 -0.882,9.109 -0.9,12.022 l -0.033,5.296 -5.25,2.444 c -6.084,2.833 -8.494,3.016 -13.298,1.008 -4.274,-1.785 -5.619,-4.895 -3.902,-9.019 0.693,-1.664 1.587,-5.275 1.988,-8.025 0.543,-3.73 2.096,-6.949 6.109,-12.672 6.945,-9.903 9.304,-15.216 9.331,-21.021 0.026,-5.5309998 -2.284,-7.8019998 -7.951,-7.8159998 -2.769,-0.007 -4.106,0.691 -6.222,3.2499998 -2.44,2.951 -2.843,3.112 -4.266,1.706 -1.278,-1.261 -1.368,-2.1379998 -0.483,-4.6789998 0.791,-2.269 0.786,-3.694 -0.018,-5.197 -1.301,-2.43100001 -5.23,-2.75000001 -7.038,-0.571 m -79.871,69.1219998 c -1.271,0.89 -2.97,4.315 -4.305,8.674 -6.551,21.401005 1.544,49.145005 16.604,56.903005 4.898,2.523 13.737,3.385 19.296,1.881 4.77,-1.291 8.179,-5.468 13.305,-16.304 3.388,-7.161 3.708,-11.405 1.255,-16.625 -2.249,-4.785 -15.526,-18.051005 -22.584,-22.566005 -3.062,-1.959 -5.843,-4.008 -6.18,-4.553 -0.64,-1.035 -10.821,-7.198 -13.655,-8.265 -0.9,-0.339 -2.58,0.046 -3.736,0.855 m -55.966,25.778 c -6.203,6.543005 -7.406,12.583005 -3.996,20.067005 1.091,2.394 1.581,2.533 8.912,2.533 4.266,0 8.469,0.273 9.339,0.607 0.977,0.375 1.582,0.073 1.582,-0.789 0,-0.767 0.879,-3.118 1.952,-5.224 l 1.953,-3.83 -8.402,-8.232 -8.401,-8.233005 -2.939,3.101 m -123.945,13.405005 c 0.625,8.739 2.789,12.797 5.928,11.117 1.143,-0.612 3.143,-0.909 4.444,-0.66 2.773,0.53 3.016,-0.052 3.968,-9.532 l 0.679,-6.771 -2.728,1.037 c -2.591,0.986 -5.789,0.531 -10.905,-1.551 -1.782,-0.725 -1.865,-0.343 -1.386,6.36 m 69.391,10.616 c -0.334,1.331 -0.334,3.132 0,4.002 0.334,0.87 0.313,2.751 -0.046,4.18 -0.59,2.353 -1.001,2.547 -4.357,2.05 -7.529,-1.115 -8.511,-1.132 -8.853,-0.153 -0.423,1.209 10.314,4.5 14.681,4.5 2.133,0 4.068,-0.949 6.12,-3 l 3,-3 -4.698,-5.5 c -2.585,-3.025 -4.821,-5.5 -4.969,-5.5 -0.149,0 -0.544,1.089 -0.878,2.421 m 188.874,17.114 c -4.477,2.21 -5.751,4.978 -5.596,12.155 0.08,3.681 -0.494,7.826 -1.375,9.935 -1.904,4.556 -1.903,6.719 0.005,10.408 3.162,6.114 11.179,7.48 16.204,2.759 3.078,-2.891 6.279,-13.562 6.279,-20.929 0,-8.035 -2.019,-12.555 -6.432,-14.399 -4.327,-1.808 -5.294,-1.801 -9.085,0.071 m -302.483,7.018 c 0,3.176 12.051,14.729 13.673,13.107 1.154,-1.154 -2.284,-9.06 -4.673,-10.744 -2.673,-1.884 -9,-3.546 -9,-2.363 m 534.949,11.174 c -4.546,0.366 -4.555,0.374 -7.75,7.149 -3.646,7.731 -4.075,13.196 -1.605,20.446 l 1.594,4.678 6.156,0.044 c 3.386,0.024 7.857,0.651 9.937,1.393 3.712,1.324 3.824,1.292 6.181,-1.799 5.27,-6.909 5.882,-13.548 1.971,-21.397 -2.63,-5.278 -8.546,-11.383 -10.718,-11.061 -0.668,0.099 -3.263,0.345 -5.766,0.547 m -146.449,2.436 c -3.3,1.173 -7.942,2.79 -10.315,3.593 -3.502,1.184 -4.711,2.274 -6.414,5.778 -1.969,4.054 -1.998,4.471 -0.463,6.814 2.383,3.636 18.944,7.461 25.612,5.916 9.848,-2.282 18.08,-6.589 18.08,-9.46 0,-0.466 1.16,-2.601 2.579,-4.744 4.579,-6.92 2.097,-8.49 -15.079,-9.541 -6.495,-0.397 -9.129,-0.087 -14,1.644 m -234.202,1.731 c -24.907,0.65 -29.248,1.558 -21.98,4.595 7.261,3.033 15.412,4.647 28.936,5.728 l 13.754,1.1 0.983,3.65 c 0.735,2.729 1.87,4.073 4.496,5.325 2.552,1.218 3.513,2.321 3.513,4.037 0,3.904 -3.168,5.76 -11.676,6.839 -11.827,1.501 -17.678,0.725 -26.524,-3.518 -9.961,-4.778 -31.838,-8.783 -48.8,-8.934 -14.144,-0.125 -20.206,1.878 -28.427,9.391 -4.683,4.281 -5.785,6.03 -7.986,12.679 -6.817,20.596 -5.799,42.336 3.097,66.171 4.765,12.764 7.08,17.181 15.653,29.867 3.998,5.916 8.77,14.48 10.605,19.032 3.515,8.721 12.018,20.157 14.965,20.129 3.009,-0.029 4.38,-1.789 5.168,-6.632 0.637,-3.918 0.375,-5.879 -1.357,-10.176 -3.042,-7.545 -1.649,-9.826 8.039,-13.157 6.822,-2.346 7.305,-2.387 8.933,-0.759 0.946,0.946 2.427,3.633 3.29,5.971 1.906,5.158 4.036,5.774 8.112,2.344 3.89,-3.273 5.608,-3.241 9.153,0.174 1.571,1.512 5.195,3.875 8.055,5.25 l 5.2,2.5 -0.031,5.039 c -0.026,4.178 -0.826,6.374 -4.676,12.845 l -4.645,7.805 0.404,18.155 c 0.275,12.305 1.081,22.023 2.502,30.156 1.287,7.371 2.404,19.715 2.894,32 0.439,11 1.132,20.9 1.54,22 1.821,4.915 10.104,21.383 12.626,25.104 3.484,5.14 10.78,8.495 19.924,9.159 8.306,0.604 15.204,-2.132 20.868,-8.277 4.658,-5.053 6.844,-9.138 12.075,-22.56 7.969,-20.449 11.82,-36.9 15.025,-64.199 2.262,-19.258 4.443,-29.218 8.533,-38.969 5.191,-12.377 5.512,-14.345 6.468,-39.758 1.005,-26.687 2.308,-35.263 9.577,-63.053 3.673,-14.043 3.734,-14.562 2.6,-22.34 -0.672,-4.607 -2.232,-10.012 -3.702,-12.824 -1.398,-2.673 -3.436,-7.129 -4.529,-9.901 -5.272,-13.375 -18.561,-27.138 -33.145,-34.324 -14.633,-7.211 -28.457,-8.735 -69.51,-7.664 m 271.702,34.787 c -11.716,0.863 -17.445,2.39 -20.194,5.385 -2.017,2.198 -3.592,2.934 -6.274,2.934 -2.82,0 -3.768,0.49 -4.458,2.306 -0.483,1.269 -2.087,3.744 -3.565,5.5 -1.478,1.757 -2.534,3.26 -2.348,3.341 0.186,0.081 5.514,0.648 11.839,1.261 9.923,0.961 12.689,0.878 20.169,-0.606 7.905,-1.568 9.074,-2.112 13.25,-6.172 2.52,-2.448 4.581,-5.226 4.581,-6.173 0,-1.709 -6.522,-8.617 -7.821,-8.282 -0.374,0.096 -2.704,0.324 -5.179,0.506 m -467.803,2.878 c -6.31,1.698 -8.473,2.771 -13.447,6.67 -3.691,2.893 -3.75,3.047 -3.75,9.887 0,8.724 1.49,12.196 7.724,17.996 l 4.957,4.612 10.41,0.558 c 7.933,0.426 12.666,1.309 19.899,3.715 9.942,3.308 13.258,3.381 17.814,0.396 2.274,-1.49 2.372,-1.953 1.747,-8.236 -1.295,-13.013 -4.578,-20.344 -13.172,-29.413 -5.49,-5.794 -10.338,-7.709 -19.379,-7.656 -4.125,0.024 -9.886,0.686 -12.803,1.471 m 563.958,31.73 c -1.013,1.014 -6.976,5.54 -13.249,10.058 -8.684,6.254 -11.467,8.804 -11.664,10.684 -0.141,1.358 -0.992,5.778 -1.891,9.823 -2.276,10.247 -2.463,10.165 17.348,7.644 6.49,-0.826 12.711,-1.709 13.824,-1.962 2.05,-0.466 7.544,-10.069 8.04,-14.052 0.138,-1.109 2.086,-5.384 4.33,-9.5 4.427,-8.123 5.31,-13.501 2.357,-14.356 -0.962,-0.279 -5.238,-0.434 -9.501,-0.344 -6.049,0.126 -8.155,0.566 -9.594,2.005 m -156.226,3.078 c -12.012,3.239 -20.321,11.799 -31.338,32.286 -12.024,22.36 -18.468,32.66 -25.124,40.156 -4.267,4.807 -6.467,8.13 -6.467,9.77 0,1.367 -0.637,4.009 -1.415,5.872 -0.778,1.862 -1.159,3.642 -0.847,3.954 0.313,0.313 0.612,6.261 0.665,13.22 0.094,12.285 0.169,12.705 2.597,14.493 3.281,2.418 14,3.765 14,1.759 0,-2.858 5.595,-7.269 14.415,-11.365 6.07,-2.818 14.228,-8.088 24.582,-15.878 20.401,-15.348 52.229,-32.39 64.406,-34.485 l 3.904,-0.671 2.731,-10.989 c 1.502,-6.044 3.611,-13.239 4.687,-15.989 1.268,-3.241 1.801,-6.479 1.515,-9.203 -0.27,-2.577 0.229,-5.959 1.291,-8.739 2.255,-5.905 1.147,-7.269 -6.616,-8.147 -3.671,-0.415 -6.759,-1.413 -8.16,-2.636 -1.845,-1.61 -3.164,-1.86 -7.255,-1.377 -15.448,1.826 -20.546,1.885 -24.267,0.28 -3.627,-1.564 -14.004,-3.747 -17.167,-3.611 -0.861,0.038 -3.623,0.623 -6.137,1.3 m -408.929,49.993 c -6.987,1.902 -13.487,5.539 -19.536,10.93 -7.629,6.8 -9.858,11.428 -9.168,19.039 0.649,7.152 2.509,9.613 5.917,7.827 1.258,-0.659 3.816,-2.314 5.685,-3.677 3.964,-2.892 9.332,-3.245 14.773,-0.972 2.703,1.13 3.947,1.225 4.963,0.382 1.023,-0.849 1.962,-0.728 3.826,0.493 3.926,2.572 4.854,5.234 4.012,11.511 -0.414,3.084 -0.772,8.757 -0.795,12.607 -0.051,8.292 0.636,10.014 15.543,38.964 10.178,19.767 10.347,20.015 17.04,25.126 8.933,6.819 12.04,10.851 18.039,23.41 9.857,20.63 14.041,24.714 29.636,28.922 14.782,3.989 58.07,7.484 62.607,5.055 9.03,-4.832 2.748,-25.718 -18.199,-60.501 -12.579,-20.888 -23.032,-35.056 -35.369,-47.94 -6.339,-6.62 -17.097,-18.561 -23.907,-26.536 -15.873,-18.589 -34.236,-36.74 -40.692,-40.223 -9.716,-5.242 -24.409,-7.13 -34.375,-4.417 m -66.000002,27.497 c 0,4.145 3.056,9.143 5.592,9.143 2.596,0 -0.409,-9.78 -3.621,-11.786 -1.834,-1.145 -1.971,-0.961 -1.971,2.643 m 593.000002,2.838 c -10.124,2.673 -15.061,5.589 -17.522,10.348 -2.312,4.471 -0.95,7.452 7.07,15.472 10.115,10.115 16.585,13.166 30.952,14.591 15.05,1.493 18.29,1.284 26.708,-1.724 10.991,-3.927 13.07,-6.455 14.144,-17.198 0.459,-4.599 0.236,-7.081 -0.823,-9.129 -1.755,-3.392 -3.266,-4.05 -9.361,-4.073 -10.973,-0.042 -22.647,-2.669 -30.608,-6.886 -4.251,-2.253 -8.479,-4.054 -9.395,-4.003 -0.916,0.051 -5.94,1.222 -11.165,2.602 m -574.862,103.478 c 7.462,3.341 15.45,18.139 19.378,35.9 3.567,16.125 6.448,21.582 14.015,26.539 2.33,1.527 4.531,1.854 11.498,1.71 13.737,-0.284 46.971,-4.95 46.971,-6.595 0,-0.569 -1.687,-2.67 -3.75,-4.67 -2.062,-1.999 -7.125,-7.182 -11.25,-11.517 -8.419,-8.849 -15.674,-13.948 -25.694,-18.061 -22.861,-9.384 -30.737,-14.506 -33.337,-21.68 l -1.195,-3.299 h -10.187 -10.188 l 3.739,1.673 m -12.203002,84.627 c -2.83,4.13 -9.449,9.2 -12.009,9.2 -1.614,0 -1.588,0.21 0.296,2.325 l 2.071,2.325 6.468,-1.793 c 7.041002,-1.953 12.720002,-5.646 13.771002,-8.957 0.791,-2.494 0.131,-3.237 -4.6,-5.18 l -3.568,-1.466 -2.429002,3.546"
     stroke="none"
     fill="#000000"
     fill-rule="evenodd"
     id="path2" />
</svg>
